<ttFont>
          <CharString index="0">
            rmoveto
            33 14 9 13 -17 callgsubr
            51 rlineto
            14 1 -13 8 -30 hhcurveto
            -33 -14 -9 -13 -88 callgsubr
            12 -8 31 hhcurveto
            return
          </CharString>
          <CharString index="1">
            24 15 5 13 9 hvcurveto
            68 95 10 10 11 vvcurveto
            10 -14 3 -28 -28 -19 -7 -19 -9 vhcurveto
            -39 -80 -10 17 callsubr
            return
          </CharString>
          <CharString index="2">
            rmoveto
            15 hlineto
            20 13 7 15 10 hvcurveto
            63 88 rlineto
            4 6 4 6 5 vvcurveto
            9 1 -6 6 -12 hhcurveto
            -20 hlineto
            -11 -9 -5 -10 -7 hvcurveto
            -52 -72 -37 72 rlineto
            10 -6 -7 5 -11 hhcurveto
            -19 hlineto
            -12 -8 -6 -8 -29 callsubr
            3 -8 2 -5 vhcurveto
            43 -88 rlineto
            -15 8 13 -7 19 hhcurveto
            return
          </CharString>
          <CharString index="3">
            576 -107 callgsubr
            return
          </CharString>
          <CharString index="4">
            hlineto
            -26 -13 130 callgsubr
            -488 rlineto
            -71 -8 -60 -51 -78 hhcurveto
            -78 -51 50 72 8 hvcurveto
            51 488 -82 callsubr
            -51 -485 rlineto
            -126 -13 72 -75 144 hhcurveto
            return
          </CharString>
          <CharString index="5">
            rmoveto
            29 12 9 13 124 callsubr
            -29 -12 -9 -13 -1 hvcurveto
            -5 -51 -31 callgsubr
            126 hmoveto
            28 13 9 13 -17 callgsubr
            51 14 callgsubr
            -29 -12 -9 -13 -1 hvcurveto
            -5 -51 -31 callgsubr
            return
          </CharString>
          <CharString index="6">
            -132 -14 29 -138 112 hhcurveto
            24 73 rmoveto
            -69 -6 109 92 10 hvcurveto
            112 12 34 77 78 hhcurveto
            42 23 -23 -16 15 hvcurveto
            -3 -16 -3 -16 -2 -18 -18 -169 rcurveline
            -99 -29 -46 -33 -38 hhcurveto
            return
          </CharString>
          <CharString index="7">
            rmoveto
            10 callgsubr
            -16 -11 11 46 5 hvcurveto
            13 126 14 125 13 126 rrcurveto
            52 callsubr
            -14 -6 -16 -2 hvcurveto
            -2 -18 -174 -123 -12 hvcurveto
            -3 -32 -2 -32 -3 -32 rrcurveto
            -103 -9 52 -10 37 hhcurveto
            return
          </CharString>
          <CharString index="8">
            -83 callsubr
            hintmask 10111100
            -81 callgsubr
            hintmask 11011100
            -95 callsubr
          </CharString>
          <CharString index="9">
            rmoveto
            -12 hlineto
            -19 -16 -4 -12 -4 hvcurveto
            -105 -281 -10 -26 -7 -29 -9 -25 rlinecurve
            -6 hlineto
            -3 26 -4 27 -4 27 -42 281 rcurveline
            12 -2 -13 4 -19 hhcurveto
            -14 hlineto
            -27 -13 -6 -11 -1 hvcurveto
            -1 -4 1 -5 2 -9 84 -425 rcurveline
            2 -9 5 -3 7 -1 -95 -227 rcurveline
            -5 -13 -1 -2 -2 vvcurveto
            -10 -1 9 -6 22 hhcurveto
            21 hlineto
            20 16 6 15 7 hvcurveto
            267 677 4 10 1 4 1 4 rlinecurve
            11 1 -11 6 -26 hhcurveto
            return
          </CharString>
          <CharString index="10">
            297 hlineto
            13 6 9 21 3 13 callgsubr
            -13 hhcurveto
            -210 hlineto
            266 389 1 2 1 3 1 5 rlinecurve
            18 2 -7 34 -8 hhcurveto
            -282 hlineto
            -13 -6 -9 -21 -3 hvcurveto
            -1 -12 rlineto
            31 callgsubr
            13 hhcurveto
            194 hlineto
            -267 -389 97 callgsubr
            -4 133 callsubr
            -31 8 hhcurveto
            return
          </CharString>
          <CharString index="11">
            -42 -35 -44 -28 -43 hhcurveto
            -57 -30 32 54 5 hvcurveto
            33 310 43 callsubr
            -28 hhcurveto
            -4 86 callsubr
            -33 -318 rlineto
            -95 -10 51 -56 95 hhcurveto
            49 51 20 44 44 hvcurveto
            -158 -16 -37 -53 -90 -90 -52 33 -11 hhcurveto
            -3 -7 -6 -24 -2 hvcurveto
            -1 -4 -1 -14 -7 vvcurveto
            -21 1 71 -29 100 hhcurveto
            134 65 65 217 22 hvcurveto
            43 406 rlineto
            return
          </CharString>
          <CharString index="12">
            -67 callsubr
            -56 callsubr
          </CharString>
          <CharString index="13">
            -45 -29 -36 -25 -36 hhcurveto
            -48 -23 33 58 6 hvcurveto
            36 345 rlineto
            67 callgsubr
            -4 -43 callgsubr
            -2 hvcurveto
            -37 -353 rlineto
            -95 -10 34 -62 88 hhcurveto
            49 45 22 50 38 hvcurveto
            -3 -32 rlineto
            -121 -13 -42 -52 -71 -80 -41 46 -12 hhcurveto
            -10 -6 -22 -18 -2 hvcurveto
            -8 1 -10 3 -8 vhcurveto
            -22 9 59 -31 76 hhcurveto
            129 65 78 200 21 hvcurveto
            return
          </CharString>
          <CharString index="14">
            97 10 -40 59 -81 hhcurveto
            -49 -47 -28 -47 -34 hvcurveto
            32 -3 3 36 -25 hhcurveto
            -11 -47 -5 -18 -2 hvcurveto
            -1 -6 6 -38 72 callsubr
            10 -8 26 hhcurveto
            11 hlineto
            27 12 73 callsubr
            41 23 36 29 36 hhcurveto
            46 19 -33 -58 -6 hvcurveto
            return
          </CharString>
          <CharString index="15">
            -2 callgsubr
            294 208 353 rlineto
            5 7 3 6 5 vvcurveto
            1 11 -10 5 -27 1 rrcurveto
            130 callsubr
            -2 -12 -7 hvcurveto
            -161 -284 -99 283 rlineto
            13 -5 -12 2 -20 hhcurveto
            -15 hlineto
            -30 -9 -6 -11 -29 callsubr
            2 -6 3 -7 vhcurveto
            134 -350 -32 -297 -61 callsubr
            return
          </CharString>
          <CharString index="16">
            97 295 18 79 rlineto
            4 hlineto
            -27 1 -27 1 -25 vhcurveto
            34 -295 17 callgsubr
            34 hlineto
            20 15 4 12 3 hvcurveto
            157 477 2 6 1 7 1 4 rlinecurve
            10 1 -11 7 -27 hhcurveto
            -27 -17 -4 -12 -4 hvcurveto
            -94 -319 -9 -29 -7 -34 -8 -32 rlinecurve
            -5 hlineto
            -1 31 -2 25 -2 40 -34 317 rcurveline
            13 -2 -12 4 -20 hhcurveto
            -19 hlineto
            -19 -15 -4 -13 -3 hvcurveto
            -99 -317 -9 -30 -9 -36 -8 -31 rlinecurve
            -5 hlineto
            -1 32 -2 38 -2 26 -27 319 rcurveline
            12 -1 -15 4 -28 hhcurveto
            -29 -13 -7 -10 -1 hvcurveto
            -1 -4 1 -10 1 -6 56 -474 rcurveline
            return
          </CharString>
          <CharString index="17">
            389 hlineto
            13 7 10 24 96 callsubr
            24 2 -5 10 -13 hhcurveto
            -301 hlineto
            378 559 rlineto
            1 3 1 4 5 vvcurveto
            21 2 -9 32 -9 hhcurveto
            -366 hlineto
            -13 -6 -10 -24 -3 hvcurveto
            -1 -8 rlineto
            -24 -2 4 -10 13 hhcurveto
            279 hlineto
            -380 -559 97 callgsubr
            -5 133 callsubr
            -33 11 hhcurveto
            return
          </CharString>
          <CharString index="18">
            -764 -106 callgsubr
            return
          </CharString>
          <CharString index="19">
            rmoveto
            199 hlineto
            14 6 -59 callgsubr
            1 10 75 callgsubr
            -199 25 callsubr
            -1 -10 rlineto
            31 callgsubr
            13 hhcurveto
            return
          </CharString>
          <CharString index="20">
            rmoveto
            46 42 11 10 21 hvcurveto
            21 10 5 11 2 12 1 18 -6 43 -27 -12 rrcurveto
            -13 -24 -32 -12 -41 hhcurveto
            -114 -44 88 191 20 hvcurveto
            192 21 63 85 114 hhcurveto
            39 26 -11 -10 19 hvcurveto
            22 -13 14 54 1 12 1 15 -3 7 -12 5 rrcurveto
            11 -24 -37 8 -38 hhcurveto
            -192 -81 -114 -242 -26 hvcurveto
            -244 -25 71 -112 177 hhcurveto
            endchar
          </CharString>
          <CharString index="21">
            607 -107 callsubr
            return
          </CharString>
          <CharString index="22">
            585 -103 callgsubr
            return
          </CharString>
          <CharString index="23">
            rmoveto
            76 33 -41 10 hhcurveto
            14 26 41 17 2 hvcurveto
            27 3 -81 35 -76 hhcurveto
            -188 -85 -113 -249 -27 hvcurveto
            -238 -25 91 -112 151 hhcurveto
            79 104 16 56 6 hvcurveto
            30 286 rlineto
            21 2 -8 9 -18 hhcurveto
            -148 128 callgsubr
            -1 -16 rlineto
            -21 -3 5 -9 14 hhcurveto
            85 hlineto
            -23 -223 rlineto
            -8 -23 -31 -5 -36 hhcurveto
            -124 -26 130 153 16 hvcurveto
            172 18 56 102 125 hhcurveto
            return
          </CharString>
          <CharString index="24">
            rmoveto
            -98 callgsubr
            return
          </CharString>
          <CharString index="25">
            -70 callsubr
            -14 -94 callgsubr
            return
          </CharString>
          <CharString index="26">
            rmoveto
            -85 callgsubr
            return
          </CharString>
          <CharString index="27">
            -59 callgsubr
            2 16 rlineto
            return
          </CharString>
          <CharString index="28">
            rmoveto
            91 callgsubr
            70 660 -76 callgsubr
            return
          </CharString>
          <CharString index="29">
            -35 -50 40 -42 hhcurveto
            -37 -26 -18 -51 -20 hvcurveto
            -2 -5 -1 -4 -4 vvcurveto
            -5 3 -4 7 -3 vhcurveto
            return
          </CharString>
          <CharString index="30">
            rmoveto
            27 57 60 96 17 -12 11 -23 hvcurveto
            -10 hlineto
            -26 -12 -13 -19 hvcurveto
            -76 -29 -38 -23 vvcurveto
            -12 17 -3 11 vhcurveto
            return
          </CharString>
          <CharString index="31">
            rmoveto
            22 14 7 11 6 hvcurveto
            39 78 15 30 7 vvcurveto
            10 -12 4 -28 -27 -25 -4 -22 -6 vhcurveto
            -20 -81 -5 -21 -9 vvcurveto
            -7 6 -3 21 vhcurveto
            return
          </CharString>
          <CharString index="32">
            -106 callgsubr
            hintmask 11011000
            -87 callgsubr
            endchar
          </CharString>
          <CharString index="33">
            rmoveto
            63 callsubr
            -7 -6 -5 -19 hhcurveto
            -20 -16 11 46 5 hvcurveto
            64 607 43 callsubr
            -28 hhcurveto
            -4 86 callsubr
            -65 -615 rlineto
            -102 -11 63 -19 41 hhcurveto
            return
          </CharString>
          <CharString index="34">
            rmoveto
            40 23 -31 -37 -81 -79 -23 -68 hvcurveto
            -53 hlineto
            93 12 37 79 88 hhcurveto
            return
          </CharString>
          <CharString index="35">
            hhcurveto
            -125 -78 -97 -173 -18 hvcurveto
            -172 -18 57 -93 126 hhcurveto
            return
          </CharString>
          <CharString index="36">
            rmoveto
            4 hlineto
            28 13 73 callsubr
            15 8 39 46 40 30 6 -11 12 hhcurveto
            12 12 35 19 2 hvcurveto
            22 2 -15 17 -35 hhcurveto
            -38 -39 -27 -48 -36 hvcurveto
            26 -3 -1 42 -24 hhcurveto
            -13 -41 -4 -19 -2 hvcurveto
            -1 -5 8 -39 72 callsubr
            11 -8 28 hhcurveto
            return
          </CharString>
          <CharString index="37">
            rlineto
            -70 callgsubr
            return
          </CharString>
          <CharString index="38">
            rmoveto
            -6 hlineto
            -28 -7 -21 -29 -10 hvcurveto
            hintmask 11101100
            23 -18 -34 31 -54 hhcurveto
            -105 -77 -102 -164 -17 hvcurveto
            -130 -14 29 -133 113 hhcurveto
            44 46 21 61 35 hvcurveto
            -2 -15 rlineto
            -152 -16 -36 -55 -76 -76 -36 44 -11 hhcurveto
            -14 -7 -42 -13 6 hvcurveto
            -24 11 48 -37 84 hhcurveto
            118 67 73 221 23 hvcurveto
            hintmask 11011100
            45 422 rlineto
            13 -5 8 -20 vhcurveto
            -74 -158 rmoveto
            -18 -169 rlineto
            hintmask 11101100
            -98 -30 -49 -27 -32 hhcurveto
            -70 -7 96 98 10 hvcurveto
            110 12 32 79 81 hhcurveto
            40 24 -23 -16 15 hvcurveto
            hintmask 11011100
            -3 -16 -3 -16 -2 -18 rrcurveto
            endchar
          </CharString>
          <CharString index="39">
            -199 -1 callgsubr
            return
          </CharString>
          <CharString index="40">
            23 -18 -33 31 -57 hhcurveto
            -103 -77 -103 -163 -17 hvcurveto
            return
          </CharString>
          <CharString index="41">
            -7 -9 -5 -13 hhcurveto
            return
          </CharString>
          <CharString index="42">
            vstem
            83 -2 -102 callgsubr
            return
          </CharString>
          <CharString index="43">
            11 98 rlineto
            56 6 19 7 22 22 6 -6 8 hhcurveto
            15 11 39 8 1 hvcurveto
            21 2 -38 10 -30 hhcurveto
            -42 -74 -17 -110 -12 hvcurveto
            -11 -106 rlineto
            -29 128 callgsubr
            -1 -12 rlineto
            31 callgsubr
            14 hhcurveto
            29 hlineto
            -46 -431 rlineto
            return
          </CharString>
          <CharString index="44">
            -2 callgsubr
            288 rlineto
            63 hlineto
            58 22 -21 -77 16 hvcurveto
            40 -196 rlineto
            -10 2 14 -6 19 hhcurveto
            17 hlineto
            27 13 6 10 1 hvcurveto
            3 0 5 -2 6 vhcurveto
            -42 197 -15 65 -13 46 -28 14 rlinecurve
            1 4 return
          </CharString>
          <CharString index="45">
            43.75 88.79 212.82 87.92 return
          </CharString>
          <CharString index="46">
            rlineto
            -14 -1 -63 callgsubr
            return
          </CharString>
          <CharString index="47">
            -94 342 -73 callsubr
            return
          </CharString>
          <CharString index="48">
            rmoveto
            hintmask 1100100110000000
            -11 callsubr
            hintmask 1100110001000000
            -39 callgsubr
            hintmask 1001101001000000
            7 callgsubr
            hintmask 1100100101000000
            25 callgsubr
            hintmask 1100110001000000
            51 callsubr
            hintmask 1010101001000000
            -18 callgsubr
            hintmask 1100110010000000
            -25 callgsubr
          </CharString>
          <CharString index="49">
            25 25 8 18 9 hvcurveto
            return
          </CharString>
          <CharString index="50">
            33 78 76 120 13 hvcurveto
            17 2 -14 11 -25 hhcurveto
            -9 hlineto
            -27 -15 -13 -19 -2 hvcurveto
            -6 -62 -17 -47 -27 -44 rrcurveto
            -5 -8 -6 -10 -6 vvcurveto
            -12 -1 17 -3 11 hhcurveto
            return
          </CharString>
          <CharString index="51">
            -101 callsubr
            endchar
          </CharString>
          <CharString index="52">
            168 hlineto
            148 113 90 260 27 hvcurveto
            259 27 -93 91 -148 hhcurveto
            30 callgsubr
            -68 -640 35 callsubr
            return
          </CharString>
          <CharString index="53">
            rmoveto
            -33 -14 -9 -13 -88 callgsubr
            12 -8 31 hhcurveto
            33 14 9 13 -17 callgsubr
            51 rlineto
            14 1 -13 8 -30 hhcurveto
            endchar
          </CharString>
          <CharString index="54">
            -26 callsubr
            64 604 rlineto
            142 -47 callgsubr
            -376 25 callsubr
            -2 -16 rlineto
            31 callgsubr
            13 hhcurveto
            144 hlineto
            -64 -604 -61 callsubr
            return
          </CharString>
          <CharString index="55">
            -54 callgsubr
            91.96 return
          </CharString>
          <CharString index="56">
            -10 -15 callsubr
            return
          </CharString>
          <CharString index="57">
            -26 callgsubr
            8 return
          </CharString>
          <CharString index="58">
            0 68 562 76 hstem
            54.1 91.75 325.28 93.18 vstem
            27 hmoveto
            193 105 callsubr
            4 vlineto
            1 10 0 6 -7 3 -74 28 -30 94 19 177 rrcurveto
            184 19 65 94 103 hhcurveto
            103 45 -94 -184 -19 hvcurveto
            -19 -177 -50 -95 -80 -27 -7 -3 -2 -6 -1 -10 rrcurveto
            -4 vlineto
            -21 -3 6 -9 14 hhcurveto
            192 hlineto
            14 5 9 21 3 hvcurveto
            1 8 75 callgsubr
            -21 -42 -3 -1 -11 hvcurveto
            60 62 36 96 14 130 rrcurveto
            234 24 -76 120 -170 hhcurveto
            -154 -101 -120 -234 -24 hvcurveto
            -14 -130 16 -96 45 -62 rrcurveto
            1 -11 -40 3 -21 hhcurveto
            -13 -7 56 callsubr
            -8 rlineto
            -21 -3 6 -9 13 hhcurveto
            endchar
          </CharString>
          <CharString index="59">
            38 7 49 4 14 -4 5 -12 hvcurveto
            -65 hlineto
            11 105 rlineto
            52 callsubr
            -13 -6 -16 -2 hvcurveto
            -12 -105 rlineto
            return
          </CharString>
          <CharString index="60">
            3 -1 3 hhcurveto
            6 4 4 10 6 hvcurveto
            20 11 9 7 12 hhcurveto
            return
          </CharString>
          <CharString index="61">
            12 -43 callsubr
            return
          </CharString>
          <CharString index="62">
            -20 -194 rlineto
            -5 -45 -2 -19 -14 vvcurveto
            -83 -1 51 -16 34 hhcurveto
            40 25 15 40 12 -3 10 -7 hvcurveto
            return
          </CharString>
          <CharString index="63">
            18 26 callgsubr
            7 66 -70 callsubr
            -18 -94 callgsubr
            -7 -66 -31 callgsubr
            return
          </CharString>
          <CharString index="64">
            8 14 1 hvcurveto
            return
          </CharString>
          <CharString index="65">
            hmoveto
            -90 callsubr
            return
          </CharString>
          <CharString index="66">
            rmoveto
            6 21 10 12 14 hvcurveto
            17 14 18 19 31 vvcurveto
            52 -52 16 -34 -35 -43 -15 122 callgsubr
            5 10 13 31 hhcurveto
            20 17 -9 -18 -14 -11 -12 -20 -11 hvcurveto
            -16 -9 -9 -5 -8 vvcurveto
            -9 16 -11 21 vhcurveto
            return
          </CharString>
          <CharString index="67">
            -104 callgsubr
            -60 -357 -66 callgsubr
          </CharString>
          <CharString index="68">
            -32 -45 40 -39 66 callgsubr
            -1 -4 -4 vvcurveto
            -5 3 -4 6 -3 vhcurveto
            return
          </CharString>
          <CharString index="69">
            -6 73 -70 72 456 -20 hstemhm
            294 146.87 hintmask 00000000
            hintmask 01110000
            431 112 callsubr
            9 87 32 299 vhcurveto
            14 1 -10 8 -26 hhcurveto
            -10 -83 callgsubr
            -2 hvcurveto
            hintmask 10110000
            -38 -366 rlineto
            -43 -26 -34 -27 -34 hhcurveto
            -46 -21 36 61 7 hvcurveto
            35 339 rlineto
            14 2 23 callsubr
            -2 hvcurveto
            -72 -689 rlineto
            -14 -2 11 -8 27 hhcurveto
            11 hlineto
            26 11 30 callsubr
            19 189 rlineto
            -6 12 13 -3 14 hhcurveto
            48 42 24 50 41 hvcurveto
            hintmask 01110000
            -59 9 43 -13 callgsubr
          </CharString>
          <CharString index="70">
            125 75 92 173 18 hvcurveto
            return
          </CharString>
          <CharString index="71">
            rmoveto
            22 32 rlineto
            4 6 2 3 4 vvcurveto
            10 -18 11 -8 -5 -4 -3 -5 -4 vhcurveto
            -17 -25 rlineto
            23 -26 -35 11 -43 hhcurveto
            -125 -78 -97 -173 -18 hvcurveto
            -9 -86 10 -66 27 -45 -23 -34 rcurveline
            -4 -6 -2 -3 -4 vvcurveto
            -10 17 -11 9 5 5 2 6 3 vhcurveto
            19 27 rlineto
            -23 27 36 -12 45 hhcurveto
            -37 callsubr
            9 89 -10 69 -29 45 rrcurveto
            -264 -201 rmoveto
            134 14 38 62 71 hhcurveto
            29 22 -11 -21 14 hvcurveto
            -189 -275 -4 29 0 37 5 45 rlinecurve
            206 hmoveto
            -133 -14 -40 -62 -71 hhcurveto
            -30 -21 11 22 -14 hvcurveto
            190 278 5 -30 0 -39 -5 -47 rlinecurve
            endchar
          </CharString>
          <CharString index="72">
            -90 callgsubr
            -15 -9 -18 -34 vhcurveto
            return
          </CharString>
          <CharString index="73">
            -80 callsubr
            21 2 return
          </CharString>
          <CharString index="74">
            14 -56 callgsubr
            return
          </CharString>
          <CharString index="75">
            7 178 -8 callsubr
            return
          </CharString>
          <CharString index="76">
            181 576 -29 callgsubr
            return
          </CharString>
          <CharString index="77">
            12 79 50 66 55 -57 16 -34 return
          </CharString>
          <CharString index="78">
            -1 hvcurveto
            -5 return
          </CharString>
          <CharString index="79">
            -582 -92 callgsubr
            return
          </CharString>
          <CharString index="80">
            -12 30 hhcurveto
            63 callsubr
            return
          </CharString>
          <CharString index="81">
            rmoveto
            -33 callsubr
            return
          </CharString>
          <CharString index="82">
            40 379 rlineto
            7 1 -9 5 -7 hhcurveto
            -103 -26 -7 -2 -3 -3 -1 -6 rlinecurve
            -11 -1 1 -19 9 hhcurveto
            66 14 -36 -338 rlineto
            return
          </CharString>
          <CharString index="83">
            94 vstem
            15 callsubr
            57 28 43 55 9 86 rlinecurve
            126 14 -60 51 -130 hhcurveto
            -148 94 callsubr
            92 386 rmoveto
            25 240 rlineto
            95 hlineto
            56 33 -36 -81 -8 hvcurveto
            -66 -7 -45 -57 -48 hhcurveto
            return
          </CharString>
          <CharString index="84">
            rmoveto
            -37 callsubr
            return
          </CharString>
          <CharString index="85">
            58 548 rlineto
            102 hlineto
            94 59 -75 -199 -21 hvcurveto
            -200 -21 -75 -74 -94 hhcurveto
            return
          </CharString>
          <CharString index="86">
            vstem
            421 525 rmoveto
            -21 hlineto
            -19 -17 -2 -12 -9 hvcurveto
            -169 -228 rlineto
            -5 hlineto
            47 447 rlineto
            14 2 23 callsubr
            -2 hvcurveto
            -74 -710 -31 callgsubr
            11 hlineto
            26 44 callsubr
            26 238 rlineto
            6 hlineto
            124 -247 rlineto
            -13 7 5 0 20 hhcurveto
            25 hlineto
            27 13 3 11 1 hvcurveto
            4 -1 4 -4 8 vhcurveto
            -129 237 168 226 rlineto
            6 8 4 7 6 vvcurveto
            7 1 -9 6 -23 hhcurveto
            return
          </CharString>
          <CharString index="87">
            -106 callgsubr
            hintmask 11011100
            -87 callgsubr
            endchar
          </CharString>
          <CharString index="88">
            564 -74 callgsubr
            return
          </CharString>
          <CharString index="89">
            -73 callsubr
            endchar
          </CharString>
          <CharString index="90">
            21 2 hvcurveto
            return
          </CharString>
          <CharString index="91">
            -13 -1 3 -5 8 hhcurveto
            23 hlineto
            49 33 -17 -58 -7 hvcurveto
            -65 -7 -48 -17 -33 -43 -21 21 -10 hhcurveto
            -6 -16 -18 -11 -1 hvcurveto
            -15 -2 47 -18 55 hhcurveto
            return
          </CharString>
          <CharString index="92">
            8 -27 hhcurveto
            return
          </CharString>
          <CharString index="93">
            11 96 9 98 11 96 rrcurveto
            63 4 28 36 50 vvcurveto
            -35 callsubr
            -32 18 callgsubr
            return
          </CharString>
          <CharString index="94">
            -41 4 callgsubr
            return
          </CharString>
          <CharString index="95">
            13 hlineto
            12 6 4 9 1 hvcurveto
            9 85 rlineto
            32 hlineto
            8 4 5 12 2 hvcurveto
            7 vlineto
            12 2 -3 5 -8 hhcurveto
            -32 hlineto
            26 255 rlineto
            8 1 -5 5 -12 hhcurveto
            -12 hlineto
            -8 -8 -3 -5 -4 hvcurveto
            -182 -266 -2 -1 0 -2 -1 -3 rlinecurve
            -11 -1 6 -18 6 hhcurveto
            143 hlineto
            -9 -85 rlineto
            -9 -1 5 -4 12 hhcurveto
            -107 139 rmoveto
            127 187 2 -1 -5 -18 -4 -18 -3 -34 rlinecurve
            -12 -116 rlineto
            endchar
          </CharString>
          <CharString index="96">
            135 64 53 95 10 hvcurveto
            8 78 -54 32 -74 12 -60 10 -63 0 6 53 5 42 35 21 46 2 rrcurveto
            return
          </CharString>
          <CharString index="97">
            rmoveto
            16 7 3 7 9 -7 19 -31 73 hvcurveto
            19 -8 -22 7 -22 hhcurveto
            -25 -8 -3 -10 -10 7 -8 57 -88 hvcurveto
            -12 9 12 -6 15 hhcurveto
            return
          </CharString>
          <CharString index="98">
            21 2 -4 9 -14 hhcurveto
            return
          </CharString>
          <CharString index="99">
            72 344 108 0 -20 return
          </CharString>
          <CharString index="100">
            271 -47 callgsubr
            return
          </CharString>
          <CharString index="101">
            -21 -2 hvcurveto
            return
          </CharString>
          <CharString index="102">
            -107 callsubr
            -150 -819 -79 callgsubr
          </CharString>
          <CharString index="103">
            0 68 545 97 hstem
            8 515.5 vstem
            31 hmoveto
            463 hlineto
            17 10 133 callgsubr
            3 vlineto
            1 12 0 10 -3 12 -143 620 rcurveline
            16 -4 -10 7 -14 hhcurveto
            -31 hlineto
            -15 -10 -7 -16 -7 hvcurveto
            -267 -620 -6 -14 -4 -9 -1 -14 rlinecurve
            -1 -2 rlineto
            -18 -1 9 -10 15 hhcurveto
            68 68 rmoveto
            226 545 rlineto
            6 hlineto
            107 -545 rlineto
            endchar
          </CharString>
          <CharString index="104">
            72 147 72 172 72 return
          </CharString>
          <CharString index="105">
            38 callgsubr
            141 hmoveto
            -57 callsubr
            endchar
          </CharString>
          <CharString index="106">
            -31 -45 40 -38 66 callgsubr
            0 -4 -4 vvcurveto
            -5 2 -4 7 -3 vhcurveto
            return
          </CharString>
          <CharString index="107">
            9 hlineto
            27 14 13 19 2 hvcurveto
            7 62 15 47 28 44 5 8 6 10 1 6 rrcurveto
            12 1 -18 3 -11 hhcurveto
            -33 -78 -76 -120 -12 hvcurveto
            -17 -2 14 -11 25 hhcurveto
            return
          </CharString>
          <CharString index="108">
            24 49 56 90 17 -15 11 -25 hvcurveto
            -9 hlineto
            -27 -13 -13 -19 hvcurveto
            -71 -13 -35 -21 vvcurveto
            return
          </CharString>
          <CharString index="109">
            -9 -49 callgsubr
            return
          </CharString>
          <CharString index="110">
            rmoveto
            -4 86 callsubr
            -34 -326 rlineto
            return
          </CharString>
          <CharString index="111">
            rmoveto
            40 31 10 44 13 -5 10 -8 hvcurveto
            20 callgsubr
            return
          </CharString>
          <CharString index="112">
            415 rmoveto
            18 -56 callgsubr
            7 66 rlineto
            14 2 -51 callsubr
            -18 -83 callgsubr
            -2 hvcurveto
            -7 -66 -61 callsubr
            return
          </CharString>
          <CharString index="113">
            -36 hlineto
            -24 -1 -34 -11 -16 3 -11 14 hvcurveto
            36 hlineto
            -23 -221 -10 -98 -26 vvcurveto
            return
          </CharString>
          <CharString index="114">
            -51 callgsubr
            9 vlineto
            19 callsubr
            return
          </CharString>
          <CharString index="115">
            50 vstem
            306 -5 rmoveto
            159 128 130 229 229 -128 127 -159 -159 -128 -127 -229 -229 128 -130 159 hvcurveto
            48 vmoveto
            -130 -107 110 201 202 107 106 130 130 107 -106 -202 -201 -107 -110 -130 hvcurveto
            return
          </CharString>
          <CharString index="116">
            -30 callsubr
            -35 -43 -18 -13 -10 16 -23 8 return
          </CharString>
          <CharString index="117">
            26 callsubr
            -71 36 24 callsubr
            return
          </CharString>
          <CharString index="118">
            rlineto
            118 90 callsubr
            20 75 callgsubr
            -118 hlineto
            19 178 rlineto
            14 1 -10 8 -24 hhcurveto
            -6 hlineto
            -25 -10 112 callgsubr
            -19 -178 rlineto
            -120 25 callsubr
            -2 -20 rlineto
            31 callgsubr
            13 hhcurveto
            120 hlineto
            return
          </CharString>
          <CharString index="119">
            -9 -17 -7 -14 hhcurveto
            -22 -28 5 38 return
          </CharString>
          <CharString index="120">
            -17 -7 15 callgsubr
            return
          </CharString>
          <CharString index="121">
            -24 callgsubr
            endchar
          </CharString>
          <CharString index="122">
            86 -2 -63 callsubr
            return
          </CharString>
          <CharString index="123">
            -242 230 70 hstem
            30.82 195.34 vstem
            47 230 rmoveto
            156 37 callgsubr
            -156 25 callsubr
            -1 -10 rlineto
            31 callgsubr
            13 hhcurveto
            endchar
          </CharString>
          <CharString index="124">
            -21 -10 vvcurveto
            -7 6 -3 15 vhcurveto
            return
          </CharString>
          <CharString index="125">
            rmoveto
            7 callsubr
            return
          </CharString>
          <CharString index="126">
            -3 17 22 -3 28 hhcurveto
            return
          </CharString>
          <CharString index="127">
            -74 callsubr
            endchar
          </CharString>
          <CharString index="128">
            -94 callgsubr
            -69 return
          </CharString>
          <CharString index="129">
            13 7 3 38 -14 return
          </CharString>
          <CharString index="130">
            -10 8 -26 hhcurveto
            -11 -83 callgsubr
            return
          </CharString>
          <CharString index="131">
            hstemhm
            43.75 88.79 212.82 33 callgsubr
            return
          </CharString>
          <CharString index="132">
            hlineto
            -13 -7 -49 callgsubr
            return
          </CharString>
          <CharString index="133">
            -21 27 callsubr
            return
          </CharString>
          <CharString index="134">
            -6 50 callgsubr
            return
          </CharString>
          <CharString index="135">
            4 hlineto
            28 58 callsubr
            46 431 rlineto
            return
          </CharString>
          <CharString index="136">
            -52 -2 59 46 5 hvcurveto
            46 5 13 63 53 hhcurveto
            54 1 -63 -46 -5 hvcurveto
            -46 -5 -16 -59 -51 hhcurveto
            return
          </CharString>
          <CharString index="137">
            8 14 2 hvcurveto
            return
          </CharString>
          <CharString index="138">
            rmoveto
            30 71 76 120 13 hvcurveto
            17 2 -12 11 -25 hhcurveto
            -10 hlineto
            -26 -13 -13 -19 -2 hvcurveto
            -7 -62 -18 -47 -20 -44 -4 -9 -4 -9 -1 -6 rrcurveto
            -12 -1 16 -3 11 hhcurveto
            endchar
          </CharString>
          <CharString index="139">
            hstemhm
            43.84 85.39 9.27 90 72.5 85 return
          </CharString>
          <CharString index="140">
            hstem
            42.33 91.33 return
          </CharString>
          <CharString index="141">
            -94 callgsubr
            -39 return
          </CharString>
          <CharString index="142">
            rlineto
            -33 callgsubr
            return
          </CharString>
          <CharString index="143">
            -60 callsubr
            endchar
          </CharString>
          <CharString index="144">
            rmoveto
            67 60 40 79 9 hvcurveto
            6 65 -35 35 -33 9 rrcurveto
            2 vlineto
            return
          </CharString>
          <CharString index="145">
            hstemhm
            43.75 88.79 24.96 90 97.86 return
          </CharString>
          <CharString index="146">
            hlineto
            75 callsubr
            return
          </CharString>
          <CharString index="147">
            -583 -83 callsubr
            return
          </CharString>
          <CharString index="148">
            592 -3 callgsubr
            return
          </CharString>
          <CharString index="149">
            -213 73 133 74 458 -20 return
          </CharString>
          <CharString index="150">
            rlineto
            14 1 -11 8 return
          </CharString>
          <CharString index="151">
            12 30 callsubr
            return
          </CharString>
          <CharString index="152">
            -20 -186 rlineto
            -5 -53 -2 -21 -13 vvcurveto
            -79 50 -16 34 return
          </CharString>
          <CharString index="153">
            rmoveto
            5 hlineto
            27 12 8 14 124 callsubr
            -5 hlineto
            -27 -12 -8 -14 -1 hvcurveto
            -5 -51 -31 callgsubr
            return
          </CharString>
          <CharString index="154">
            rmoveto
            -1 3 -47 callsubr
            return
          </CharString>
          <CharString index="155">
            -27 -212 65 601 69 -59 59 -59 65 return
          </CharString>
          <CharString index="156">
            -11 8 -28 hhcurveto
            return
          </CharString>
          <CharString index="157">
            -172 -18 57 -93 126 hhcurveto
            5 72 118 callgsubr
            return
          </CharString>
          <CharString index="158">
            -50 -25 -35 -42 -6 -59 rrcurveto
            -92 -9 80 -32 92 hhcurveto
            return
          </CharString>
          <CharString index="159">
            15 -10 7 -28 vhcurveto
            -4 hlineto
            -26 return
          </CharString>
          <CharString index="160">
            101 -6 76 560 76 return
          </CharString>
          <CharString index="161">
            248 0 76 102 75 67 81 callsubr
            hstemhm
            345 80.5 -62.5 78.5 hintmask 11111000
            return
          </CharString>
          <CharString index="162">
            447.2 92.42 return
          </CharString>
          <CharString index="163">
            -49 callgsubr
            -1 return
          </CharString>
          <CharString index="164">
            10 hlineto
            26 12 13 19 hvcurveto
            76 29 38 23 vvcurveto
            12 -17 3 -11 return
          </CharString>
          <CharString index="165">
            13 -43 callsubr
            return
          </CharString>
          <CharString index="166">
            hstem
            -58 callgsubr
            68.93001 90 165.87 91.96 vstem
            return
          </CharString>
          <CharString index="167">
            26 callsubr
            hstem
            43.77 88.35 213.62999 87.43 vstem
            return
          </CharString>
          <CharString index="168">
            hstemhm
            87 85 126 87 -60 88 return
          </CharString>
          <CharString index="169">
            -7 73 -69 72 422 33 hstemhm
            53 88 316 61 hintmask 10111000
            return
          </CharString>
          <CharString index="170">
            -58 callsubr
            22 callsubr
            return
          </CharString>
          <CharString index="171">
            -14 hlineto
            -26 -13 130 callgsubr
            return
          </CharString>
          <CharString index="172">
            rmoveto
            35 hlineto
            18 16 4 12 4 hvcurveto
            return
          </CharString>
          <CharString index="173">
            hstem
            80 callgsubr
            vstem
            return
          </CharString>
          <CharString index="174">
            70 hstem
            47.82 238.49 vstem
            64 return
          </CharString>
          <CharString index="175">
            hlineto
            -24 -1 -33 -11 -16 3 -11 14 hvcurveto
            return
          </CharString>
          <CharString index="176">
            55 402.16 return
          </CharString>
          <CharString index="177">
            vvcurveto
            -87 66 -25 41 40 31 10 44 13 -5 10 -8 vhcurveto
            -6 -11 -5 -14 hhcurveto
            -33 -18 7 36 return
          </CharString>
          <CharString index="178">
            78 callgsubr
            83 callsubr
            return
          </CharString>
          <CharString index="179">
            -8 -82 -38 -353 rcurveline
            -14 -1 return
          </CharString>
          <CharString index="180">
            -43 callsubr
            39 366 rlineto
            return
          </CharString>
          <CharString index="181">
            -145 -9 74 393 72 return
          </CharString>
          <CharString index="182">
            24 228 rlineto
            return
          </CharString>
          <CharString index="183">
            rmoveto
            41 24 16 40 11 -3 10 -7 hvcurveto
            -26 callgsubr
            9 30 1 hvcurveto
            return
          </CharString>
          <CharString index="184">
            hstem
            55 callsubr
            vstem
            return
          </CharString>
          <CharString index="185">
            hstem
            99.39 81.61 vstem
            return
          </CharString>
          <CharString index="186">
            64 157.87 return
          </CharString>
          <CharString index="187">
            21 2 -5 9 return
          </CharString>
          <CharString index="188">
            76 228 76 return
          </CharString>
          <CharString index="189">
            rlineto
            -12 -7 -7 -9 -14 vvcurveto
            -6 vlineto
            -9 4 -5 5 2 4 2 2 4 vhcurveto
            return
          </CharString>
          <CharString index="190">
            hstemhm
            43.84 85.56 return
          </CharString>
          <CharString index="191">
            -582 -23 callsubr
            return
          </CharString>
          <CharString index="192">
            hstem
            67 87 152 89 vstem
            return
          </CharString>
          <CharString index="193">
            -43 callgsubr
            -1 hvcurveto
            return
          </CharString>
          <CharString index="194">
            -1 4 3 -1 return
          </CharString>
          <CharString index="195">
            702 -20 hstem
            return
          </CharString>
          <CharString index="196">
            rlineto
            -80 128 callgsubr
            -2 -17 rlineto
            31 callgsubr
            14 hhcurveto
            return
          </CharString>
          <CharString index="197">
            hlineto
            14 6 -59 callgsubr
            2 return
          </CharString>
          <CharString index="198">
            -61 -5 78 561 77 return
          </CharString>
          <CharString index="199">
            -14 -1 102 callsubr
            return
          </CharString>
          <CharString index="200">
            -13 callsubr
            73 callgsubr
            return
          </CharString>
          <CharString index="201">
            84 callgsubr
            111 callsubr
            27 hhcurveto
            return
          </CharString>
          <CharString index="202">
            74 8 callgsubr
            return
          </CharString>
          <CharString index="203">
            3 hvcurveto
            1 8 rlineto
            return
          </CharString>
          <CharString index="204">
            59 -19 59 hstemhm
            return
          </CharString>
          <CharString index="205">
            116 callsubr
            8 rlineto
            80 callsubr
            -13 hhcurveto
            return
          </CharString>
          <CharString index="206">
            -12 callgsubr
            66 callsubr
            return
          </CharString>
          <CharString index="207">
            117 callsubr
            17 rlineto
            80 callsubr
            -14 hhcurveto
            return
          </CharString>
          <CharString index="208">
            hlineto
            14 7 -59 callgsubr
            1 7 rlineto
            80 callsubr
            -14 hhcurveto
            return
          </CharString>
          <CharString index="209">
            11 -8 28 hhcurveto
            return
          </CharString>
          <CharString index="210">
            vvcurveto
            -14 4 -8 18 vhcurveto
            10 hlineto
            17 7 30 callsubr
            11 return
          </CharString>
          <CharString index="211">
            451 72 161 72 hstem
            return
          </CharString>
          <CharString index="212">
            hlineto
            13 129 callgsubr
            return
          </CharString>
          <CharString index="213">
            125.5 84 return
          </CharString>
          <CharString index="214">
            8 133 callgsubr
            1 return
          </CharString>
          <CharString index="215">
            -93 0 72 379 72 return
          </CharString>
          <CharString index="216">
            -236 702 -20 return
          </CharString>
          <CharString index="217">
            585 147 hstem
            return
          </CharString>
          <CharString index="218">
            -14 -1 10 -8 return
          </CharString>
          <CharString index="219">
            74 rmoveto
            123 callgsubr
            7 return
          </CharString>
          <CharString index="220">
            -74 -124 -13 hvcurveto
            -124 -13 -39 -66 -65 hhcurveto
            endchar
          </CharString>
          <CharString index="221">
            -39 -366 rlineto
            return
          </CharString>
          <CharString index="222">
            rlineto
            12 7 7 9 14 vvcurveto
            6 vlineto
            9 -4 5 -5 return
          </CharString>
          <CharString index="223">
            hlineto
            13 7 -59 callgsubr
            1 return
          </CharString>
          <CharString index="224">
            hlineto
            14 7 -59 callgsubr
            2 return
          </CharString>
          <CharString index="225">
            rlineto
            20 2 -6 10 return
          </CharString>
          <CharString index="226">
            51 hstemhm
            43.75 88.79 return
          </CharString>
          <CharString index="227">
            hstemhm
            -13 479 hintmask 10111000
            return
          </CharString>
          <CharString index="228">
            -90 27 callsubr
            return
          </CharString>
          <CharString index="229">
            78 48 78 vstem
            return
          </CharString>
          <CharString index="230">
            -7 -8 -21 -3 hvcurveto
            -4 vlineto
            -21 -2 5 -8 return
          </CharString>
          <CharString index="231">
            -17 callgsubr
            51 -70 callsubr
            return
          </CharString>
          <CharString index="232">
            -14 -1 -63 callgsubr
            92 return
          </CharString>
          <CharString index="233">
            hstemhm
            169.5 90 return
          </CharString>
          <CharString index="234">
            hlineto
            28 13 30 callsubr
            return
          </CharString>
          <CharString index="235">
            -6 78 630 -20 return
          </CharString>
          <CharString index="236">
            -6 72 385 72 return
          </CharString>
          <CharString index="237">
            -15 hlineto
            -19 -15 return
          </CharString>
          <CharString index="238">
            hhcurveto
            162 101 115 243 25 hvcurveto
            return
          </CharString>
          <CharString index="239">
            -49 107 68 96 67 hstem
            24 393 vstem
            return
          </CharString>
          <CharString index="240">
            vvcurveto
            -20 -2 9 return
          </CharString>
        <CharString name=".notdef">
          16 0 50 600 50 hstem
          -20 573 vstem
          -20 hmoveto
          500 hlineto
          73 700 rlineto
          -500 hlineto
          218 -305 rmoveto
          -144 255 rlineto
          340 hlineto
          -428 -555 rmoveto
          53 510 144 -255 rlineto
          203 -255 rmoveto
          -143 255 196 255 rlineto
          -427 -555 rmoveto
          196 255 144 -255 rlineto
          endchar
        </CharString>
        <CharString name="A">
          -32 callsubr
          hstemhm
          -13 479 hintmask 10110000
          22 -2 -106 callgsubr
          hintmask 11010000
          -87 callgsubr
          endchar
        </CharString>
        <CharString name="AE">
          54 callsubr
          11 -2 -36 callgsubr
        </CharString>
        <CharString name="AEacute">
          54 callsubr
          426 762 rmoveto
          -106 callsubr
          -415 -764 -36 callgsubr
        </CharString>
        <CharString name="Aacute">
          -32 callsubr
          hstemhm
          -13 479 hintmask 10110000
          284 762 rmoveto
          -106 callsubr
          -262 -89 callsubr
          hintmask 11010000
          -87 callgsubr
          endchar
        </CharString>
        <CharString name="Abreve">
          -32 callsubr
          80 66 120 callsubr
          307 762 -103 callgsubr
          -285 -764 -75 callsubr
        </CharString>
        <CharString name="Acircumflex">
          -32 callsubr
          71 142 120 callsubr
          214 753 -107 callgsubr
          -192 -755 -75 callsubr
        </CharString>
        <CharString name="Adieresis">
          -32 callsubr
          102 95 hstemhm
          211.5 78 48 78 hintmask 10111100
          244 784 -102 callsubr
          -348 -786 -20 callsubr
        </CharString>
        <CharString name="Agrave">
          -32 callsubr
          hstemhm
          -13 479 hintmask 10110000
          317 762 -99 callgsubr
          -295 -89 callsubr
          hintmask 11010000
          -87 callgsubr
          endchar
        </CharString>
        <CharString name="Amacron">
          -32 callsubr
          107 70 120 callsubr
          209 789 -88 callsubr
          -187 -791 -75 callsubr
        </CharString>
        <CharString name="Aogonek">
          7 -173 63 288 -8 callsubr
          hstemhm
          338 61 hintmask 11011000
          489 -103 rmoveto
          12 callsubr
          16 5 24 12 25 hvcurveto
          11 hlineto
          25 13 7 10 1 hvcurveto
          4 -1 4 -1 5 vhcurveto
          -115 655 rlineto
          13 -2 -12 6 -24 hhcurveto
          -29 hlineto
          -23 -14 -6 -13 -5 hvcurveto
          -250 -655 rlineto
          -1 -5 -2 -4 -4 vvcurveto
          -10 -1 10 -7 26 hhcurveto
          -72 callgsubr
          24 -154 rlineto
          -30 -38 -9 -45 -26 -52 callgsubr
          -328 353 rmoveto
          hintmask 11101000
          -87 callgsubr
          endchar
        </CharString>
        <CharString name="Aring">
          -32 callsubr
          59 35 99 35 hstemhm
          228 36 94 37 hintmask 10111110
          302 741 -74 callgsubr
          -283 -778 -106 callgsubr
          hintmask 11011110
          -87 callgsubr
          endchar
        </CharString>
        <CharString name="Aringacute">
          7 178 72 344 65 99 35 29 107 hstemhm
          214 36 94 37 hintmask 00000000
          hintmask 10111100
          294 822 rmoveto
          21 20 6 12 12 hvcurveto
          71 64 10 5 7 vvcurveto
          10 1 -15 3 -32 hhcurveto
          -32 -20 -6 -20 -13 hvcurveto
          -14 -22 -9 -13 -22 -36 rrcurveto
          -7 6 -3 16 vhcurveto
          170 -794 rmoveto
          -109 622 rlineto
          hintmask 10101100
          14 15 9 19 3 24 rrcurveto
          51 5 -30 34 -50 hhcurveto
          -49 -38 -34 -51 -5 hvcurveto
          -3 -24 5 -19 12 -15 -238 -622 rcurveline
          -1 -5 -2 -4 -4 vvcurveto
          -10 -1 10 -7 26 hhcurveto
          -72 callgsubr
          26 -164 -21 callgsubr
          16 hhcurveto
          17 hlineto
          25 13 7 10 1 hvcurveto
          hintmask 10111100
          4 -1 4 -1 5 vhcurveto
          hintmask 11101100
          -214 680 rmoveto
          31 4 18 19 30 hhcurveto
          30 15 -19 -31 -3 hvcurveto
          -31 -4 -19 -18 -30 hhcurveto
          -30 -14 18 31 3 hvcurveto
          -89 -458 rmoveto
          -87 callgsubr
          endchar
        </CharString>
        <CharString name="Atilde">
          -32 callsubr
          86 97 callsubr
          -13 479 hintmask 00000000
          hintmask 10101100
          173 769 -3 callgsubr
          hintmask 10110100
          -97 callgsubr
          hintmask 10101100
          -78 callsubr
          -141 -775 -106 callgsubr
          hintmask 11010100
          -87 callgsubr
          endchar
        </CharString>
        <CharString name="B">
          41 0 76 246 76 226 76 hstemhm
          396 91 -84 94 hintmask 11110000
          80 hmoveto
          173 hlineto
          139 81 62 139 14 hvcurveto
          13 125 -87 33 -22 8 rrcurveto
          4 vlineto
          hintmask 11101000
          49 16 50 69 7 67 rrcurveto
          105 12 -55 72 -137 hhcurveto
          -163 hlineto
          -20 2 callsubr
          -68 -640 rlineto
          hintmask 11110000
          -21 -2 7 -9 20 hhcurveto
          104 398 rmoveto
          24 226 rlineto
          hintmask 11101000
          102 hlineto
          72 29 -35 -74 -8 hvcurveto
          -65 -6 -47 -52 -62 hhcurveto
          -138 -322 rmoveto
          26 246 rlineto
          115 hlineto
          hintmask 11110000
          76 36 -44 -73 -7 hvcurveto
          -79 -9 -43 -50 -65 hhcurveto
          endchar
        </CharString>
        <CharString name="C">
          93 callgsubr
          34 callgsubr
          vstem
          281 -6 -87 callsubr
        </CharString>
        <CharString name="CR">
          -258 endchar
        </CharString>
        <CharString name="Cacute">
          93 callgsubr
          34 callgsubr
          vstem
          299 762 rmoveto
          -106 callsubr
          -18 -768 -87 callsubr
        </CharString>
        <CharString name="Cacute.loclPLK">
          93 callgsubr
          56 147 34 callgsubr
          vstem
          307 762 -76 callsubr
          -26 -768 -87 callsubr
        </CharString>
        <CharString name="Ccaron">
          93 callgsubr
          54 142 34 callgsubr
          vstem
          314 760 -105 callsubr
          -33 -766 -87 callsubr
        </CharString>
        <CharString name="Ccedilla">
          -39 -210 49 155 78 556 78 hstem
          53.32 93.19 113.48999 66 vstem
          456 687 rmoveto
          11 -24 -37 8 -38 hhcurveto
          -192 -81 -114 -242 -26 hvcurveto
          -22 -218 54 -112 137 -22 rrcurveto
          -21 -62 -1 -7 -62 callgsubr
          15 54 rlineto
          14 hlineto
          46 42 11 10 21 hvcurveto
          21 10 5 11 2 12 1 18 -6 43 -27 -12 rrcurveto
          -13 -24 -32 -12 -41 hhcurveto
          -114 -44 88 191 20 hvcurveto
          192 21 63 85 114 hhcurveto
          39 26 -11 -10 19 hvcurveto
          22 -13 14 54 1 12 1 15 -3 7 -12 5 rrcurveto
          endchar
        </CharString>
        <CharString name="Ccircumflex">
          93 callgsubr
          47 142 34 callgsubr
          vstem
          229 753 -107 callgsubr
          52 -759 -87 callsubr
        </CharString>
        <CharString name="Cdotaccent">
          93 callgsubr
          78 95 34 callgsubr
          136.98999 90 vstem
          322 784 -107 callsubr
          -41 -790 -87 callsubr
        </CharString>
        <CharString name="D">
          79 110 callgsubr
          77 callsubr
          79 hmoveto
          -55 callsubr
          72 76 rmoveto
          -22 callsubr
          endchar
        </CharString>
        <CharString name="Dcaron">
          79 110 callgsubr
          60 142 77 callsubr
          320 760 -105 callsubr
          -241 -760 rmoveto
          -55 callsubr
          72 76 rmoveto
          -22 callsubr
          endchar
        </CharString>
        <CharString name="Dcroat">
          -28 callgsubr
        </CharString>
        <CharString name="E">
          93 callsubr
          79 hmoveto
          -105 callgsubr
          endchar
        </CharString>
        <CharString name="Eacute">
          93 callsubr
          278 762 rmoveto
          -106 callsubr
          -199 -762 rmoveto
          -105 callgsubr
          endchar
        </CharString>
        <CharString name="Ebreve">
          -13 callsubr
          62 66 73 callgsubr
          301 762 -103 callgsubr
          -222 -762 rmoveto
          -105 callgsubr
          endchar
        </CharString>
        <CharString name="Ecaron">
          -13 callsubr
          60 142 73 callgsubr
          293 760 -105 callsubr
          -214 -760 rmoveto
          -105 callgsubr
          endchar
        </CharString>
        <CharString name="Ecircumflex">
          -13 callsubr
          53 142 73 callgsubr
          208 753 -107 callgsubr
          -129 -753 rmoveto
          -105 callgsubr
          endchar
        </CharString>
        <CharString name="Edieresis">
          -13 callsubr
          84 95 hstem
          205.5 122 callsubr
          238 784 -102 callsubr
          -285 -784 rmoveto
          -105 callgsubr
          endchar
        </CharString>
        <CharString name="Edotaccent">
          -13 callsubr
          84 95 hstem
          262.5 90 vstem
          301 784 -107 callsubr
          -222 -784 rmoveto
          -105 callgsubr
          endchar
        </CharString>
        <CharString name="Egrave">
          93 callsubr
          311 762 -99 callgsubr
          -232 -762 rmoveto
          -105 callgsubr
          endchar
        </CharString>
        <CharString name="Emacron">
          -13 callsubr
          89 70 73 callgsubr
          203 789 -88 callsubr
          -124 -789 rmoveto
          -105 callgsubr
          endchar
        </CharString>
        <CharString name="Eng">
          92 -212 72 842 -20 hstem
          48 513 vstem
          525 702 rmoveto
          -12 22 callgsubr
          -450 -2 -22 0 -22 3 -22 rlinecurve
          -5 -2 -5 21 -7 21 -8 21 rlinecurve
          -183 457 rlineto
          15 -6 -12 5 -19 hhcurveto
          -24 21 callsubr
          -660 -31 callgsubr
          12 hlineto
          27 58 callsubr
          49 460 2 22 0 22 -3 22 rlinecurve
          5 2 5 -21 6 -21 8 -21 rlinecurve
          198 -489 -7 -68 rlineto
          -56 -6 -19 -12 89 callgsubr
          42 69 21 111 12 hvcurveto
          79 760 14 callgsubr
          endchar
        </CharString>
        <CharString name="Eogonek">
          -41 -177 63 114 11 callgsubr
          hstem
          298 61 vstem
          449 -107 rmoveto
          12 callsubr
          20 8 31 18 30 hvcurveto
          -1 hlineto
          3 5 1 7 1 8 2 16 rcurveline
          -9 callsubr
          -225 hlineto
          26 244 rlineto
          202 -77 callgsubr
          -202 39 callsubr
          225 -77 callgsubr
          -288 hlineto
          -19 2 callsubr
          -68 -640 35 callsubr
          244 hlineto
          -19 -33 -6 -35 -21 -52 callgsubr
          endchar
        </CharString>
        <CharString name="Eth">
          -28 callgsubr
        </CharString>
        <CharString name="Euro">
          5 -6 77 165 67 93 67 166 77 hstemhm
          67 92 -87 88 hintmask 11111000
          283 -6 rmoveto
          88 79 45 27 2 hvcurveto
          14 2 -15 38 -16 -12 -46 -47 -77 hhcurveto
          -75 -48 50 115 -6 hvcurveto
          230 101 callsubr
          hintmask 11110100
          -236 hlineto
          1 15 2 16 1 17 6 45 rcurveline
          236 101 callsubr
          -230 hlineto
          117 30 57 49 80 70 30 -41 12 hhcurveto
          16 23 38 17 2 hvcurveto
          25 3 -68 38 -79 hhcurveto
          -134 -93 -78 -165 -40 hvcurveto
          -46 98 callgsubr
          39 hlineto
          -6 -46 -1 -16 -2 -16 -1 -15 rlinecurve
          hintmask 11111000
          -39 98 callgsubr
          45 hlineto
          -165 5 72 -77 139 hhcurveto
          endchar
        </CharString>
        <CharString name="F">
          -75 320 81 callsubr
          hstem
          54 375.16 vstem
          90 -2 -26 callsubr
          32 300 rlineto
          180 -77 callgsubr
          -180 39 callsubr
          197 -77 callgsubr
          -260 94 callsubr
          endchar
        </CharString>
        <CharString name="G">
          54 61 callgsubr
          120 callgsubr
          351 627 -84 callsubr
          endchar
        </CharString>
        <CharString name="Gbreve">
          54 61 callgsubr
          56 66 120 callgsubr
          347 762 -103 callgsubr
          4 -135 -84 callsubr
          endchar
        </CharString>
        <CharString name="Gcircumflex">
          54 61 callgsubr
          47 142 120 callgsubr
          254 753 -107 callgsubr
          97 -126 -84 callsubr
          endchar
        </CharString>
        <CharString name="Gcommaaccent">
          54 61 callgsubr
          49 callgsubr
          92.93001 83 vstem
          351 627 -84 callsubr
          -62 -678 rmoveto
          -10 hlineto
          -26 -12 -13 -19 hvcurveto
          -76 -29 -38 -23 vvcurveto
          -12 17 -3 11 27 57 60 96 17 -12 11 -23 vhcurveto
          endchar
        </CharString>
        <CharString name="Gdotaccent">
          54 61 callgsubr
          78 95 49 callgsubr
          160.43001 90 vstem
          347 784 -107 callsubr
          4 -157 -84 callsubr
          endchar
        </CharString>
        <CharString name="H">
          103 321 76 305 -20 hstem
          54 513 -6 callgsubr
          endchar
        </CharString>
        <CharString name="Hbar">
          103 321 76 94 71 140 -20 hstem
          117.5 90 263 90 vstem
          633 562 rmoveto
          -79 hlineto
          13 118 -82 callsubr
          -13 -118 rlineto
          -263 hlineto
          13 118 rlineto
          14 1 -10 8 -26 hhcurveto
          -15 -94 callgsubr
          -13 -118 rlineto
          -74 68 callsubr
          75 hlineto
          -50 -471 -61 callsubr
          91 callgsubr
          32 301 rlineto
          263 hlineto
          -32 -301 -61 callsubr
          -33 callsubr
          50 471 rlineto
          78 69 callgsubr
          -186 -165 rmoveto
          -263 hlineto
          10 94 rlineto
          263 hlineto
          endchar
        </CharString>
        <CharString name="Hcircumflex">
          103 321 76 305 -20 71 142 hstem
          54 513 vstem
          263 753 -107 callgsubr
          -173 -755 rmoveto
          91 callgsubr
          32 301 rlineto
          263 hlineto
          -32 -301 -61 callsubr
          -33 callsubr
          70 660 -82 callsubr
          -30 -283 rlineto
          -263 hlineto
          30 283 -76 callgsubr
          endchar
        </CharString>
        <CharString name="I">
          109 callsubr
          hstem
          60 160 vstem
          96 -2 -73 callgsubr
        </CharString>
        <CharString name="IJ">
          119 128 callsubr
          hstem
          60 512 vstem
          96 -2 -79 callsubr
          228 -4 -60 callgsubr
        </CharString>
        <CharString name="Iacute">
          109 callsubr
          hstem
          60 228 vstem
          162 762 rmoveto
          -106 callsubr
          -66 -764 -73 callgsubr
        </CharString>
        <CharString name="Iacute_J.loclNLD">
          119 128 callsubr
          hstem
          60 578 vstem
          162 762 rmoveto
          -106 callsubr
          350 hmoveto
          -106 callsubr
          -416 -764 -79 callsubr
          228 -4 -60 callgsubr
        </CharString>
        <CharString name="Ibreve">
          109 callsubr
          80 66 hstem
          60 253 vstem
          185 762 -103 callgsubr
          -89 -764 -73 callgsubr
        </CharString>
        <CharString name="Icircumflex">
          109 callsubr
          71 142 hstem
          60 232 vstem
          92 753 -107 callgsubr
          4 -755 -73 callgsubr
        </CharString>
        <CharString name="Idieresis">
          109 callsubr
          102 95 hstem
          89.5 122 callsubr
          122 784 -102 callsubr
          -152 -786 -73 callgsubr
        </CharString>
        <CharString name="Idotaccent">
          109 callsubr
          102 95 hstem
          146.5 90 vstem
          185 784 -107 callsubr
          -89 -786 -73 callgsubr
        </CharString>
        <CharString name="Igrave">
          109 callsubr
          hstem
          60 160 vstem
          195 762 -99 callgsubr
          -99 -764 -73 callgsubr
        </CharString>
        <CharString name="Imacron">
          109 callsubr
          107 70 hstem
          60 249.31 vstem
          87 789 -88 callsubr
          9 -791 -73 callgsubr
        </CharString>
        <CharString name="Iogonek">
          -236 -176 63 815 -20 hstem
          60 61 vstem
          211 -106 rmoveto
          12 callsubr
          19 8 30 16 29 hvcurveto
          3 3 2 4 5 vvcurveto
          70 660 rlineto
          14 1 -10 8 -26 hhcurveto
          -15 -94 callgsubr
          -70 -660 -1 -12 7 -7 18 -2 rlinecurve
          -18 -33 -6 -33 -21 -52 callgsubr
          endchar
        </CharString>
        <CharString name="Itilde">
          109 callsubr
          86 97 callsubr
          46 270 hintmask 00000000
          hintmask 10110000
          64 769 47 callsubr
          hintmask 11010000
          -48 callgsubr
          hintmask 10110000
          -1 callsubr
          41 -775 -73 callgsubr
        </CharString>
        <CharString name="J">
          -143 128 callsubr
          hstem
          -25 335 vstem
          62 -6 -60 callgsubr
        </CharString>
        <CharString name="Jcircumflex">
          -143 128 callsubr
          71 142 hstem
          -25 405 vstem
          180 753 -107 callgsubr
          -118 -759 -60 callgsubr
        </CharString>
        <CharString name="K">
          12 88 callsubr
          54 465 -20 callgsubr
          endchar
        </CharString>
        <CharString name="Kcommaaccent">
          12 88 callsubr
          186 83 -20 callgsubr
          95 -233 -77 callsubr
          endchar
        </CharString>
        <CharString name="L">
          106 callgsubr
          55 320.15 vstem
          79 hmoveto
          -65 callgsubr
          endchar
        </CharString>
        <CharString name="Lacute">
          106 callgsubr
          55 320.15 vstem
          158 764 rmoveto
          -106 callsubr
          -79 -764 rmoveto
          -65 callgsubr
          endchar
        </CharString>
        <CharString name="Lcaron">
          -90 0 76 624 -20 22 -20 hstemhm
          302 89 hintmask 10110000
          79 hmoveto
          -65 callgsubr
          239 526 rmoveto
          hintmask 11010000
          1 callsubr
          hintmask 10110000
          -12 18 -3 11 vhcurveto
          endchar
        </CharString>
        <CharString name="Lcommaaccent">
          106 callgsubr
          167 83 vstem
          79 hmoveto
          -65 callgsubr
          87 -235 -77 callsubr
          endchar
        </CharString>
        <CharString name="Ldot">
          -90 0 76 233 103 290 -20 hstemhm
          55 320.15 -123.15 99 hintmask 11110000
          79 hmoveto
          -65 callgsubr
          hintmask 11101000
          217 309 28 callgsubr
        </CharString>
        <CharString name="Lslash">
          106 callgsubr
          14 359.15 vstem
          356 76 rmoveto
          -208 hlineto
          34 321 78 46 115 callsubr
          -3 -3 -2 -2 -4 vhcurveto
          -73 -43 25 234 -82 callsubr
          -31 -291 -58 -35 82 callsubr
          53 31 -33 -309 35 callsubr
          -7 callsubr
          endchar
        </CharString>
        <CharString name="M">
          191 88 callsubr
          48 615 vstem
          327 239 rmoveto
          34 hlineto
          11 7 4 9 5 hvcurveto
          141 230 13 22 13 24 11 23 rlinecurve
          4 -2 -5 -24 -5 -23 -2 -24 rlinecurve
          -48 -458 -31 callgsubr
          12 26 callgsubr
          69 660 -70 callsubr
          -21 hlineto
          -20 -12 -6 -12 -8 hvcurveto
          -192 -313 -10 -16 -7 -16 -5 -16 rlinecurve
          -1 16 -3 16 -6 16 -128 313 rcurveline
          12 -4 -12 6 -20 hhcurveto
          -21 21 callsubr
          -660 -31 callgsubr
          12 26 callgsubr
          48 458 2 24 1 23 -1 24 rlinecurve
          4 2 7 -23 7 -24 9 -22 rlinecurve
          93 -230 rlineto
          -9 3 7 -4 11 hhcurveto
          endchar
        </CharString>
        <CharString name="N">
          92 88 callsubr
          48 513 -65 callsubr
          endchar
        </CharString>
        <CharString name="NULL">
          -498 endchar
        </CharString>
        <CharString name="Nacute">
          92 88 callsubr
          48 513 vstem
          322 762 rmoveto
          -106 callsubr
          -239 -764 -102 callgsubr
          endchar
        </CharString>
        <CharString name="Nacute.loclPLK">
          92 702 -20 80 147 hstem
          48 513 vstem
          330 762 -76 callsubr
          -247 -764 -102 callgsubr
          endchar
        </CharString>
        <CharString name="Ncaron">
          92 702 -20 78 142 hstem
          48 513 vstem
          337 760 -105 callsubr
          -254 -762 -102 callgsubr
          endchar
        </CharString>
        <CharString name="Ncommaaccent">
          92 88 callsubr
          219 83 -65 callsubr
          135 -233 -77 callsubr
          endchar
        </CharString>
        <CharString name="Ntilde">
          92 702 -20 86 97 callsubr
          48 513 hintmask 00000000
          hintmask 10110000
          211 769 -3 callgsubr
          hintmask 11010000
          -97 callgsubr
          hintmask 10110000
          -78 callsubr
          -118 -775 -102 callgsubr
          endchar
        </CharString>
        <CharString name="O">
          59 callgsubr
          272 -6 -101 callgsubr
          endchar
        </CharString>
        <CharString name="OE">
          325 -6 76 -70 11 callgsubr
          -70 76 hstemhm
          -54 callgsubr
          82.63 hintmask 01110100
          812 700 rmoveto
          -288 hlineto
          -19 2 callsubr
          hintmask 10101100
          -3 -33 rlineto
          46 -35 -49 23 -61 hhcurveto
          -161 -100 12 callgsubr
          62 53 24 43 42 hvcurveto
          hintmask 01110110
          -3 -31 35 callsubr
          288 hlineto
          14 6 -34 callsubr
          -4 9 -14 hhcurveto
          -225 hlineto
          26 244 rlineto
          202 -77 callgsubr
          -202 39 callsubr
          225 hlineto
          13 7 -80 callsubr
          hintmask 01110100
          80 callsubr
          -13 hhcurveto
          hintmask 10101110
          -344 -348 -55 callgsubr
          endchar
        </CharString>
        <CharString name="Oacute">
          59 callgsubr
          332 762 rmoveto
          -106 callsubr
          -60 -768 -101 callgsubr
          endchar
        </CharString>
        <CharString name="Oacute.loclPLK">
          53 callsubr
          56 147 -34 callgsubr
          340 762 -76 callsubr
          -68 -768 -101 callgsubr
          endchar
        </CharString>
        <CharString name="Obreve">
          53 callsubr
          56 66 -34 callgsubr
          355 762 -103 callgsubr
          -83 -768 -101 callgsubr
          endchar
        </CharString>
        <CharString name="Ocircumflex">
          55 callgsubr
          262 753 -107 callgsubr
          10 -759 -101 callgsubr
          endchar
        </CharString>
        <CharString name="Odieresis">
          53 callsubr
          78 95 hstemhm
          -58 callgsubr
          111.93001 78 48 78 8.87 91.96 hintmask 11111010
          292 784 rmoveto
          29 12 9 13 124 callsubr
          -29 -12 -9 -13 -1 hvcurveto
          -5 -51 -31 callgsubr
          hintmask 11111110
          126 hmoveto
          28 13 9 13 -17 callgsubr
          51 14 callgsubr
          -29 -12 -9 -13 -1 hvcurveto
          -5 -51 -31 callgsubr
          -146 -790 rmoveto
          162 101 115 243 25 hvcurveto
          hintmask 11111010
          243 26 -92 111 -148 hhcurveto
          -161 -100 -111 -243 -26 hvcurveto
          hintmask 11111110
          48 callgsubr
          hintmask 11111010
          193 20 64 85 103 hhcurveto
          102 47 -85 -193 -20 hvcurveto
          hintmask 11111110
          114 callgsubr
        </CharString>
        <CharString name="Ograve">
          59 callgsubr
          365 762 -99 callgsubr
          -93 -768 -101 callgsubr
          endchar
        </CharString>
        <CharString name="Ohorn">
          101 -6 76 554 31 -25 76 1 callgsubr
          hintmask 00000000
          hintmask 11010100
          610 714 -67 callgsubr
        </CharString>
        <CharString name="Ohungarumlaut">
          53 callsubr
          56 147 -34 callgsubr
          277 762 -78 callgsubr
          -133 -768 -101 callgsubr
          endchar
        </CharString>
        <CharString name="Omacron">
          53 callsubr
          83 70 -34 callgsubr
          257 789 -88 callsubr
          15 -795 -101 callgsubr
          endchar
        </CharString>
        <CharString name="Oslash">
          60 callgsubr
          506 637 -38 callgsubr
        </CharString>
        <CharString name="Oslashacute">
          60 callgsubr
          328 762 rmoveto
          -106 callsubr
          178 -125 -38 callgsubr
        </CharString>
        <CharString name="Otilde">
          53 callsubr
          62 97 callsubr
          -52 callsubr
          hintmask 00000000
          hintmask 11011100
          221 769 -3 callgsubr
          hintmask 11101100
          -97 callgsubr
          hintmask 11011100
          -78 callsubr
          61 -779 -101 callgsubr
          endchar
        </CharString>
        <CharString name="P">
          298 76 250 76 hstem
          54 426.91 vstem
          90 -2 -26 callsubr
          30 278 rlineto
          110 hlineto
          42 134 23 183 19 hvcurveto
          169 18 -110 27 -69 hhcurveto
          -165 94 callsubr
          92 376 rmoveto
          26 250 rlineto
          98 hlineto
          41 51 -21 -99 -11 hvcurveto
          -109 -11 -57 -21 -32 hhcurveto
          endchar
        </CharString>
        <CharString name="Q">
          101 630 76 hstem
          53.49 92.77 325.06999 92.04 vstem
          496 -169 rmoveto
          23 30 55 12 3 hvcurveto
          1 7 -4 5 -7 4 -195 89 rcurveline
          3 vlineto
          116 34 74 113 22 197 rrcurveto
          242 25 -83 114 -156 hhcurveto
          -174 -88 -113 -243 -25 hvcurveto
          -19 -180 37 -101 90 -56 rrcurveto
          -38 61 255 -144 14 hhcurveto
          -217 238 rmoveto
          -102 -47 89 192 21 hvcurveto
          192 20 65 88 102 hhcurveto
          101 48 -88 -192 -20 hvcurveto
          -191 -21 -66 -90 -101 hhcurveto
          endchar
        </CharString>
        <CharString name="R">
          105 callgsubr
          72 callgsubr
          hintmask 11100000
          86 -2 -27 callgsubr
        </CharString>
        <CharString name="Racute">
          105 callgsubr
          72 callgsubr
          hintmask 11100000
          284 762 rmoveto
          -106 callsubr
          -198 -764 -27 callgsubr
        </CharString>
        <CharString name="Rcaron">
          105 callgsubr
          60 142 72 callgsubr
          hintmask 11110000
          299 760 -105 callsubr
          -213 -762 -63 callsubr
          rlineto
          hintmask 11101000
          57 28 43 55 9 86 rrcurveto
          126 14 -60 51 -130 hhcurveto
          -148 84 callgsubr
          hintmask 11110000
          125 callsubr
          386 rmoveto
          25 240 rlineto
          hintmask 11101000
          95 hlineto
          56 33 -36 -81 -8 hvcurveto
          -66 -7 -45 -57 -48 hhcurveto
          endchar
        </CharString>
        <CharString name="Rcommaaccent">
          105 callgsubr
          hstem
          182 83 114 -24 callsubr
          -98 -619 -77 callsubr
          endchar
        </CharString>
        <CharString name="S">
          91 callsubr
          85 callsubr
          -16 callgsubr
          endchar
        </CharString>
        <CharString name="Sacute">
          91 callsubr
          85 callsubr
          263 762 rmoveto
          -106 callsubr
          -79 -767 -95 callgsubr
          endchar
        </CharString>
        <CharString name="Sacute.loclPLK">
          91 callsubr
          51 147 85 callsubr
          271 762 -76 callsubr
          -87 -767 -95 callgsubr
          endchar
        </CharString>
        <CharString name="Scaron">
          91 callsubr
          49 142 85 callsubr
          278 760 -105 callsubr
          -94 -765 -95 callgsubr
          endchar
        </CharString>
        <CharString name="Scedilla">
          -61 -210 49 156 78 561 77 hstem
          67 87 51 66 35 89 vstem
          282 634 rmoveto
          33 36 -9 -13 29 hvcurveto
          -2 5 5 -3 4 hhcurveto
          12 17 50 13 4 -1 4 -5 3 hvcurveto
          19 -32 -63 11 -53 hhcurveto
          -123 -79 -82 -120 -97 75 -56 75 -44 hvcurveto
          49 -29 40 -34 -61 vvcurveto
          -81 -57 -34 -73 -45 -48 8 29 -38 vhcurveto
          2 -3 -4 3 -5 hhcurveto
          -14 -9 -35 -19 -15 3 -3 5 -4 hvcurveto
          43 -35 52 -8 58 -1 rrcurveto
          -20 -59 -1 -7 -62 callgsubr
          16 56 rlineto
          116 11 66 79 121 vvcurveto
          96 -67 51 -71 40 vhcurveto
          -64 36 -39 38 57 vvcurveto
          88 73 21 55 vhcurveto
          endchar
        </CharString>
        <CharString name="Scircumflex">
          91 callsubr
          42 142 85 callsubr
          193 753 -107 callgsubr
          -9 -758 -95 callgsubr
          endchar
        </CharString>
        <CharString name="Scommaaccent">
          91 callsubr
          hstemhm
          67 87 -4 83 73 89 hintmask 11101000
          -16 callgsubr
          hintmask 11011000
          -35 -230 -77 callsubr
          endchar
        </CharString>
        <CharString name="T">
          -44 624 76 hstem
          59.82 417.33 vstem
          192 -2 -53 callsubr
          endchar
        </CharString>
        <CharString name="Tbar">
          -44 318 71 235 76 hstem
          26 451.15 vstem
          460 700 rmoveto
          -376 25 callsubr
          -2 -16 rlineto
          31 callgsubr
          13 hhcurveto
          144 hlineto
          -25 -235 rlineto
          -144 68 callsubr
          145 hlineto
          -32 -298 -61 callsubr
          -33 callsubr
          32 298 rlineto
          131 69 callgsubr
          -132 hlineto
          25 235 rlineto
          142 -47 callgsubr
          endchar
        </CharString>
        <CharString name="Tcaron">
          -44 624 76 60 142 hstem
          59.82 417.33 vstem
          272 760 -105 callsubr
          -80 -762 -53 callsubr
          endchar
        </CharString>
        <CharString name="Thorn">
          177 76 250 76 123 -20 hstem
          48 413.89 vstem
          83 -2 rmoveto
          14 26 callgsubr
          16 157 rlineto
          110 hlineto
          42 135 23 183 19 hvcurveto
          169 18 -111 27 -69 hhcurveto
          -102 hlineto
          11 101 9 callgsubr
          -660 -31 callgsubr
          79 255 rmoveto
          26 250 rlineto
          97 hlineto
          42 50 -21 -99 -10 hvcurveto
          -109 -12 -57 -21 -31 hhcurveto
          endchar
        </CharString>
        <CharString name="U">
          64 callgsubr
          vstem
          264 -6 rmoveto
          -15 callgsubr
          51 485 rlineto
          14 1 -10 8 -27 hhcurveto
          -14 -103 callsubr
          endchar
        </CharString>
        <CharString name="Uacute">
          64 callgsubr
          vstem
          323 762 rmoveto
          -106 callsubr
          -59 -768 rmoveto
          -15 callgsubr
          51 485 rlineto
          14 1 -10 8 -27 hhcurveto
          -14 -103 callsubr
          endchar
        </CharString>
        <CharString name="Ubreve">
          29 callgsubr
          80 66 hstem
          61 90 vstem
          346 762 -103 callgsubr
          -82 -768 rmoveto
          -15 callgsubr
          51 485 rlineto
          14 1 -10 8 -27 hhcurveto
          -14 -103 callsubr
          endchar
        </CharString>
        <CharString name="Ucircumflex">
          29 callgsubr
          71 142 hstem
          61 90 vstem
          253 753 -107 callgsubr
          11 -759 rmoveto
          -15 callgsubr
          51 485 rlineto
          14 1 -10 8 -27 hhcurveto
          -14 -103 callsubr
          endchar
        </CharString>
        <CharString name="Udieresis">
          29 callgsubr
          102 95 hstem
          61 90 99.5 122 callsubr
          283 784 -102 callsubr
          -145 -790 rmoveto
          -15 callgsubr
          51 485 rlineto
          14 1 -10 8 -27 hhcurveto
          -14 -103 callsubr
          endchar
        </CharString>
        <CharString name="Ugrave">
          64 callgsubr
          vstem
          356 762 -99 callgsubr
          -92 -768 rmoveto
          -15 callgsubr
          51 485 rlineto
          14 1 -10 8 -27 hhcurveto
          -14 -103 callsubr
          endchar
        </CharString>
        <CharString name="Uhorn">
          64 callgsubr
          431 61 vstem
          643 759 rmoveto
          -35 callsubr
          -30 -103 callsubr
          -15 callgsubr
          50 475 rlineto
          59 5 26 35 49 vvcurveto
          endchar
        </CharString>
        <CharString name="Uhungarumlaut">
          29 callgsubr
          80 147 hstem
          61 90 vstem
          268 762 -78 callgsubr
          -132 -768 rmoveto
          -15 callgsubr
          51 485 rlineto
          14 1 -10 8 -27 hhcurveto
          -14 -103 callsubr
          endchar
        </CharString>
        <CharString name="Umacron">
          29 callgsubr
          107 70 hstem
          61 90 vstem
          248 789 -88 callsubr
          16 -795 rmoveto
          -15 callgsubr
          51 485 rlineto
          14 1 -10 8 -27 hhcurveto
          -14 -103 callsubr
          endchar
        </CharString>
        <CharString name="Uogonek">
          85 -165 63 96 88 callgsubr
          hstem
          61 90 155 61 vstem
          523 702 rmoveto
          -14 -103 callsubr
          21 21 2 3 18 hvcurveto
          -13 -29 -5 -29 -18 -52 callgsubr
          12 callsubr
          20 8 30 17 29 hvcurveto
          67 32 40 61 9 82 51 485 rcurveline
          -70 callgsubr
          endchar
        </CharString>
        <CharString name="Uring">
          29 callgsubr
          59 35 99 35 hstem
          61 90 116 36 94 37 vstem
          341 741 -74 callgsubr
          -80 -782 rmoveto
          -15 callgsubr
          51 485 rlineto
          14 1 -10 8 -27 hhcurveto
          -14 -103 callsubr
          endchar
        </CharString>
        <CharString name="Utilde">
          29 callgsubr
          86 97 callsubr
          61 90 hintmask 00000000
          hintmask 11011000
          212 769 -3 callgsubr
          hintmask 11101000
          -97 callgsubr
          hintmask 11011000
          -78 callsubr
          62 -779 rmoveto
          -15 callgsubr
          51 485 rlineto
          14 1 -10 8 -27 hhcurveto
          -14 -103 callsubr
          endchar
        </CharString>
        <CharString name="V">
          10 -2 104 600 -20 hstem
          63 469 vstem
          209 -2 rmoveto
          36 hlineto
          19 16 4 12 4 hvcurveto
          244 657 rlineto
          2 6 2 4 4 vvcurveto
          11 1 -12 6 -27 hhcurveto
          -12 hlineto
          -19 -15 -4 -12 -5 hvcurveto
          -190 -531 -15 -53 rlineto
          -3 hlineto
          -3 52 -78 532 rlineto
          12 -2 -14 4 -19 hhcurveto
          -14 hlineto
          -28 -13 -7 -10 -1 hvcurveto
          -4 1 -4 1 -5 vhcurveto
          110 -658 rlineto
          -12 2 13 -4 19 hhcurveto
          endchar
        </CharString>
        <CharString name="W">
          95 callgsubr
          182 -2 -93 callgsubr
        </CharString>
        <CharString name="Wacute">
          95 callgsubr
          412 762 rmoveto
          -106 callsubr
          -230 -764 -93 callgsubr
        </CharString>
        <CharString name="Wcircumflex">
          254 702 -20 71 142 hstem
          67 705 vstem
          342 753 -107 callgsubr
          -160 -755 -93 callgsubr
        </CharString>
        <CharString name="Wdieresis">
          254 702 -20 102 95 hstem
          339.5 122 callsubr
          372 784 -102 callsubr
          -316 -786 -93 callgsubr
        </CharString>
        <CharString name="Wgrave">
          95 callgsubr
          445 762 -99 callgsubr
          -263 -764 -93 callgsubr
        </CharString>
        <CharString name="X">
          8 88 callsubr
          -5 520 vstem
          35 -2 rmoveto
          15 hlineto
          18 16 2 12 7 hvcurveto
          166 277 102 -276 rlineto
          -12 4 14 -3 19 hhcurveto
          20 hlineto
          30 13 6 11 1 hvcurveto
          1 5 -3 5 -3 8 -140 332 rcurveline
          191 302 5 8 3 5 1 5 rlinecurve
          12 1 -13 5 -29 hhcurveto
          -14 hlineto
          -18 -15 -2 -12 -7 hvcurveto
          -147 -243 -88 242 rlineto
          13 -5 -14 2 -18 hhcurveto
          -20 hlineto
          -30 -12 -6 -11 -1 hvcurveto
          -1 -5 3 -6 3 -7 124 -298 rcurveline
          -210 -336 -5 -8 -3 -5 -1 -5 rlinecurve
          -12 -1 11 -5 30 hhcurveto
          endchar
        </CharString>
        <CharString name="Y">
          -14 88 callsubr
          64 444 vstem
          207 -2 -92 callsubr
          endchar
        </CharString>
        <CharString name="Y.loclGUA">
          43 callgsubr
          104 callgsubr
          hintmask 11110000
          442 702 3 callsubr
          hintmask 11101000
          -96 callsubr
          hintmask 11110000
          62 callgsubr
        </CharString>
        <CharString name="Yacute">
          -14 88 callsubr
          64 444 vstem
          273 762 rmoveto
          -106 callsubr
          -66 -764 -92 callsubr
          endchar
        </CharString>
        <CharString name="Yacute.loclGUA">
          43 callgsubr
          104 callgsubr
          hintmask 11110000
          281 762 rmoveto
          -106 callsubr
          161 -60 3 callsubr
          hintmask 11101000
          -96 callsubr
          hintmask 11110000
          62 callgsubr
        </CharString>
        <CharString name="Ycircumflex">
          -14 702 -20 71 142 hstem
          64 444 vstem
          203 753 -107 callgsubr
          4 -755 -92 callsubr
          endchar
        </CharString>
        <CharString name="Ycircumflex.loclGUA">
          43 callgsubr
          71 142 104 callgsubr
          hintmask 11111000
          211 753 -107 callgsubr
          231 -51 3 callsubr
          hintmask 11110100
          -96 callsubr
          hintmask 11111000
          62 callgsubr
        </CharString>
        <CharString name="Ydieresis">
          -14 702 -20 102 95 hstem
          200.5 122 callsubr
          233 784 -102 callsubr
          -152 -786 -92 callsubr
          endchar
        </CharString>
        <CharString name="Ydieresis.loclGUA">
          43 callgsubr
          102 95 hstem
          74 84 50.5 122 callsubr
          241 784 -102 callsubr
          75 -82 3 callsubr
          -96 callsubr
          62 callgsubr
        </CharString>
        <CharString name="Ygrave">
          -14 88 callsubr
          64 444 vstem
          306 762 -99 callgsubr
          -99 -764 -92 callsubr
          endchar
        </CharString>
        <CharString name="Ygrave.loclGUA">
          43 callgsubr
          104 callgsubr
          hintmask 11110000
          314 762 -99 callgsubr
          128 -60 3 callsubr
          hintmask 11101000
          -96 callsubr
          hintmask 11110000
          62 callgsubr
        </CharString>
        <CharString name="Z">
          9 110 callgsubr
          hstem
          10 494 vstem
          28 -42 callsubr
          endchar
        </CharString>
        <CharString name="Zacute">
          9 110 callgsubr
          hstem
          10 494 vstem
          286 762 rmoveto
          -106 callsubr
          -258 -762 rmoveto
          -90 callsubr
          endchar
        </CharString>
        <CharString name="Zacute.loclPLK">
          9 110 callgsubr
          62 147 hstem
          10 494 vstem
          294 762 -76 callsubr
          -266 -762 rmoveto
          -90 callsubr
          endchar
        </CharString>
        <CharString name="Zcaron">
          9 110 callgsubr
          60 142 hstem
          10 494 vstem
          301 760 -105 callsubr
          -273 -760 rmoveto
          -90 callsubr
          endchar
        </CharString>
        <CharString name="Zdotaccent">
          9 110 callgsubr
          84 95 hstem
          270.5 90 vstem
          309 784 -107 callsubr
          -281 -784 rmoveto
          -90 callsubr
          endchar
        </CharString>
        <CharString name="a">
          24 callgsubr
          174 -7 -83 callsubr
          hintmask 10111000
          -81 callgsubr
          hintmask 11011000
          -95 callsubr
        </CharString>
        <CharString name="aacute">
          24 callgsubr
          245 585 rmoveto
          -106 callsubr
          -71 -592 -83 callsubr
          hintmask 10111000
          -81 callgsubr
          hintmask 11011000
          -95 callsubr
        </CharString>
        <CharString name="abreve">
          132 callgsubr
          -64 callgsubr
          hintmask 11011100
          268 -85 callsubr
          -94 -592 -99 callsubr
        </CharString>
        <CharString name="acircumflex">
          13 callsubr
          71 142 -64 callgsubr
          hintmask 11011100
          175 -104 callsubr
          -1 -583 -99 callsubr
        </CharString>
        <CharString name="acute">
          -242 110 callsubr
          53 147 vstem
          74 585 rmoveto
          -106 callsubr
          endchar
        </CharString>
        <CharString name="acute.loclPLK">
          -242 110 callsubr
          58 123 vstem
          85 585 -76 callsubr
          endchar
        </CharString>
        <CharString name="acutecomb">
          -498 110 callsubr
          0 147 vstem
          21 585 rmoveto
          -106 callsubr
          endchar
        </CharString>
        <CharString name="adieresis">
          13 callsubr
          102 95 hstemhm
          43.84 85.39 43.27 78 48 78 -75.5 85 hintmask 11011110
          205 607 -102 callsubr
          -157 -614 rmoveto
          hintmask 10111101
          -61 callgsubr
          hintmask 11011101
          -67 callsubr
          hintmask 11011110
          -56 callsubr
        </CharString>
        <CharString name="ae">
          47 callgsubr
          hintmask 00000000
          hintmask 01111110
          151 -6 -44 callgsubr
        </CharString>
        <CharString name="aeacute">
          47 callgsubr
          hintmask 10111110
          347 585 rmoveto
          -106 callsubr
          hintmask 01111110
          -196 -591 -44 callgsubr
        </CharString>
        <CharString name="agrave">
          24 callgsubr
          278 585 -99 callgsubr
          -104 -592 -83 callsubr
          hintmask 10111000
          -81 callgsubr
          hintmask 11011000
          -95 callsubr
        </CharString>
        <CharString name="amacron">
          13 callsubr
          107 70 -64 callgsubr
          hintmask 11011100
          170 612 -88 callsubr
          4 -619 -99 callsubr
        </CharString>
        <CharString name="ampersand">
          22 -6 72 270 72 226 72 hstemhm
          26 88 -35 86 143 88 hintmask 11101100
          481 408 rmoveto
          -57 hlineto
          11 105 rlineto
          14 2 -8 8 -21 hhcurveto
          -14 hlineto
          -21 -11 -8 -14 -3 hvcurveto
          -22 -105 rlineto
          -87 hlineto
          -68 -22 71 50 5 hvcurveto
          37 4 23 68 69 23 16 -9 5 hhcurveto
          13 13 45 4 hvcurveto
          27 3 -44 5 -30 hhcurveto
          -95 -74 -55 -113 -12 hvcurveto
          -8 -74 30 -51 43 -22 -1 -4 rcurveline
          hintmask 11110100
          -55 -16 -51 -63 -11 -105 rrcurveto
          -154 -16 84 -55 90 hhcurveto
          60 44 23 20 35 hvcurveto
          -35 19 31 -8 30 hhcurveto
          23 42 3 27 3 hvcurveto
          8 1 -3 39 -13 -6 -7 -5 -17 hhcurveto
          -22 -14 14 60 6 hvcurveto
          21 196 rlineto
          57 116 callsubr
          12 rlineto
          hintmask 11101100
          80 callsubr
          -13 hhcurveto
          hintmask 11110100
          -367 -204 rmoveto
          102 11 43 30 71 hhcurveto
          91 hlineto
          -22 -204 -1 -12 0 -10 1 -9 rlinecurve
          -17 -34 -37 -18 -36 hhcurveto
          -48 -50 29 109 11 hvcurveto
          endchar
        </CharString>
        <CharString name="aogonek">
          -17 -187 63 117 73 -68 -20 478 73 -4 -20 -64 callgsubr
          -60 61 hintmask 10110101
          477 -117 rmoveto
          12 callsubr
          19 7 30 17 29 hvcurveto
          hintmask 10101110
          25 6 14 16 29 vvcurveto
          12 -3 11 -7 vhcurveto
          -23 callgsubr
          -12 10 39 3 hvcurveto
          30 278 rlineto
          -81 callgsubr
          hintmask 11010110
          -67 callsubr
          -132 -14 29 -138 112 hhcurveto
          43 48 20 70 36 hvcurveto
          hintmask 10110110
          2 -54 27 -23 26 -8 rrcurveto
          hintmask 10110101
          -23 -35 -7 -39 -23 -52 callgsubr
          -148 484 rmoveto
          -18 -169 rlineto
          hintmask 11010101
          -99 -29 -46 -33 -38 hhcurveto
          -69 -6 109 92 10 hvcurveto
          112 12 34 77 78 hhcurveto
          42 23 -23 -16 15 hvcurveto
          hintmask 10110101
          -3 -16 -3 -16 -2 -18 rrcurveto
          endchar
        </CharString>
        <CharString name="approxequal">
          -60 98 56 -12 56 60 56 -12 56 hstemhm
          42 357 hintmask 01011000
          220 281 rmoveto
          hintmask 01101000
          -9 callgsubr
          -17 -160 rmoveto
          hintmask 10011000
          -9 callgsubr
          endchar
        </CharString>
        <CharString name="aring">
          45 callgsubr
          263 -19 callsubr
          -92 -606 rmoveto
          hintmask 1011111100000000
          -61 callgsubr
          hintmask 1101111100000000
          -67 callsubr
          hintmask 1101111010000000
          -56 callsubr
        </CharString>
        <CharString name="aringacute">
          45 callgsubr
          279 775 rmoveto
          -106 callsubr
          -16 -211 -74 callgsubr
          -92 -606 rmoveto
          hintmask 1011111100000000
          -61 callgsubr
          hintmask 1101111100000000
          -67 callsubr
          hintmask 1101111010000000
          -56 callsubr
        </CharString>
        <CharString name="arrowdown">
          31 708 -20 hstem
          18.6 500.4 vstem
          499 317 rmoveto
          -214 -197 60 566 rlineto
          14 1 -8 8 -21 hhcurveto
          -10 hlineto
          -21 -10 112 callgsubr
          -60 -565 -168 193 -10 10 -10 0 -2 -19 rlinecurve
          -6 -52 -2 -19 4 -5 9 -10 rlinecurve
          192 -216 rlineto
          5 -6 4 -1 8 9 4 2 6 hflex1
          238 216 13 12 3 6 1 16 rlinecurve
          6 55 1 13 -8 9 -13 -13 rlinecurve
          endchar
        </CharString>
        <CharString name="arrowleft">
          102 227 70 233 -20 hstem
          0 600 vstem
          582 297 rmoveto
          -465 hlineto
          191 212 rlineto
          11 10 2 10 -18 hhcurveto
          -53 hlineto
          -13 -10 -3 -11 -9 hvcurveto
          -209 -232 rlineto
          -6 -6 -2 -5 -5 vvcurveto
          -1 -11 1 -4 4 -5 160 -233 rcurveline
          -11 7 10 -3 13 hhcurveto
          49 hlineto
          15 2 11 10 -7 hvcurveto
          -140 205 rlineto
          462 hlineto
          14 8 -59 callgsubr
          1 10 rlineto
          21 2 -6 9 -14 hhcurveto
          endchar
        </CharString>
        <CharString name="arrowright">
          102 234 70 226 -20 hstem
          0 600 vstem
          596 283 rmoveto
          -160 233 rlineto
          11 -7 -10 3 -13 hhcurveto
          -49 hlineto
          -15 -2 -11 -10 7 hvcurveto
          140 -205 rlineto
          -462 hlineto
          -14 -8 56 callsubr
          -10 rlineto
          -21 -2 6 -9 14 hhcurveto
          465 hlineto
          -191 -212 rlineto
          -11 -10 -2 -10 18 hhcurveto
          53 hlineto
          13 10 3 11 9 hvcurveto
          209 232 rlineto
          6 6 2 5 5 vvcurveto
          1 11 -1 4 -4 5 rrcurveto
          endchar
        </CharString>
        <CharString name="arrowup">
          7 701 -20 hstem
          19 500.38 vstem
          508 485 rmoveto
          -192 216 rlineto
          -5 6 -4 1 -8 -9 -4 -2 -6 hflex1
          -238 -216 -13 -12 -3 -6 -1 -16 rlinecurve
          -6 -55 -1 -13 8 -9 13 13 rlinecurve
          214 197 -60 -566 rlineto
          -14 -1 8 -8 21 hhcurveto
          10 hlineto
          21 10 -43 callsubr
          60 565 168 -193 10 -10 10 0 2 19 rlinecurve
          6 52 2 19 -4 5 -9 10 rlinecurve
          endchar
        </CharString>
        <CharString name="asciicircum">
          -138 320 364 hstem
          45 286.37 vstem
          331 355 rmoveto
          -70 309 rlineto
          16 -3 -9 4 -15 hhcurveto
          -20 hlineto
          -14 -10 -4 -16 -7 hvcurveto
          -134 -309 -2 -5 -1 -5 -1 -4 rlinecurve
          -13 -1 7 -8 15 hhcurveto
          9 hlineto
          16 11 7 16 7 hvcurveto
          110 268 50 -268 rlineto
          -16 3 10 -7 16 hhcurveto
          8 hlineto
          16 8 8 13 1 hvcurveto
          1 4 -1 5 5 vvcurveto
          endchar
        </CharString>
        <CharString name="asciitilde">
          -61 225 56 -12 56 hstemhm
          50 340 hintmask 00000000
          hintmask 10100000
          300 225 rmoveto
          38 28 18 51 20 hvcurveto
          3 6 1 5 3 vvcurveto
          -1 5 -3 3 -6 3 -7 4 rcurveline
          -11 7 -8 -8 -7 -11 rrcurveto
          -22 -14 -11 -8 -12 hhcurveto
          -22 -29 11 10 -30 hvcurveto
          hintmask 01100000
          11 -31 -32 12 -26 hhcurveto
          -38 -28 -18 -51 -20 hvcurveto
          -3 -6 -1 -5 -3 vvcurveto
          1 -5 3 -3 6 -3 7 -4 rcurveline
          11 -7 8 8 7 11 rrcurveto
          22 14 11 8 12 hhcurveto
          22 29 -11 -10 30 hvcurveto
          hintmask 10100000
          -11 31 32 -12 26 hhcurveto
          endchar
        </CharString>
        <CharString name="asterisk">
          -199 436 273 hstem
          168 40 vstem
          95 436 rmoveto
          5 7 3 6 4 hvcurveto
          65 86 46 -86 rlineto
          -6 4 5 -3 5 hhcurveto
          10 14 10 9 1 hvcurveto
          1 4 -2 4 -2 5 -49 91 rcurveline
          86 32 rlineto
          10 4 4 4 1 8 2 15 -8 8 0 flex1
          -3 -5 0 -3 -5 hvcurveto
          -79 -29 10 91 rlineto
          1 14 -5 6 -14 -14 -7 -6 -1 hflex1
          -10 -91 -74 29 rlineto
          3 -3 -5 0 -3 hhcurveto
          -9 -10 -9 -15 -2 hvcurveto
          -1 -7 5 -4 9 -4 77 -32 rcurveline
          -66 -91 -4 -5 -2 -4 -1 -4 rlinecurve
          -9 -1 12 -10 10 hhcurveto
          endchar
        </CharString>
        <CharString name="at">
          294 -126 44 136 53 -53 61 328 62 156 44 hstemhm
          55 54 108 73 161 70 152 54 hintmask 1101111110000000
          442 705 rmoveto
          -219 -168 -206 -262 -215 113 -148 166 44 100 11 39 16 -5 7 -9 hvcurveto
          -19 -32 -29 -75 hhcurveto
          -138 -91 129 189 239 145 186 185 140 94 -110 -173 -141 -57 -130 -61 -7 -27 1 38 hvcurveto
          29 27 295 11 vvcurveto
          13 -6 8 -16 vhcurveto
          -6 hlineto
          -21 -2 -8 -33 -11 hvcurveto
          18 -15 -32 26 -44 hhcurveto
          -108 -70 -112 -157 hvcurveto
          hintmask 1011111110000000
          -147 73 -35 47 43 41 22 55 30 vhcurveto
          hintmask 1101111110000000
          -51 4 32 -26 48 hhcurveto
          114 78 143 178 203 -114 127 -171 hvcurveto
          12 -480 rmoveto
          hintmask 1011111110000000
          -86 -28 -40 -24 -28 hhcurveto
          -37 -31 30 96 101 23 101 90 33 23 -17 -13 14 hvcurveto
          hintmask 1101111110000000
          -8 -26 -8 -111 -3 -51 rrcurveto
          endchar
        </CharString>
        <CharString name="atilde">
          13 callsubr
          86 59 -19 59 -64 callgsubr
          hintmask 00000000
          hintmask 11001100
          134 41 callsubr
          hintmask 11010100
          -97 callgsubr
          hintmask 10101110
          -78 callsubr
          50 -603 rmoveto
          -61 callgsubr
          hintmask 11010110
          -67 callsubr
          hintmask 10101110
          -132 -14 29 -138 112 hhcurveto
          24 73 rmoveto
          -69 -6 109 92 10 hvcurveto
          hintmask 11010100
          112 12 34 77 78 hhcurveto
          42 23 -23 -16 15 hvcurveto
          -3 -16 -3 -16 -2 -18 -18 -169 rcurveline
          hintmask 10101110
          121 callgsubr
        </CharString>
        <CharString name="b">
          -6 73 388 74 223 -20 hstem
          342.12 89.84 vstem
          243 -6 rmoveto
          95 74 109 162 17 hvcurveto
          169 17 -57 95 -98 hhcurveto
          -50 -32 -22 -29 -29 hvcurveto
          27 252 rlineto
          14 1 23 callsubr
          -1 hvcurveto
          -75 -710 rlineto
          -14 -2 10 -8 23 hhcurveto
          6 hlineto
          16 11 3 9 5 hvcurveto
          16 59 rlineto
          -51 27 40 -24 45 hhcurveto
          -13 73 rmoveto
          -33 -32 25 44 -21 hvcurveto
          29 274 rlineto
          30 26 32 15 32 hhcurveto
          65 24 -67 -122 -13 hvcurveto
          -125 -13 -38 -74 -58 hhcurveto
          endchar
        </CharString>
        <CharString name="backslash">
          -209 88 callsubr
          57 208.37 vstem
          229 -20 rmoveto
          11 hlineto
          15 9 7 11 1 hvcurveto
          1 4 -1 5 4 vvcurveto
          -146 670 rlineto
          15 -3 -9 6 -15 hhcurveto
          -11 hlineto
          -15 -7 -7 -11 -2 hvcurveto
          -4 0 -3 2 -9 vhcurveto
          145 -667 rlineto
          -15 2 8 -6 15 hhcurveto
          endchar
        </CharString>
        <CharString name="bar">
          83 callgsubr
          -7 -8 -14 -2 hvcurveto
          -91 -866 rlineto
          -14 -1 6 -8 17 hhcurveto
          10 hlineto
          17 8 -43 callsubr
          91 866 rlineto
          14 2 -7 8 -17 hhcurveto
          endchar
        </CharString>
        <CharString name="baraccent">
          -181 285 67 callsubr
          285 -88 callsubr
          endchar
        </CharString>
        <CharString name="baraccentlong">
          19 285 71 hstem
          -57 638 vstem
          564 356 rmoveto
          -596 68 callsubr
          596 69 callgsubr
          endchar
        </CharString>
        <CharString name="baraccentmedium">
          -81 285 71 hstem
          3 408 vstem
          394 356 rmoveto
          -366 68 callsubr
          366 69 callgsubr
          endchar
        </CharString>
        <CharString name="braceleft">
          -249 -138 62 782 62 hstemhm
          64 73 -51.43 71.43 hintmask 00000000
          hintmask 11100000
          130 -138 rmoveto
          45 hlineto
          14 7 8 -17 callsubr
          4 vlineto
          21 3 -5 8 -14 hhcurveto
          -17 hlineto
          -28 -4 23 39 4 hvcurveto
          hintmask 11010000
          20 186 9 94 -53 42 -13 6 rlinecurve
          17 11 60 42 10 91 19 187 rcurveline
          39 4 9 22 28 hhcurveto
          17 hlineto
          14 7 8 -17 callsubr
          4 vlineto
          21 2 -5 8 -14 hhcurveto
          -45 hlineto
          -26 -54 -21 -95 -10 hvcurveto
          -19 -178 -6 -62 -10 -38 -41 -18 rlinecurve
          -17 -7 -10 -9 -2 -18 -1 -14 rcurveline
          -2 -18 8 -9 15 -7 37 -18 2 -39 -6 -61 rrcurveto
          hintmask 11100000
          -19 -178 rlineto
          -97 -10 50 -19 26 hhcurveto
          endchar
        </CharString>
        <CharString name="braceright">
          -249 -138 62 782 62 hstemhm
          109 70.57 -51.57 73 hintmask 11100000
          -4 -138 rmoveto
          44 hlineto
          26 54 19 97 10 hvcurveto
          19 178 6 61 11 39 41 18 rlinecurve
          17 7 10 9 2 18 1 14 rcurveline
          2 18 -8 9 -15 7 -37 18 -3 38 6 62 rrcurveto
          hintmask 11010000
          19 178 rlineto
          95 10 -50 21 -26 hhcurveto
          -44 hlineto
          -14 -7 -8 -6 callsubr
          -4 vlineto
          -21 -2 5 -8 14 hhcurveto
          16 hlineto
          28 3 -22 -39 -4 hvcurveto
          hintmask 11100000
          -19 -187 -10 -91 53 -42 15 -11 rlinecurve
          -15 -6 -64 -42 -9 -94 -20 -186 rcurveline
          -39 -4 -8 -23 -28 hhcurveto
          -16 hlineto
          -14 123 callsubr
          14 hhcurveto
          endchar
        </CharString>
        <CharString name="bracketleft">
          -259 -138 62 781 63 hstem
          6 237.31 vstem
          30 -138 rmoveto
          102 hlineto
          14 6 8 -17 callsubr
          4 vlineto
          21 3 -4 8 -14 hhcurveto
          -57 hlineto
          82 781 rlineto
          57 hlineto
          14 5 8 21 3 hvcurveto
          5 vlineto
          21 2 -4 8 -14 hhcurveto
          -102 hlineto
          -19 2 callsubr
          -89 -846 35 callsubr
          endchar
        </CharString>
        <CharString name="bracketright">
          -259 -138 62 781 63 hstem
          5.82 237.18 vstem
          22 -138 rmoveto
          103 hlineto
          18 9 -59 callgsubr
          89 846 rlineto
          21 2 -7 9 -18 hhcurveto
          -103 hlineto
          -13 -7 -8 -6 callsubr
          -5 vlineto
          -21 -3 6 -8 13 hhcurveto
          58 hlineto
          -82 -781 rlineto
          -58 hlineto
          -13 123 callsubr
          13 hhcurveto
          endchar
        </CharString>
        <CharString name="breve">
          -242 585 66 hstem
          55.66 233.34 vstem
          161 -85 callsubr
          endchar
        </CharString>
        <CharString name="brokenbar">
          83 callgsubr
          -8 112 callgsubr
          -11 -108 -23 -202 -13 103 callsubr
          108 23 205 10 vvcurveto
          14 -5 8 -17 vhcurveto
          -57 -544 rmoveto
          -10 hlineto
          -18 -7 112 callgsubr
          -11 -107 -23 -201 -14 103 callsubr
          107 23 204 11 vvcurveto
          14 -5 8 -17 vhcurveto
          endchar
        </CharString>
        <CharString name="bullet">
          -200 203 247 hstem
          40.2 231.57 vstem
          143 203 rmoveto
          63 56 39 84 9 hvcurveto
          84 9 -48 40 -63 hhcurveto
          -63 -56 -40 -84 -9 hvcurveto
          -84 -9 48 -39 63 hhcurveto
          endchar
        </CharString>
        <CharString name="c">
          121 callsubr
          33 callsubr
          vstem
          228 -6 -84 callgsubr
        </CharString>
        <CharString name="cacute">
          121 callsubr
          33 callsubr
          vstem
          250 585 rmoveto
          -106 callsubr
          -22 -591 -84 callgsubr
        </CharString>
        <CharString name="cacute.loclPLK">
          121 callsubr
          56 147 33 callsubr
          vstem
          258 585 -76 callsubr
          -30 -591 -84 callgsubr
        </CharString>
        <CharString name="caron">
          -242 583 142 hstem
          64 217 vstem
          152 583 -105 callsubr
          endchar
        </CharString>
        <CharString name="caron.alt">
          -242 700 -20 hstem
          92 89 vstem
          108 526 rmoveto
          1 callsubr
          -12 18 -3 11 vhcurveto
          endchar
        </CharString>
        <CharString name="ccaron">
          121 callsubr
          54 142 33 callsubr
          vstem
          265 583 -105 callsubr
          -37 -589 -84 callgsubr
        </CharString>
        <CharString name="ccedilla">
          -90 -210 49 155 50 callgsubr
          hstem
          42.18 91.48 98.34001 66 vstem
          281 529 rmoveto
          -118 -95 -56 -209 -22 hvcurveto
          -19 -179 52 -79 119 -11 rrcurveto
          -20 -59 -1 -7 -62 callgsubr
          15 54 54 4 69 26 2 21 rlinecurve
          14 2 -15 37 -14 hhcurveto
          -2 -6 -5 -3 -6 hvcurveto
          -10 -18 -26 -12 -42 hhcurveto
          -88 -26 60 140 14 hvcurveto
          139 15 47 52 77 hhcurveto
          39 26 -16 -8 13 hvcurveto
          -2 5 3 -2 3 hhcurveto
          11 24 38 16 1 hvcurveto
          24 3 -63 22 -60 hhcurveto
          endchar
        </CharString>
        <CharString name="ccircumflex">
          121 callsubr
          47 142 33 callsubr
          vstem
          180 -104 callsubr
          48 -582 -84 callgsubr
        </CharString>
        <CharString name="cdotaccent">
          121 callsubr
          78 95 33 callsubr
          100.84 90 vstem
          273 -86 callsubr
          -45 -613 -84 callgsubr
        </CharString>
        <CharString name="cedilla">
          -242 -210 49 161 -20 hstem
          155 66 vstem
          147 -60 rmoveto
          17 60 rlineto
          -41 hlineto
          -22 -64 -1 -7 -62 callgsubr
          endchar
        </CharString>
        <CharString name="cent">
          -58 27 callsubr
          -3 -20 hstemhm
          42.24 91.35 42.40999 42.5 21 41.5 hintmask 00000000
          hintmask 11010100
          281 529 rmoveto
          -3 hlineto
          hintmask 10110100
          3 29 rlineto
          14 -4 6 -14 vhcurveto
          -2 hlineto
          -13 -6 -6 -14 -1 hvcurveto
          -3 -32 -98 -14 -75 -65 -19 -183 rlinecurve
          -18 -170 46 -80 107 -17 rrcurveto
          hintmask 11011000
          -5 -48 rlineto
          -14 3 -6 15 vhcurveto
          2 hlineto
          12 6 7 13 -17 callgsubr
          45 rlineto
          7 hlineto
          54 80 28 23 2 hvcurveto
          14 2 -15 37 -14 hhcurveto
          -2 -6 -5 -3 -6 hvcurveto
          -10 -18 -26 -12 -42 hhcurveto
          -8 hlineto
          41 391 rlineto
          6 hlineto
          39 26 -16 -8 13 hvcurveto
          -2 5 3 -2 3 hhcurveto
          11 24 38 16 1 hvcurveto
          hintmask 11010100
          24 3 -63 22 -60 hhcurveto
          hintmask 10110000
          -92 -455 rmoveto
          -49 21 -14 61 11 110 12 108 31 56 49 19 rrcurveto
          endchar
        </CharString>
        <CharString name="circumflex">
          -242 576 142 hstem
          51 218 vstem
          69 -104 callsubr
          endchar
        </CharString>
        <CharString name="colon">
          -310 -2 110 307 110 hstemhm
          25.5 94 -51 94 hintmask 00000000
          hintmask 11010000
          101 5 callsubr
          hintmask 11100000
          -44 -417 rmoveto
          -44 callsubr
          endchar
        </CharString>
        <CharString name="comma">
          -310 -116 224 hstem
          -25 140 vstem
          1 -116 31 callsubr
        </CharString>
        <CharString name="commaaccentinvert">
          -145 585 184 hstem
          113 83 vstem
          197 769 rmoveto
          -27 -57 -60 -96 -17 12 -11 23 hvcurveto
          57 callsubr
          vhcurveto
          endchar
        </CharString>
        <CharString name="copyright">
          94 -5 48 94 45 335 45 100 48 hstem
          19 50 98 53 323 8 callsubr
          12 94 rmoveto
          49 51 27 16 7 -11 25 -10 hvcurveto
          -6 -25 -30 -48 hhcurveto
          -66 -32 52 115 117 32 51 68 hvcurveto
          45 21 -27 5 hhcurveto
          8 13 25 10 16 -47 21 -45 -101 -52 -70 -143 -145 49 -67 102 hvcurveto
          endchar
        </CharString>
        <CharString name="currency">
          -36 145 61 233 61 hstem
          81 61 187 62 vstem
          76 143 rmoveto
          7 7 3 7 8 hvcurveto
          28 26 rlineto
          -21 24 31 -13 36 hhcurveto
          37 33 13 21 28 hvcurveto
          23 -25 rlineto
          -8 6 7 -3 7 hhcurveto
          7 6 4 5 5 hvcurveto
          2 1 5 5 6 9 1 5 rlinecurve
          7 -3 7 -6 7 vhcurveto
          -26 29 19 29 13 34 4 37 rlinecurve
          4 36 -6 34 -13 29 32 29 rcurveline
          9 8 3 7 1 7 1 6 -3 5 -5 6 -2 2 rcurveline
          6 -5 -8 3 -5 hhcurveto
          -7 -7 -4 -6 -7 hvcurveto
          -28 -25 rlineto
          21 -23 -31 14 -37 hhcurveto
          -36 -34 -14 -22 -29 hvcurveto
          -22 25 rlineto
          8 -6 -8 4 -7 hhcurveto
          -6 -6 -3 -5 -5 hvcurveto
          -4 -5 rlineto
          -5 -5 -2 -7 -1 -4 -1 -8 3 -7 -7 flex1
          27 -28 -20 -28 -13 -35 -4 -37 rlinecurve
          -4 -37 6 -34 14 -28 -33 -30 rcurveline
          -8 -7 -5 -8 -1 -7 rrcurveto
          -7 2 -5 5 -5 vhcurveto
          1 -2 rlineto
          -6 6 7 -3 5 hhcurveto
          147 63 rmoveto
          -51 -38 41 75 8 hvcurveto
          75 8 47 42 51 hhcurveto
          52 37 -42 -75 -8 hvcurveto
          -75 -8 -46 -41 -52 hhcurveto
          endchar
        </CharString>
        <CharString name="d">
          -17 -6 73 388 74 223 -20 hstem
          6 callgsubr
          vstem
          -75 callgsubr
          29 73 14 callsubr
        </CharString>
        <CharString name="dagger">
          -70 422 80 200 -20 hstem
          57.82 353.49 113 callgsubr
          57 540 11 callsubr
          -57 -540 rlineto
          111 callsubr
          24 hhcurveto
          endchar
        </CharString>
        <CharString name="daggerdbl">
          -70 60 80 282 80 200 -20 hstem
          19.82 391.49 113 callgsubr
          19 178 rlineto
          118 90 callsubr
          20 75 callgsubr
          -118 hlineto
          30 282 11 callsubr
          -30 -282 rlineto
          -120 25 callsubr
          -2 -20 rlineto
          31 callgsubr
          13 hhcurveto
          120 hlineto
          -19 -178 rlineto
          111 callsubr
          24 hhcurveto
          endchar
        </CharString>
        <CharString name="dcaron">
          -17 -6 73 388 74 171 -20 72 -20 hstem
          6 callgsubr
          55.13 89 vstem
          -75 callgsubr
          348 532 rmoveto
          1 callsubr
          -12 18 -3 11 vhcurveto
          -319 -459 14 callsubr
        </CharString>
        <CharString name="dcroat">
          -17 -6 73 388 74 69 70 84 -20 hstemhm
          6 callgsubr
          -88.37 86.5 hintmask 11111010
          506 668 rmoveto
          -60 hlineto
          6 62 14 callgsubr
          -11 hlineto
          -26 111 callgsubr
          -7 -62 rlineto
          -52 25 callsubr
          -1 -10 rlineto
          31 callgsubr
          13 hhcurveto
          52 hlineto
          -13 -120 rlineto
          29 -23 -28 22 -50 hhcurveto
          -98 -77 -96 -169 -17 hvcurveto
          -160 -17 49 -110 96 hhcurveto
          hintmask 11111100
          46 47 25 53 36 hvcurveto
          -65 8 44 -13 31 3 callgsubr
          -17 -10 11 46 3 hvcurveto
          hintmask 11111010
          16 158 17 159 17 158 rrcurveto
          61 hlineto
          14 6 -59 callgsubr
          1 10 75 callgsubr
          -203 -532 rmoveto
          -44 -31 -36 -25 -33 hhcurveto
          -59 -22 74 124 13 hvcurveto
          124 13 39 66 66 hhcurveto
          32 27 -15 -30 20 hvcurveto
          endchar
        </CharString>
        <CharString name="degree">
          -222 441 45 175 45 hstem
          65 47 116 49 vstem
          157 441 rmoveto
          62 49 51 81 9 hvcurveto
          82 8 -38 51 -62 hhcurveto
          -62 -50 -51 -82 -8 hvcurveto
          -81 -9 39 -51 62 hhcurveto
          4 45 rmoveto
          -36 -19 32 55 6 hvcurveto
          55 6 25 33 36 hhcurveto
          36 19 -33 -55 -6 hvcurveto
          -55 -6 -25 -32 -36 hhcurveto
          endchar
        </CharString>
        <CharString name="dieresis">
          -242 607 95 hstem
          68.5 122 callsubr
          101 607 -102 callsubr
          endchar
        </CharString>
        <CharString name="divide">
          -50 -2 95 104 67 104 95 hstemhm
          160.5 81 -42 81 hintmask 00000000
          hintmask 01101000
          232 368 46 callsubr
          -182 -171 rmoveto
          335 hlineto
          17 119 callgsubr
          -17 hhcurveto
          -335 52 callgsubr
          -7 87 callgsubr
          hintmask 11010000
          143 -199 46 callsubr
          endchar
        </CharString>
        <CharString name="dollar">
          -58 -5 78 561 76 45 -20 hstemhm
          60 87 18 42.5 39 41.5 11 89 hintmask 00000000
          hintmask 11111010
          182 -68 rmoveto
          1 hlineto
          13 8 6 14 1 hvcurveto
          5 45 rlineto
          113 12 65 78 117 vvcurveto
          98 -66 51 -70 40 vhcurveto
          25 241 rlineto
          33 35 -9 -13 28 hvcurveto
          -2 5 5 -3 4 hhcurveto
          12 17 50 13 4 -1 4 -5 3 hvcurveto
          hintmask 11110110
          -27 16 -50 11 -47 2 1 8 0 9 1 8 rrcurveto
          13 -4 7 -12 vhcurveto
          -2 hlineto
          -16 -4 -6 -14 -2 hvcurveto
          -3 -25 rlineto
          -113 -7 -72 -80 -110 vvcurveto
          -98 70 -55 72 -43 vhcurveto
          -26 -244 rlineto
          -58 -44 10 27 -36 hvcurveto
          2 -3 -4 3 -5 hhcurveto
          -14 -9 -35 -19 -15 3 -3 5 -4 hvcurveto
          hintmask 11111010
          44 -35 53 -8 60 -1 rrcurveto
          -2 -22 -1 -17 -4 vvcurveto
          -14 3 -6 14 vhcurveto
          hintmask 11110010
          31 485 rmoveto
          -42 30 -24 33 45 vvcurveto
          68 44 28 46 9 vhcurveto
          -19 -551 rmoveto
          23 213 rlineto
          34 -25 24 -32 -47 vvcurveto
          -61 -33 -35 -48 -13 vhcurveto
          endchar
        </CharString>
        <CharString name="dotaccent">
          -242 607 95 hstem
          126.5 90 vstem
          165 -86 callsubr
          endchar
        </CharString>
        <CharString name="dotbelowcomb">
          -498 -175 95 hstem
          -84.5 90 vstem
          -46 -175 -107 callsubr
          endchar
        </CharString>
        <CharString name="dotlessi">
          124 callgsubr
          142 -3 -100 callsubr
          endchar
        </CharString>
        <CharString name="e">
          99 callsubr
          371 115 -96 callgsubr
          endchar
        </CharString>
        <CharString name="eacute">
          99 callsubr
          258 585 rmoveto
          -106 callsubr
          113 -470 -96 callgsubr
          endchar
        </CharString>
        <CharString name="ebreve">
          -12 callgsubr
          56 66 66 callsubr
          281 -85 callsubr
          90 -470 -96 callgsubr
          endchar
        </CharString>
        <CharString name="ecaron">
          -12 callgsubr
          54 142 66 callsubr
          233 605 rmoveto
          -15 8 13 -7 19 hhcurveto
          15 hlineto
          20 13 7 15 10 hvcurveto
          63 88 rlineto
          4 6 4 6 5 vvcurveto
          9 1 -6 6 -12 hhcurveto
          -20 hlineto
          -11 -9 -5 -10 -7 hvcurveto
          -52 -72 -37 72 rlineto
          10 -6 -7 5 -11 hhcurveto
          -19 hlineto
          -12 -8 -6 -8 -29 callsubr
          3 -8 2 -5 vhcurveto
          181 -578 -96 callgsubr
          endchar
        </CharString>
        <CharString name="ecircumflex">
          82 callgsubr
          188 -104 callsubr
          183 -461 -96 callgsubr
          endchar
        </CharString>
        <CharString name="edieresis">
          -12 callgsubr
          78 95 hstemhm
          48 87 50.5 78 48 78 -49.5 86 hintmask 11111101
          218 607 rmoveto
          29 12 9 13 124 callsubr
          -29 -12 -9 -13 -1 hvcurveto
          -5 -51 -31 callgsubr
          hintmask 11111110
          126 hmoveto
          28 13 9 13 -17 callgsubr
          51 14 callgsubr
          -29 -12 -9 -13 -1 hvcurveto
          -5 -51 -31 callgsubr
          27 -492 18 callsubr
          hintmask 11111101
          127 97 60 123 51 -33 82 -107 -164 -74 -151 -184 -173 106 -27 83 35 66 15 33 30 hvcurveto
          13 15 4 20 17 vvcurveto
          hintmask 11111110
          44 callgsubr
          hintmask 11111101
          36 callsubr
        </CharString>
        <CharString name="edotaccent">
          -12 callgsubr
          78 95 hstemhm
          48 87 107.5 90 7.5 86 hintmask 00000000
          hintmask 11111100
          281 -86 callsubr
          90 -492 -5 callgsubr
        </CharString>
        <CharString name="egrave">
          99 callsubr
          291 585 -99 callgsubr
          80 -470 -96 callgsubr
          endchar
        </CharString>
        <CharString name="eight">
          -39 -6 72 568 72 hstemhm
          32 86 -29 85 152 86 -66 85 hintmask 11100100
          199 -6 rmoveto
          hintmask 11101000
          111 88 72 130 14 hvcurveto
          11 105 -47 43 -55 32 rrcurveto
          hintmask 11010100
          55 27 46 51 9 84 rrcurveto
          118 12 -79 50 -86 hhcurveto
          -94 -82 -58 -117 -13 hvcurveto
          -8 -82 31 -45 41 -30 rrcurveto
          hintmask 11100100
          -57 -28 -53 -51 -11 -103 rrcurveto
          -135 -14 77 -63 104 hhcurveto
          hintmask 11010100
          61 415 rmoveto
          -51 26 -43 29 8 72 rrcurveto
          67 7 41 31 47 hhcurveto
          48 36 -30 -70 -7 hvcurveto
          -7 -60 -33 -37 -46 -28 rrcurveto
          hintmask 11101000
          -53 -343 rmoveto
          -55 -43 40 91 9 hvcurveto
          8 74 35 41 50 30 62 -31 63 -25 -10 -90 rrcurveto
          -80 -8 -52 -50 -59 hhcurveto
          endchar
        </CharString>
        <CharString name="ellipsis">
          54 -2 110 hstem
          26.5 94 88 94 88 94 vstem
          58 -2 rmoveto
          -44 callsubr
          182 hmoveto
          -44 callsubr
          182 hmoveto
          -44 callsubr
          endchar
        </CharString>
        <CharString name="emacron">
          -12 callgsubr
          83 70 66 callsubr
          183 612 -88 callsubr
          188 -497 -96 callgsubr
          endchar
        </CharString>
        <CharString name="emdash">
          388 230 70 hstem
          -0.18 887.34 vstem
          16 230 rmoveto
          848 37 callgsubr
          -848 25 callsubr
          -1 -10 rlineto
          31 callgsubr
          13 hhcurveto
          endchar
        </CharString>
        <CharString name="endash">
          -55 230 70 hstem
          -0.18 444.34 vstem
          16 230 rmoveto
          405 37 callgsubr
          -405 25 callsubr
          -1 -10 rlineto
          31 callgsubr
          13 hhcurveto
          endchar
        </CharString>
        <CharString name="eng">
          -212 72 596 73 hstem
          87 85 153 88 vstem
          241 -212 rmoveto
          42 69 21 111 12 hvcurveto
          49 453 rlineto
          -93 callsubr
          -44 -437 rlineto
          -55 -6 -19 -13 89 callgsubr
          endchar
        </CharString>
        <CharString name="eogonek">
          -44 -147 63 78 -3 callsubr
          hstemhm
          48 87 142 61 2 86 hintmask 00000000
          hintmask 11111100
          428 -77 rmoveto
          12 callsubr
          19 7 29 16 28 hvcurveto
          7 7 rlineto
          13 15 4 20 17 vvcurveto
          44 callgsubr
          7 callsubr
          hintmask 11111010
          127 97 60 123 51 -33 82 -107 -164 -74 -151 -184 -173 106 -27 83 hvcurveto
          hintmask 11111100
          14 18 2 5 20 hvcurveto
          -9 -23 -3 -22 -15 -52 callgsubr
          hintmask 11111010
          -151 534 -18 callsubr
        </CharString>
        <CharString name="equal">
          132 callsubr
          62 271 rmoveto
          328 hlineto
          16 119 callgsubr
          -16 hhcurveto
          -328 52 callgsubr
          -7 87 callgsubr
          -17 -164 rmoveto
          328 100 callgsubr
          -328 52 callgsubr
          -8 87 callgsubr
          endchar
        </CharString>
        <CharString name="estimated">
          117 -7 55 307 50 252 50 hstem
          22 119 337 115 vstem
          141 355 rmoveto
          452 hlineto
          227 -127 125 -154 -159 -131 -125 -227 -232 135 -130 163 81 77 39 65 55 vhcurveto
          6 8 4 7 6 vvcurveto
          12 -13 16 -18 -8 -7 -6 -9 -6 vhcurveto
          -52 -38 -73 -31 -60 hhcurveto
          -72 -63 28 57 -44 hvcurveto
          171 524 rmoveto
          64 59 -29 -55 43 hvcurveto
          -168 -337 168 vlineto
          55 42 61 29 68 hhcurveto
          endchar
        </CharString>
        <CharString name="eth">
          -21 -6 72 388 72 69 50 -23 49 hstemhm
          43.99 87.59 213.73 87.83 hintmask 11011100
          442 639 rmoveto
          5 -3 27 -19 -4 -48 -7 -4 -27 vhcurveto
          hintmask 11101100
          -11 18 -9 12 -9 12 rrcurveto
          7 -5 -7 5 -12 hhcurveto
          -11 -10 -1 -1 -7 hvcurveto
          -11 -2 -5 -5 -1 -7 -1 -10 9 -16 13 -22 -73 -10 rcurveline
          -10 -2 -6 -4 -1 -7 rrcurveto
          -14 -1 10 -18 14 hhcurveto
          2 2 1 11 83 hvcurveto
          15 -29 15 -33 8 -32 rrcurveto
          9 -18 -20 4 -28 hhcurveto
          -121 -70 -96 -171 -18 hvcurveto
          -172 -18 63 -93 120 hhcurveto
          131 69 93 173 18 hvcurveto
          hintmask 11011100
          13 128 -24 112 -55 118 61 8 rcurveline
          10 1 6 5 1 7 rrcurveto
          -100 -378 rmoveto
          -133 -14 -40 -62 -71 hhcurveto
          -71 -25 62 133 14 hvcurveto
          132 14 38 61 71 hhcurveto
          71 27 -62 -131 -14 hvcurveto
          endchar
        </CharString>
        <CharString name="exclam">
          -252 -2 110 594 -20 hstem
          46.5 94 vstem
          105 202 rmoveto
          8 hlineto
          23 8 30 callsubr
          25 152 26 152 25 152 rrcurveto
          14 1 -11 8 -25 hhcurveto
          -23 22 callgsubr
          -456 rlineto
          -14 -1 7 -8 23 hhcurveto
          -27 -204 rmoveto
          -44 callsubr
          endchar
        </CharString>
        <CharString name="exclamdown">
          -252 415 110 hstem
          110.5 94 vstem
          143 5 callsubr
          -79 -594 rmoveto
          23 -56 callgsubr
          48 456 rlineto
          14 1 -6 8 -23 hhcurveto
          -9 hlineto
          -23 -7 -8 -14 -2 hvcurveto
          -27 -152 -47 -279 -3 -25 rrcurveto
          -14 -1 11 -8 25 hhcurveto
          endchar
        </CharString>
        <CharString name="f">
          -212 104 callsubr
          106 callsubr
          vstem
          105 -2 rmoveto
          28 callsubr
          67 63 callgsubr
          2 -5 9 -14 hhcurveto
          -67 hlineto
          -64 callsubr
          92 callsubr
          endchar
        </CharString>
        <CharString name="f_f">
          74 104 callsubr
          106 callsubr
          202 84 vstem
          545 756 rmoveto
          -42 -74 -17 -110 -12 hvcurveto
          -11 -106 rlineto
          -202 hlineto
          -64 callsubr
          92 callsubr
          28 callsubr
          202 hlineto
          -46 -431 rlineto
          92 callsubr
          28 callsubr
          67 63 callgsubr
          2 -5 9 -14 hhcurveto
          -67 hlineto
          11 98 rlineto
          56 6 19 7 22 22 6 -6 8 hhcurveto
          15 11 39 8 1 hvcurveto
          21 2 -38 10 -30 hhcurveto
          endchar
        </CharString>
        <CharString name="f_t">
          86 129 callsubr
          161 72 hstemhm
          106 callsubr
          152.5 83 -36 89 hintmask 00000000
          hintmask 11110100
          523 451 rmoveto
          -48 callsubr
          -36 hlineto
          -1 hlineto
          -162 hlineto
          -64 callsubr
          92 callsubr
          28 callsubr
          hintmask 11111000
          198 hlineto
          -23 -221 -10 -98 -26 70 callsubr
          64 13 93 21 185 hvcurveto
          endchar
        </CharString>
        <CharString name="fi">
          42 -3 72 382 72 84 95 -18 72 hstemhm
          106 callsubr
          142.5 80 -32.5 90 hintmask 11011100
          483 74 rmoveto
          -23 callgsubr
          -11 11 46 5 hvcurveto
          13 126 14 125 13 126 rrcurveto
          15 -10 5 -28 vhcurveto
          -230 hlineto
          -64 callsubr
          92 callsubr
          28 callsubr
          185 hlineto
          -7 -60 -10 -97 -9 -88 -3 -32 -2 -32 -3 -32 rrcurveto
          -103 -9 52 -10 37 hhcurveto
          63 callsubr
          hhcurveto
          hintmask 11101010
          -45 533 -107 callsubr
          endchar
        </CharString>
        <CharString name="five">
          -39 -6 72 284 72 206 72 hstem
          12 413.15 vstem
          172 -6 rmoveto
          101 118 47 169 18 hvcurveto
          167 17 -117 45 -98 hhcurveto
          -44 hlineto
          35 206 rlineto
          199 hlineto
          14 6 9 21 3 13 callgsubr
          -14 hhcurveto
          -248 hlineto
          -21 -11 -9 -21 -3 hvcurveto
          -48 -290 rlineto
          31 callgsubr
          22 hhcurveto
          75 hlineto
          104 51 -47 -91 -9 hvcurveto
          -97 -10 -69 -49 -68 -74 -34 38 -16 hhcurveto
          -11 -27 -31 -19 -2 hvcurveto
          -25 -2 64 -35 98 hhcurveto
          endchar
        </CharString>
        <CharString name="fl">
          58 129 callsubr
          161 72 -4 -20 hstemhm
          106 callsubr
          140.5 157.87 hintmask 11011100
          105 -2 rmoveto
          28 callsubr
          67 63 callgsubr
          2 -5 9 -14 hhcurveto
          -67 hlineto
          hintmask 11101100
          -64 callsubr
          hintmask 11011100
          92 callsubr
          338 -4 20 callsubr
        </CharString>
        <CharString name="florin">
          -169 104 callsubr
          15 331 vstem
          276 756 rmoveto
          -53 -80 -16 -116 -15 hvcurveto
          -13 -101 rlineto
          -40 hlineto
          -24 -3 -34 -11 -16 1 -11 15 hvcurveto
          40 hlineto
          -89 -637 rlineto
          -15 9 -7 28 vhcurveto
          4 hlineto
          26 15 7 15 2 hvcurveto
          89 637 rlineto
          66 hlineto
          38 9 49 4 14 -3 5 -12 hvcurveto
          -87 hlineto
          12 91 rlineto
          60 8 23 10 31 30 11 -7 4 hhcurveto
          12 16 39 10 29 -53 1 -17 hvcurveto
          endchar
        </CharString>
        <CharString name="four">
          -39 167 72 463 -20 hstem
          9 429.73 vstem
          287 -2 rmoveto
          23 hlineto
          21 10 30 callsubr
          15 147 rlineto
          56 63 callgsubr
          3 -5 9 -14 hhcurveto
          -56 hlineto
          46 441 rlineto
          14 1 -8 8 -21 hhcurveto
          -20 hlineto
          -14 -14 -4 -9 -7 hvcurveto
          -316 -460 -2 -3 -1 -3 -1 -5 rlinecurve
          -19 -2 10 -32 11 hhcurveto
          247 hlineto
          -15 -147 rlineto
          -14 -2 8 -8 21 hhcurveto
          -185 241 rmoveto
          220 324 3 -2 -8 -32 -7 -31 -6 -59 rlinecurve
          -21 -200 rlineto
          endchar
        </CharString>
        <CharString name="fraction">
          -234 701 -20 hstem
          -119 512 vstem
          380 701 rmoveto
          -25 hlineto
          -14 -9 -7 -12 -8 hvcurveto
          -439 -665 rlineto
          -3 -4 -1 -4 -3 vvcurveto
          -4 4 -4 9 vhcurveto
          25 hlineto
          14 9 7 12 8 hvcurveto
          439 665 rlineto
          3 4 1 4 2 vvcurveto
          5 -4 4 -9 vhcurveto
          endchar
        </CharString>
        <CharString name="g">
          71 callsubr
          hintmask 00000000
          hintmask 11011000
          403 525 rmoveto
          -6 hlineto
          -28 -7 -21 -29 -10 hvcurveto
          hintmask 11101000
          23 -18 -34 31 -54 hhcurveto
          -105 -77 -102 -164 -17 hvcurveto
          -130 -14 29 -133 113 hhcurveto
          44 46 21 61 35 hvcurveto
          -2 -15 rlineto
          -152 -16 -36 -55 -76 -76 -36 44 -11 hhcurveto
          -14 -7 -42 -13 6 hvcurveto
          -24 11 48 -37 84 hhcurveto
          118 67 73 221 23 hvcurveto
          hintmask 11011000
          45 422 rlineto
          13 -5 8 -20 vhcurveto
          -74 -158 rmoveto
          -18 -169 rlineto
          hintmask 11101000
          -98 -30 -49 -27 -32 hhcurveto
          -70 -7 96 98 10 hvcurveto
          110 12 32 79 81 hhcurveto
          40 24 -23 -16 15 hvcurveto
          hintmask 11011000
          -3 -16 -3 -16 -2 -18 rrcurveto
          endchar
        </CharString>
        <CharString name="g.ss01">
          48 callsubr
          77 callgsubr
          hintmask 1100100010000000
          181 -212 rmoveto
          hintmask 1100001100000000
          -11 callsubr
          hintmask 1100100010000000
          -39 callgsubr
          hintmask 1001010010000000
          7 callgsubr
          hintmask 1100001010000000
          25 callgsubr
          hintmask 1100100010000000
          51 callsubr
          hintmask 1010010010000000
          -18 callgsubr
          hintmask 1100100100000000
          -25 callgsubr
        </CharString>
        <CharString name="gbreve">
          78 callgsubr
          80 66 83 callsubr
          hintmask 11101100
          258 -85 callsubr
          hintmask 11011100
          145 -60 -69 callsubr
        </CharString>
        <CharString name="gbreve.ss01">
          48 callsubr
          56 66 77 callgsubr
          hintmask 1100110001000000
          277 -85 callsubr
          -96 -797 -59 callsubr
        </CharString>
        <CharString name="gcircumflex">
          78 callgsubr
          71 142 83 callsubr
          hintmask 11101100
          165 -104 callsubr
          hintmask 11011100
          238 -51 -69 callsubr
        </CharString>
        <CharString name="gcircumflex.ss01">
          48 callsubr
          47 142 77 callgsubr
          hintmask 1100110001000000
          184 -104 callsubr
          -3 -788 -59 callsubr
        </CharString>
        <CharString name="gcommaaccent">
          71 callsubr
          87.6 83 hintmask 11101100
          252 585 rmoveto
          57 callsubr
          -27 -57 -60 -96 -17 12 -11 23 vhcurveto
          hintmask 11011100
          151 -60 -69 callsubr
        </CharString>
        <CharString name="gcommaaccent.ss01">
          48 callsubr
          hstemhm
          18 72 -6 74 -72 67 83 83 -6 77 -51 73 hintmask 1100100100000000
          320 769 rmoveto
          -27 -57 -60 -96 -17 12 -11 23 hvcurveto
          57 callsubr
          vhcurveto
          -139 -981 rmoveto
          hintmask 1100001010000000
          -11 callsubr
          hintmask 1100100101000000
          -39 callgsubr
          hintmask 1001010100000000
          7 callgsubr
          hintmask 1100001100000000
          25 callgsubr
          hintmask 1100100100000000
          51 callsubr
          hintmask 1010010101000000
          -18 callgsubr
          hintmask 1100100010000000
          -25 callgsubr
        </CharString>
        <CharString name="gdotaccent">
          78 callgsubr
          102 95 83 callsubr
          90.1 90 hintmask 11101110
          258 -86 callsubr
          hintmask 11011110
          145 -82 rmoveto
          -6 hlineto
          -28 -7 -21 -29 -10 hvcurveto
          hintmask 11101110
          23 -18 -34 31 -54 hhcurveto
          -105 -77 -102 -164 -17 hvcurveto
          -130 -14 29 -133 113 hhcurveto
          44 46 21 61 35 hvcurveto
          -2 -15 rlineto
          -152 -16 -36 -55 -76 -76 -36 44 -11 hhcurveto
          -14 -7 -42 -13 6 hvcurveto
          -24 11 48 -37 84 hhcurveto
          118 67 73 221 23 hvcurveto
          hintmask 11011110
          45 422 rlineto
          13 -5 8 -20 vhcurveto
          -74 -158 rmoveto
          -18 -169 rlineto
          hintmask 11101110
          -98 -30 -49 -27 -32 hhcurveto
          -70 -7 96 98 10 hvcurveto
          110 12 32 79 81 hhcurveto
          40 24 -23 -16 15 hvcurveto
          hintmask 11011110
          -3 -16 -3 -16 -2 -18 rrcurveto
          endchar
        </CharString>
        <CharString name="gdotaccent.ss01">
          48 callsubr
          78 95 hstemhm
          18 72 -6 74 -72 67 85.5 90 -15.5 77 -51 73 hintmask 0000000000000000
          hintmask 1100110010100000
          277 -86 callsubr
          -96 -819 rmoveto
          hintmask 1100100101000000
          -11 callsubr
          hintmask 1100110000100000
          -39 callgsubr
          hintmask 1001101000100000
          7 callgsubr
          hintmask 1100100100100000
          25 callgsubr
          hintmask 1100110000100000
          -50 -25 -35 -42 -6 -59 rrcurveto
          hintmask 1100110010100000
          -92 -9 80 -32 92 hhcurveto
          hintmask 1010101000100000
          -18 callgsubr
          hintmask 1100110001000000
          -25 callgsubr
        </CharString>
        <CharString name="germandbls">
          -18 0 72 268 72 222 72 hstemhm
          341 88 -76 90 hintmask 11101000
          90 -2 rmoveto
          11 hlineto
          26 44 callsubr
          53 512 rlineto
          65 7 32 37 51 hhcurveto
          42 35 -23 -78 -8 hvcurveto
          -73 -8 -44 -48 -46 hhcurveto
          -6 hlineto
          -12 -7 -49 callgsubr
          -2 -12 rlineto
          hintmask 11110000
          31 callgsubr
          13 hhcurveto
          17 hlineto
          55 36 -50 -85 -9 hvcurveto
          -84 -9 -45 -49 -52 hhcurveto
          -21 25 callsubr
          -1 -12 rlineto
          -21 -3 6 -9 13 hhcurveto
          23 hlineto
          104 81 73 131 14 hvcurveto
          9 89 -27 71 -70 20 rrcurveto
          3 vlineto
          hintmask 11101000
          55 25 40 61 7 68 rrcurveto
          122 13 -75 43 -86 hhcurveto
          -109 -67 -72 -102 -11 hvcurveto
          -53 -512 -31 callgsubr
          endchar
        </CharString>
        <CharString name="grave">
          -242 110 callsubr
          53 147 vstem
          179 585 -99 callgsubr
          endchar
        </CharString>
        <CharString name="gravecomb">
          -498 110 callsubr
          -102 147 vstem
          24 585 -99 callgsubr
          endchar
        </CharString>
        <CharString name="greater">
          -50 5.99 441.17 hstem
          11 399 vstem
          11 32 rmoveto
          -2 -20 8 -12 18 9 350 174 rcurveline
          16 8 7 10 1 17 1 17 rcurveline
          1 17 -3 11 -14 7 -313 174 rcurveline
          -17 9 -8 -11 -3 -21 -2 -14 rcurveline
          -1 -17 4 -11 14 -8 255 -142 rcurveline
          -286 -143 -15 -8 -8 -15 -2 -17 rlinecurve
          endchar
        </CharString>
        <CharString name="greaterequal">
          -45 0 73 hstem
          13 410.01 vstem
          23 137 rmoveto
          -4 -29 8 -4 20 10 350 174 rcurveline
          15 8 8 10 1 17 2 17 rcurveline
          2 17 -6 11 -13 7 -311 173 rcurveline
          -19 10 -6 -6 -4 -26 -2 -14 rcurveline
          -2 -17 4 -11 14 -8 250 -144 rcurveline
          -281 -145 -15 -8 -7 -11 -2 -17 rlinecurve
          9 -151 41 callgsubr
        </CharString>
        <CharString name="guillemotleft">
          -27 61 393 hstem
          43.22 381.78 vstem
          119 255 rmoveto
          94 callgsubr
          40 callgsubr
          197 345 rmoveto
          40 callgsubr
          -80 146 94 callgsubr
          endchar
        </CharString>
        <CharString name="guillemotright">
          -27 61 393 hstem
          60 381.76 vstem
          262 285 rmoveto
          16 callgsubr
          172 hmoveto
          16 callgsubr
          endchar
        </CharString>
        <CharString name="guilsinglleft">
          -251 62 392 hstem
          32 190 vstem
          145 62 rmoveto
          13 28 15 15 1 hvcurveto
          1 6 -2 7 -4 6 -76 147 rcurveline
          107 146 5 7 3 7 1 6 rlinecurve
          17 2 -26 13 -12 hhcurveto
          -7 -7 -3 -9 -7 hvcurveto
          -119 -156 -9 -11 -4 -8 -1 -9 rlinecurve
          -1 -9 3 -8 6 -11 86 -156 rcurveline
          -9 5 7 -3 7 hhcurveto
          endchar
        </CharString>
        <CharString name="guilsinglright">
          -251 62 392 hstem
          35 191 vstem
          72 62 rmoveto
          6 7 3 9 7 hvcurveto
          120 156 8 11 5 8 1 9 rlinecurve
          1 9 -4 8 -5 11 -87 156 rcurveline
          9 -5 -7 3 -6 hhcurveto
          -12 -29 -13 -17 -2 hvcurveto
          -1 -6 3 -7 3 -7 78 -146 rcurveline
          -109 -147 -4 -6 -4 -7 -1 -6 rlinecurve
          -15 -1 24 -15 14 hhcurveto
          endchar
        </CharString>
        <CharString name="h">
          -13 -3 72 387 73 223 -20 hstemhm
          302 87 -60 87 hintmask 11110000
          386 -3 76 callsubr
          hintmask 11101000
          -35 callgsubr
          hintmask 11110000
          45 callsubr
          vhcurveto
          endchar
        </CharString>
        <CharString name="hbar">
          -13 -3 72 387 73 69 70 84 -20 hstemhm
          114 86 102 87 -60 87 hintmask 11111100
          441 74 rmoveto
          -26 callgsubr
          9 30 1 hvcurveto
          hintmask 11111010
          17 22 205 5 43 vhcurveto
          112 12 -57 44 -67 hhcurveto
          -52 -46 -28 -39 -31 hvcurveto
          14 136 rlineto
          76 hlineto
          14 6 -59 callgsubr
          1 10 75 callgsubr
          -75 hlineto
          6 62 rlineto
          14 2 23 callsubr
          -2 hvcurveto
          -6 -62 rlineto
          -38 25 callsubr
          -1 -10 rlineto
          31 callgsubr
          13 hhcurveto
          37 hlineto
          -60 -578 -31 callgsubr
          10 26 callgsubr
          38 366 rlineto
          23 10 40 47 51 hhcurveto
          48 19 -34 -57 -6 hvcurveto
          hintmask 11111100
          45 callsubr
          41 24 16 40 11 -3 10 -7 vhcurveto
          endchar
        </CharString>
        <CharString name="hcircumflex">
          -13 456 73 223 -20 51 142 hstemhm
          302 87 -60 87 hintmask 11110000
          75 783 -107 callgsubr
          311 -786 76 callsubr
          hintmask 11101000
          -35 callgsubr
          hintmask 11110000
          45 callsubr
          vhcurveto
          endchar
        </CharString>
        <CharString name="hookabovecomb">
          -498 699 51 hstem
          -204 62 vstem
          -233 563 -91 callgsubr
          endchar
        </CharString>
        <CharString name="hungarumlaut">
          -191 110 callsubr
          28 275 vstem
          49 585 -78 callgsubr
          endchar
        </CharString>
        <CharString name="hyphen">
          16 callsubr
        </CharString>
        <CharString name="i">
          -244 -3 79 callgsubr
          -32.5 90 hintmask 00000000
          hintmask 11101000
          152 -86 callsubr
          hintmask 11110000
          -10 -610 -100 callsubr
          endchar
        </CharString>
        <CharString name="i.loclTRK">
          -244 -3 79 callgsubr
          -30.5 90 hintmask 00000000
          hintmask 11101000
          154 -86 callsubr
          hintmask 11110000
          -12 -610 -100 callsubr
          endchar
        </CharString>
        <CharString name="iacute">
          124 callgsubr
          131 585 rmoveto
          -106 callsubr
          11 -588 -100 callsubr
          endchar
        </CharString>
        <CharString name="iacute_j.loclNLD">
          5 -212 72 137 72 456 -20 hstem
          66 80 vstem
          131 585 rmoveto
          -106 callsubr
          256 hmoveto
          -106 callsubr
          -245 -588 -100 callsubr
          116 -209 -79 callgsubr
        </CharString>
        <CharString name="ibreve">
          56 callgsubr
          80 66 hstem
          66 80 vstem
          154 -85 callsubr
          -12 -588 -100 callsubr
          endchar
        </CharString>
        <CharString name="icircumflex">
          56 callgsubr
          71 142 hstem
          66 80 vstem
          61 -104 callsubr
          81 -579 -100 callsubr
          endchar
        </CharString>
        <CharString name="idieresis">
          56 callgsubr
          102 95 hstemhm
          58.5 78 -70.5 80 38.5 78 hintmask 00000000
          hintmask 11110100
          91 607 -102 callsubr
          hintmask 11101100
          -75 -610 -100 callsubr
          endchar
        </CharString>
        <CharString name="igrave">
          124 callgsubr
          164 585 -99 callgsubr
          -22 -588 -100 callsubr
          endchar
        </CharString>
        <CharString name="ij">
          5 -212 72 137 79 callgsubr
          -32.5 90 166 90 hintmask 00000000
          hintmask 10110110
          152 -86 callsubr
          256 hmoveto
          33 14 9 13 -17 callgsubr
          51 rlineto
          14 1 -13 8 -30 hhcurveto
          -33 -14 -9 -13 -88 callgsubr
          12 -8 31 hhcurveto
          hintmask 11111010
          -266 -610 -100 callsubr
          116 -209 -79 callgsubr
        </CharString>
        <CharString name="imacron">
          56 callgsubr
          107 70 hstem
          66 80 vstem
          56 612 -88 callsubr
          86 -615 -100 callsubr
          endchar
        </CharString>
        <CharString name="infinity">
          132 115 57 -57 60 209 60 -57 57 hstemhm
          41 69 415 69 hintmask 01101100
          477 444 rmoveto
          -73 -50 -57 -57 -29 hvcurveto
          hintmask 01011100
          82 -24 -42 32 -57 hhcurveto
          -84 -67 -69 -98 -10 hvcurveto
          -93 -10 47 -69 80 hhcurveto
          73 50 57 57 29 hvcurveto
          hintmask 10101100
          -82 24 42 -32 57 hhcurveto
          84 67 69 98 10 hvcurveto
          hintmask 01101100
          93 10 -47 69 -80 hhcurveto
          -306 -269 rmoveto
          -46 -21 46 58 6 hvcurveto
          hintmask 01011100
          61 6 34 47 45 hhcurveto
          39 31 -35 -76 16 hvcurveto
          hintmask 01101100
          -41 -20 -38 -60 -52 hhcurveto
          354 105 rmoveto
          hintmask 10101100
          -61 -6 -34 -47 -45 hhcurveto
          -39 -31 35 76 -16 hvcurveto
          41 20 38 60 52 hhcurveto
          hintmask 01101100
          46 21 -46 -58 -6 hvcurveto
          endchar
        </CharString>
        <CharString name="integral">
          -200 -159 58 914 58 hstem
          -38 396 vstem
          23 -159 rmoveto
          83 53 74 178 18 hvcurveto
          17 163 10 198 17 158 rrcurveto
          141 15 25 60 47 15 10 -6 3 hhcurveto
          10 9 11 20 3 hvcurveto
          27 2 -40 6 -23 hhcurveto
          -83 -53 -74 -178 -18 hvcurveto
          -17 -159 -10 -196 -17 -164 rrcurveto
          -141 -15 -25 -60 -47 -16 -9 6 -3 hhcurveto
          -10 -10 -11 -20 -2 hvcurveto
          -27 -3 41 -6 23 hhcurveto
          endchar
        </CharString>
        <CharString name="iogonek">
          -244 -177 63 639 -20 102 95 hstemhm
          66 80 -46 61 -47.5 90 hintmask 00000000
          hintmask 11100100
          152 -86 callsubr
          hintmask 11101000
          99 -714 rmoveto
          12 callsubr
          19 7 30 17 29 hvcurveto
          hintmask 11110000
          7 4 6 5 3 7 rrcurveto
          22 callsubr
          -23 callgsubr
          -11 11 46 5 hvcurveto
          13 126 14 125 13 126 rrcurveto
          52 callsubr
          -14 -6 -16 -2 hvcurveto
          -2 -18 -174 -123 -12 hvcurveto
          -3 -32 -2 -32 -3 -32 rrcurveto
          hintmask 11101000
          -8 -87 37 -21 33 -4 rrcurveto
          -18 -32 -6 -34 -21 -52 callgsubr
          endchar
        </CharString>
        <CharString name="itilde">
          56 callgsubr
          86 97 callsubr
          66 80 hintmask 00000000
          hintmask 11011000
          33 592 47 callsubr
          hintmask 11101000
          -48 callgsubr
          hintmask 11011000
          -1 callsubr
          118 -599 -100 callsubr
          endchar
        </CharString>
        <CharString name="j">
          117 callgsubr
          102 95 hstem
          115.5 90 vstem
          154 -7 callgsubr
        </CharString>
        <CharString name="jcircumflex">
          117 callgsubr
          71 142 hstem
          -63 326 vstem
          63 -104 callsubr
          -59 -788 -79 callgsubr
        </CharString>
        <CharString name="k">
          125 callgsubr
          68 384 -21 callsubr
          endchar
        </CharString>
        <CharString name="kcommaaccent">
          125 callgsubr
          175 83 -21 callsubr
          -198 -576 rmoveto
          -10 hlineto
          -26 -12 -13 -19 hvcurveto
          -76 -29 -38 -23 vvcurveto
          -12 17 -3 11 27 57 60 96 17 -12 11 -23 vhcurveto
          endchar
        </CharString>
        <CharString name="kgreenlandic">
          37 525 -20 21 -20 hstemhm
          61 432 hintmask 01100000
          158 526 rmoveto
          -4 hlineto
          -29 -12 130 callgsubr
          -484 rlineto
          -14 9 -8 29 vhcurveto
          4 hlineto
          28 44 callsubr
          75 callsubr
          4 hlineto
          196 -237 rlineto
          -12 9 22 -1 22 hhcurveto
          4 hlineto
          33 12 3 13 3 -2 4 -5 7 hvcurveto
          -201 244 rlineto
          hintmask 10100000
          218 220 rlineto
          8 8 4 8 5 vvcurveto
          6 -11 6 -23 vhcurveto
          -4 hlineto
          -22 -22 -3 -11 -10 hvcurveto
          -224 -228 rlineto
          -4 hlineto
          hintmask 01100000
          23 221 rlineto
          14 -9 8 -29 vhcurveto
          endchar
        </CharString>
        <CharString name="l">
          103 callgsubr
          157 -6 20 callsubr
        </CharString>
        <CharString name="lacute">
          103 callgsubr
          155 782 rmoveto
          -106 callsubr
          2 -788 20 callsubr
        </CharString>
        <CharString name="lcaron">
          -228 -6 72 636 -20 70 -20 hstem
          79 callsubr
          46.13 89 vstem
          157 -6 -74 callsubr
          127 534 rmoveto
          1 callsubr
          -12 18 -3 11 vhcurveto
          endchar
        </CharString>
        <CharString name="lcommaaccent">
          -228 -6 72 686 -20 hstemhm
          79 callsubr
          -139.87 83 hintmask 00000000
          hintmask 11100000
          157 -6 -74 callsubr
          hintmask 11010000
          -76 -229 -77 callsubr
          endchar
        </CharString>
        <CharString name="ldot">
          -228 -6 72 243 103 340 -20 hstemhm
          79 callsubr
          -17.87 99 hintmask 11110000
          157 -6 -74 callsubr
          hintmask 11101000
          91 315 28 callgsubr
        </CharString>
        <CharString name="less">
          -50 6.85 441.59 hstem
          27.96 400.04 vstem
          359 10 rmoveto
          17 -9 9 11 2 21 1 14 rcurveline
          2 17 -5 11 -13 8 -252 145 rcurveline
          282 144 14 8 9 11 1 17 rlinecurve
          2 14 2 23 -8 9 -19 -9 rlinecurve
          -350 -174 -14 -7 -8 -11 -2 -17 rlinecurve
          -1 -17 -2 -17 6 -11 12 -7 rlinecurve
          endchar
        </CharString>
        <CharString name="lessequal">
          -45 0 73 hstem
          11 430 vstem
          372 114 rmoveto
          17 -9 10 12 2 20 1 14 rcurveline
          2 17 -6 11 -13 8 -251 145 rcurveline
          282 144 14 8 8 11 1 17 rlinecurve
          2 14 3 23 -10 9 -17 -9 rlinecurve
          -349 -174 -15 -7 -7 -11 -2 -17 rlinecurve
          -2 -17 -1 -17 5 -11 13 -7 rlinecurve
          -27 -288 41 callgsubr
        </CharString>
        <CharString name="logicalnot">
          -49 265 73 hstem
          31.25 393.75 vstem
          351 77 rmoveto
          23 hlineto
          19 8 30 callsubr
          22 209 rlineto
          21 2 -7 9 -19 hhcurveto
          -346 25 callsubr
          -1 -13 rlineto
          -21 -3 5 -9 13 hhcurveto
          297 hlineto
          -17 -166 rlineto
          -14 -2 8 -8 18 hhcurveto
          endchar
        </CharString>
        <CharString name="longs">
          -225 104 callsubr
          64.83 258.17 vstem
          103 -2 rmoveto
          4 127 callsubr
          63 601 rlineto
          56 6 19 7 22 22 6 -6 8 hhcurveto
          15 11 39 8 1 hvcurveto
          21 2 -38 10 -30 hhcurveto
          -42 -74 -17 -110 -11 hvcurveto
          -12 -106 rlineto
          -29 hlineto
          -14 -6 -9 -21 -3 hvcurveto
          -1 -12 rlineto
          31 callgsubr
          14 hhcurveto
          29 hlineto
          -45 -431 rlineto
          -14 -2 102 callsubr
          endchar
        </CharString>
        <CharString name="lozenge">
          -52 -25 744 hstem
          49 370 vstem
          416 367 rmoveto
          -102 331 rlineto
          15 -5 -11 6 -18 hhcurveto
          -14 hlineto
          -17 -14 -6 -15 -6 hvcurveto
          -173 -331 -5 -7 -1 -6 -1 -7 rlinecurve
          -1 -6 1 -7 3 -7 101 -331 rcurveline
          -15 5 11 -6 17 hhcurveto
          17 hlineto
          18 13 6 15 7 hvcurveto
          171 330 4 8 2 6 1 7 rlinecurve
          1 7 -2 6 -2 7 rrcurveto
          -211 -305 rmoveto
          -80 285 140 281 77 -281 rlineto
          endchar
        </CharString>
        <CharString name="lslash">
          103 callgsubr
          237 476 rmoveto
          -3 -3 -2 -2 -4 hvcurveto
          -44 -26 30 284 43 callsubr
          -28 hhcurveto
          -4 86 callsubr
          -36 -337 -32 -19 82 callsubr
          27 16 -24 -229 rlineto
          -102 -11 63 -19 41 hhcurveto
          63 callsubr
          -7 -6 -5 -19 hhcurveto
          -20 -16 11 46 5 hvcurveto
          29 274 49 29 115 callsubr
          vhcurveto
          endchar
        </CharString>
        <CharString name="m">
          222 -3 72 387 73 hstemhm
          87 85 365 87 -61 87 hintmask 11110000
          676 95 callsubr
          31 1 hvcurveto
          hintmask 11101000
          16 16 140 10 103 vhcurveto
          117 11 -52 45 -65 hhcurveto
          -51 -49 -31 -46 -35 hvcurveto
          56 -15 -44 21 -47 hhcurveto
          -53 -47 -32 -43 -31 hvcurveto
          32 -3 3 36 -25 hhcurveto
          -11 -47 -5 -18 -2 hvcurveto
          -1 -6 6 -38 72 callsubr
          10 -8 26 hhcurveto
          11 hlineto
          27 12 73 callsubr
          23 8 39 47 49 hhcurveto
          47 18 -36 -61 -6 hvcurveto
          -36 -339 -61 callsubr
          11 85 callgsubr
          40 366 rlineto
          32 15 37 38 41 hhcurveto
          43 17 -36 -61 -6 hvcurveto
          hintmask 11110000
          -21 -200 -5 -45 -21 vvcurveto
          -80 1 49 -16 34 hhcurveto
          41 24 16 40 11 -3 10 -7 hvcurveto
          -267 292 rmoveto
          1 vlineto
          endchar
        </CharString>
        <CharString name="macron">
          -243 612 67 callsubr
          612 -88 callsubr
          endchar
        </CharString>
        <CharString name="minus">
          -49 186 73 hstem
          22.82 395.49 vstem
          39 186 rmoveto
          355 90 callsubr
          13 75 callgsubr
          -355 25 callsubr
          -2 -13 rlineto
          31 callgsubr
          13 hhcurveto
          endchar
        </CharString>
        <CharString name="multiply">
          -50 1 452 hstem
          13.75 404.12 vstem
          411 430 rmoveto
          -16 15 -9 8 -9 5 -12 -12 rlinecurve
          -146 -172 -112 172 -9 14 -11 -9 -9 -6 rlinecurve
          -19 -15 -13 -10 6 -9 8 -13 rlinecurve
          112 -171 -148 -171 -11 -13 -4 -9 11 -10 rlinecurve
          16 -15 8 -6 9 -9 12 14 rlinecurve
          143 166 106 -166 9 -12 11 5 10 8 rlinecurve
          19 15 12 9 -1 6 -12 17 rlinecurve
          -107 165 151 177 15 17 0 6 -10 9 rlinecurve
          endchar
        </CharString>
        <CharString name="n">
          96 callgsubr
          61 callsubr
          hintmask 11110000
          437 71 2 callgsubr
          hintmask 11101000
          12 5 49 23 208 vhcurveto
          -93 callsubr
          hintmask 11110000
          -45 callsubr
          endchar
        </CharString>
        <CharString name="nacute">
          96 callgsubr
          61 callsubr
          hintmask 11110000
          255 585 rmoveto
          -106 callsubr
          182 -514 2 callgsubr
          hintmask 11101000
          12 5 49 23 208 vhcurveto
          -93 callsubr
          hintmask 11110000
          -45 callsubr
          endchar
        </CharString>
        <CharString name="nacute.loclPLK">
          96 callgsubr
          56 147 61 callsubr
          hintmask 11111000
          263 585 -76 callsubr
          174 -514 2 callgsubr
          hintmask 11110100
          12 5 49 23 208 vhcurveto
          -93 callsubr
          hintmask 11111000
          -45 callsubr
          endchar
        </CharString>
        <CharString name="napostrophe">
          96 callgsubr
          hstemhm
          49 83 -45 85 126 87 -60 88 hintmask 11101000
          48 537 -77 callsubr
          389 -466 2 callgsubr
          hintmask 11010100
          12 5 49 23 208 vhcurveto
          -93 callsubr
          hintmask 11101000
          -45 callsubr
          endchar
        </CharString>
        <CharString name="ncaron">
          96 callgsubr
          54 142 61 callsubr
          hintmask 11111000
          270 583 -105 callsubr
          167 -512 2 callgsubr
          hintmask 11110100
          12 5 49 23 208 vhcurveto
          -93 callsubr
          hintmask 11111000
          -45 callsubr
          endchar
        </CharString>
        <CharString name="ncommaaccent">
          96 callgsubr
          hstemhm
          87 85 5 83 38 87 -60 88 hintmask 11011000
          437 71 2 callgsubr
          hintmask 11100100
          12 5 49 23 208 vhcurveto
          -93 callsubr
          hintmask 11011000
          -45 callsubr
          -261 -306 -77 callsubr
          endchar
        </CharString>
        <CharString name="nine">
          -39 293 72 266 72 hstem
          61 86 212.19 83.56 vstem
          79 -4 rmoveto
          64 266 163 296 31 hvcurveto
          152 16 -53 96 -126 hhcurveto
          -109 -93 -80 -129 -14 hvcurveto
          -121 -12 62 -80 97 hhcurveto
          47 41 14 19 30 hvcurveto
          -43 -113 -85 -97 -137 -56 rrcurveto
          -7 -3 -2 -5 -3 vvcurveto
          -12 -2 8 -41 21 hhcurveto
          164 369 rmoveto
          -56 -50 37 96 10 hvcurveto
          93 10 62 40 48 hhcurveto
          50 54 -32 -141 -14 hvcurveto
          -2 -20 -4 -20 -4 -20 rrcurveto
          -15 -24 -39 -18 -41 hhcurveto
          endchar
        </CharString>
        <CharString name="notequal">
          132 callsubr
          397 338 rmoveto
          -66 hlineto
          41 63 rlineto
          19 12 -1 12 -32 hhcurveto
          -6 hlineto
          -18 -7 -8 -12 -8 hvcurveto
          -48 -74 rlineto
          -195 52 callgsubr
          -7 87 callgsubr
          158 hlineto
          -62 -96 rlineto
          -106 52 callgsubr
          -8 87 callgsubr
          68 hlineto
          -42 -65 rlineto
          -22 -13 0 -11 36 hhcurveto
          4 hlineto
          19 5 6 14 9 hvcurveto
          51 78 rlineto
          191 100 callgsubr
          -154 hlineto
          62 96 rlineto
          102 hlineto
          16 119 callgsubr
          -16 hhcurveto
          endchar
        </CharString>
        <CharString name="ntilde">
          96 callgsubr
          62 59 -19 59 61 callsubr
          hintmask 00000000
          hintmask 11011100
          144 41 callsubr
          hintmask 11101100
          -97 callgsubr
          hintmask 11011100
          -78 callsubr
          303 -525 2 callgsubr
          hintmask 11101010
          12 5 49 23 208 vhcurveto
          -93 callsubr
          hintmask 11101100
          -20 -194 rlineto
          -5 -45 -2 -19 -14 vvcurveto
          -83 -1 51 -16 34 hhcurveto
          40 25 15 40 hvcurveto
          hintmask 11011100
          12 -3 10 -7 vhcurveto
          endchar
        </CharString>
        <CharString name="numbersign">
          16 196 77 147 77 hstem
          18.83 491.32 vstem
          88 -2 rmoveto
          7 hlineto
          27 10 7 14 3 hvcurveto
          43 177 rlineto
          100 hlineto
          -33 -138 -9 -35 -1 -6 rrcurveto
          -13 -1 8 -6 20 hhcurveto
          8 hlineto
          26 11 7 14 3 hvcurveto
          43 177 rlineto
          81 100 callsubr
          -70 hlineto
          36 147 rlineto
          77 100 callsubr
          -65 hlineto
          41 169 rlineto
          13 3 -9 7 -21 hhcurveto
          -9 hlineto
          -28 -9 -7 -14 -4 hvcurveto
          -40 -168 rlineto
          -100 hlineto
          42 169 rlineto
          13 3 -8 7 -22 hhcurveto
          -7 hlineto
          -28 -9 -7 -14 -4 hvcurveto
          -41 -168 89 callsubr
          70 hlineto
          -36 -147 89 callsubr
          68 hlineto
          -32 -130 -11 -44 -1 -6 rrcurveto
          -12 -1 9 -6 20 hhcurveto
          110 275 rmoveto
          36 147 rlineto
          100 hlineto
          -36 -147 rlineto
          endchar
        </CharString>
        <CharString name="o">
          26 callsubr
          hstem
          -62 callsubr
          vstem
          212 -6 -82 callgsubr
        </CharString>
        <CharString name="oacute">
          26 callsubr
          hstem
          -62 callsubr
          vstem
          251 585 rmoveto
          -106 callsubr
          -39 -591 -82 callgsubr
        </CharString>
        <CharString name="oacute.loclPLK">
          26 callsubr
          56 147 hstem
          -62 callsubr
          vstem
          259 585 -76 callsubr
          -47 -591 -82 callgsubr
        </CharString>
        <CharString name="obreve">
          26 callsubr
          56 66 hstem
          -62 callsubr
          vstem
          274 -85 callsubr
          -62 -591 -82 callgsubr
        </CharString>
        <CharString name="ocircumflex">
          26 callsubr
          47 142 hstem
          -62 callsubr
          vstem
          -31 callsubr
          endchar
        </CharString>
        <CharString name="odieresis">
          26 callsubr
          78 95 hstemhm
          43.75 88.79 45.96 78 48 78 -37.14 87.92 hintmask 11111010
          211 607 rmoveto
          29 12 9 13 124 callsubr
          -29 -12 -9 -13 -1 hvcurveto
          -5 -51 -31 callgsubr
          hintmask 11111100
          126 hmoveto
          28 13 9 13 -17 callgsubr
          51 14 callgsubr
          -29 -12 -9 -13 -1 hvcurveto
          -5 -51 -31 callgsubr
          -125 -613 -23 callsubr
          hintmask 11111010
          58 callgsubr
          hintmask 11111100
          50 callsubr
          hintmask 11111010
          134 14 38 62 71 hhcurveto
          71 26 -63 -133 -14 hvcurveto
          hintmask 11111100
          -133 -14 -40 -62 -71 hhcurveto
          endchar
        </CharString>
        <CharString name="oe">
          224 -6 -3 callsubr
          hstem
          43.5 89.04 194.46 131 callgsubr
          vstem
          650 115 18 callsubr
          127 97 60 123 51 -33 82 -107 -72 -55 -29 -48 -38 hvcurveto
          50 -26 -44 27 -62 hhcurveto
          -131 -72 -97 -173 -18 hvcurveto
          -172 -18 51 -93 132 hhcurveto
          61 50 24 47 35 hvcurveto
          -59 37 66 -12 55 hhcurveto
          35 66 15 33 30 hvcurveto
          13 15 4 20 17 vvcurveto
          44 callgsubr
          -432 -49 rmoveto
          -72 -10 callgsubr
          134 14 38 62 72 hhcurveto
          54 30 -32 -67 7 hvcurveto
          -16 -48 -8 -56 -60 vvcurveto
          -12 1 -12 1 -11 vhcurveto
          -63 -22 -36 -30 -53 hhcurveto
          338 391 -18 callsubr
        </CharString>
        <CharString name="ogonek">
          -242 -183 63 hstem
          43 61 vstem
          135 -183 rmoveto
          24 23 6 13 19 hvcurveto
          9 6 4 9 12 vvcurveto
          15 -7 9 -13 vhcurveto
          12 callsubr
          20 8 31 18 30 hvcurveto
          -43 16 rlineto
          -34 -39 -10 -49 -27 vvcurveto
          -25 9 -63 83 vhcurveto
          endchar
        </CharString>
        <CharString name="ograve">
          26 callsubr
          hstem
          -62 callsubr
          vstem
          284 585 -99 callgsubr
          -72 -591 -82 callgsubr
        </CharString>
        <CharString name="ohorn">
          10 callsubr
          hintmask 00000000
          hintmask 10110100
          485 547 rmoveto
          -90 callgsubr
          -18 -13 -11 -18 -10 -11 3 7 -12 vhcurveto
          hintmask 11011000
          17 -28 -27 8 -37 -72 callsubr
          -37 callsubr
          hintmask 10111000
          74 callgsubr
          hintmask 10110100
          92 callgsubr
          hintmask 11011000
          -268 -481 -89 callgsubr
          endchar
        </CharString>
        <CharString name="ohungarumlaut">
          26 callsubr
          56 147 hstem
          -62 callsubr
          vstem
          196 585 -78 callgsubr
          -112 -591 -82 callgsubr
        </CharString>
        <CharString name="omacron">
          26 callsubr
          83 70 hstem
          -62 callsubr
          vstem
          176 612 -88 callsubr
          36 -618 -82 callgsubr
        </CharString>
        <CharString name="one">
          -39 0 72 630 -20 hstem
          30.41 371.74 vstem
          48 hmoveto
          330 hlineto
          14 6 9 21 3 13 callgsubr
          -14 hhcurveto
          -113 hlineto
          64 609 rlineto
          12 1 -15 9 -15 hhcurveto
          -206 -45 -13 -3 -6 -5 -1 -11 rlinecurve
          -18 -2 2 -33 14 hhcurveto
          150 24 -57 -539 rlineto
          -133 128 callgsubr
          -1 -12 rlineto
          -21 -3 6 -9 14 hhcurveto
          endchar
        </CharString>
        <CharString name="oneeighth">
          130 -4 43 335 43 285 -20 21 -20 hstemhm
          361 51 -17 50 89 51 -39 50 hintmask 11011001
          132 -37 callgsubr
          13 299 65 callgsubr
          hintmask 11101001
          -25 callsubr
          hintmask 11011001
          109 callgsubr
          314 -301 rmoveto
          hintmask 11011010
          66 52 43 77 8 hvcurveto
          7 62 -28 25 -33 19 rrcurveto
          hintmask 11010101
          33 16 27 30 5 49 rrcurveto
          70 7 -46 30 -51 hhcurveto
          -55 -49 -35 -69 -7 hvcurveto
          -5 -48 18 -27 24 -17 rrcurveto
          hintmask 11011001
          -33 -17 -32 -30 -6 -61 rrcurveto
          -79 -8 45 -38 61 hhcurveto
          hintmask 11010101
          36 245 rmoveto
          -30 16 -25 17 5 42 rrcurveto
          40 4 24 18 28 hhcurveto
          28 21 -18 -41 -4 hvcurveto
          -4 -35 -19 -22 -28 -17 rrcurveto
          hintmask 11011010
          -31 -202 rmoveto
          -32 -26 24 53 6 hvcurveto
          4 44 21 24 29 18 37 -19 37 -14 -6 -53 rrcurveto
          -48 -4 -31 -29 -35 hhcurveto
          endchar
        </CharString>
        <CharString name="onehalf">
          143 0 41 324 42 295 -20 21 -20 hstemhm
          558 50 hintmask 11011000
          138 -37 callgsubr
          7 299 65 callgsubr
          hintmask 11101000
          -25 callsubr
          hintmask 11011000
          109 callgsubr
          221 -297 -45 callgsubr
          endchar
        </CharString>
        <CharString name="onequarter">
          88 96 41 565 -20 21 -20 hstemhm
          436.5 48 hintmask 10110000
          129 -37 callgsubr
          16 299 65 callgsubr
          hintmask 11010000
          -25 callsubr
          hintmask 10110000
          109 callgsubr
          303 -299 rmoveto
          -12 callsubr
        </CharString>
        <CharString name="ordfeminine">
          -217 439 49 -48 42 177 49 hstemhm
          61 61 74 60 -43 64 hintmask 10111000
          134 439 rmoveto
          23 23 12 32 16 hvcurveto
          hintmask 01111000
          -35 2 22 -8 19 hhcurveto
          33 13 11 21 6 -1 6 -4 hvcurveto
          -4 -3 -2 -6 hhcurveto
          -7 -5 4 17 1 hvcurveto
          2 36 7 52 6 48 rrcurveto
          hintmask 10110100
          2 19 4 31 6 vvcurveto
          6 -5 5 -12 vhcurveto
          -14 hlineto
          -17 -3 -10 -15 -5 hvcurveto
          11 -9 -16 16 -28 hhcurveto
          -55 -42 -50 -83 -10 hvcurveto
          hintmask 10111000
          -66 -8 16 -70 65 hhcurveto
          17 49 rmoveto
          -31 -3 46 43 5 hvcurveto
          52 6 16 30 34 hhcurveto
          18 10 -6 -4 7 hvcurveto
          -2 -8 -1 -9 -1 -11 -9 -83 rcurveline
          -37 -12 -20 -13 -17 hhcurveto
          endchar
        </CharString>
        <CharString name="ordmasculine">
          -206 440 56 156 56 hstem
          66 65 97 65 vstem
          166 440 rmoveto
          73 45 47 86 9 hvcurveto
          86 9 -35 49 -73 hhcurveto
          -73 -46 -49 -86 -9 hvcurveto
          -85 -9 35 -48 74 hhcurveto
          5 56 rmoveto
          -33 -13 25 53 6 hvcurveto
          53 5 18 25 33 hhcurveto
          34 12 -26 -52 -5 hvcurveto
          -53 -6 -17 -25 -34 hhcurveto
          endchar
        </CharString>
        <CharString name="oslash">
          60 callsubr
          400 462 -36 callsubr
        </CharString>
        <CharString name="oslashacute">
          60 callsubr
          247 585 rmoveto
          -106 callsubr
          153 -123 -36 callsubr
        </CharString>
        <CharString name="otilde">
          26 callsubr
          62 97 callsubr
          -62 callsubr
          hintmask 00000000
          hintmask 11011100
          140 41 callsubr
          hintmask 11101100
          -97 callgsubr
          hintmask 11011100
          -78 callsubr
          82 -602 -82 callgsubr
        </CharString>
        <CharString name="p">
          -14 -6 74 388 73 hstem
          92 85 170.22 89.13 vstem
          65 -208 rmoveto
          10 26 callgsubr
          24 231 rlineto
          -29 23 28 -22 49 hhcurveto
          99 77 96 169 17 hvcurveto
          159 17 -48 111 -98 hhcurveto
          -45 -46 -24 -51 -36 hvcurveto
          34 -3 3 34 -25 hhcurveto
          -11 -47 -4 -18 -2 hvcurveto
          -1 -6 6 -39 -9 -82 -58 -559 rcurveline
          -22 callgsubr
          162 276 rmoveto
          -33 -27 15 30 -20 hvcurveto
          29 274 rlineto
          44 30 37 25 33 hhcurveto
          59 22 113 callsubr
        </CharString>
        <CharString name="paragraph">
          -32 638 62 hstem
          48.49 455.51 vstem
          186 -173 rmoveto
          14 hlineto
          17 8 30 callsubr
          83 789 rlineto
          78 hlineto
          -83 -789 rlineto
          -14 -2 6 -8 17 hhcurveto
          14 hlineto
          17 8 30 callsubr
          83 789 rlineto
          30 hlineto
          14 6 7 17 2 hvcurveto
          2 14 rlineto
          17 1 -5 7 -14 hhcurveto
          -207 hlineto
          -112 -103 -107 -131 -14 hvcurveto
          -13 -123 69 -101 98 -14 -39 -375 rcurveline
          -14 -2 6 -8 17 hhcurveto
          endchar
        </CharString>
        <CharString name="parenleft">
          -249 -212 995 hstem
          12.8 79.69 vstem
          154 -212 rmoveto
          15 15 18 10 1 hvcurveto
          1 6 -2 7 -6 7 -74 100 -25 168 20 182 19 182 59 168 97 100 8 8 2 7 1 7 rrcurveto
          14 2 -17 11 -12 hhcurveto
          -7 -8 -3 -7 -7 hvcurveto
          -113 -101 -84 -181 -21 -205 -22 -205 44 -182 93 -100 rrcurveto
          -7 7 7 -4 7 hhcurveto
          endchar
        </CharString>
        <CharString name="parenright">
          -249 -212 995 hstem
          161.04 79.81 vstem
          -6 -212 rmoveto
          7 9 4 7 7 hvcurveto
          113 101 84 181 22 205 21 205 -44 182 -93 100 rrcurveto
          7 -7 -6 3 -7 hhcurveto
          -14 -18 -14 -12 -1 hvcurveto
          -1 -6 3 -7 5 -8 76 -100 24 -168 -19 -182 -20 -184 -61 -169 -96 -100 -6 -6 -3 -6 -1 -5 rrcurveto
          -11 -1 13 -17 14 hhcurveto
          endchar
        </CharString>
        <CharString name="partialdiff">
          -87 -6 67 283 70 251 73 hstem
          19 87 202.32 93.06 vstem
          161 -6 rmoveto
          97 109 67 276 29 hvcurveto
          260 27 -76 141 -128 hhcurveto
          -64 -56 -28 -31 -3 hvcurveto
          -14 -2 18 -30 11 10 23 30 45 hhcurveto
          71 50 -113 -183 -17 hvcurveto
          31 -23 -37 14 -39 hhcurveto
          -87 -86 -84 -139 -14 hvcurveto
          -149 -16 83 -48 75 hhcurveto
          7 67 rmoveto
          -61 -7 72 57 6 hvcurveto
          76 8 46 78 55 hhcurveto
          38 21 -17 -33 21 hvcurveto
          -136 -14 -52 -97 -61 hhcurveto
          endchar
        </CharString>
        <CharString name="percent">
          188 -5 56 214 55 61 56 214 55 hstem
          78 66 122.2 63.88 45.92 -42 callgsubr
          6 56 rmoveto
          29 callsubr
          endchar
        </CharString>
        <CharString name="period">
          -310 -2 110 hstem
          25.5 94 vstem
          57 -2 rmoveto
          -44 callsubr
          endchar
        </CharString>
        <CharString name="periodcentered">
          -284 309 103 hstemhm
          71 99 hintmask 00000000
          hintmask 11000000
          115 309 28 callgsubr
        </CharString>
        <CharString name="perthousand">
          488 -5 56 214 55 61 56 214 55 hstem
          78 66 122.2 63.88 45.92 65 121 64 53 -42 callgsubr
          303 hmoveto
          57 71 27 134 14 hvcurveto
          135 14 -65 29 -57 hhcurveto
          -60 -68 -29 -135 -14 hvcurveto
          -134 -14 65 -27 57 hhcurveto
          -297 56 rmoveto
          29 callsubr
          303 hmoveto
          29 callsubr
          endchar
        </CharString>
        <CharString name="pi">
          9 451 72 hstem
          308.04 85.96 vstem
          62 -2 rmoveto
          15 hlineto
          19 15 9 16 7 hvcurveto
          41 103 44 198 18 127 rrcurveto
          126 hlineto
          -32 -305 rlineto
          -106 -11 -2 -42 38 hhcurveto
          20 hlineto
          22 10 10 15 2 hvcurveto
          3 25 -3 38 7 68 31 297 rcurveline
          42 hlineto
          16 8 4 18 4 hvcurveto
          6 26 0 3 2 vvcurveto
          15 2 -8 4 -15 hhcurveto
          -324 hlineto
          -68 -54 -10 -34 -3 hvcurveto
          -23 -3 1 -14 19 12 13 9 56 hhcurveto
          -19 -131 -42 -180 -41 -112 rrcurveto
          -1 -3 -1 -3 -3 vvcurveto
          -12 -2 11 -9 21 hhcurveto
          endchar
        </CharString>
        <CharString name="plus">
          -49 197 67 hstem
          37 365 vstem
          248 463 rmoveto
          -7 hlineto
          -24 -7 -6 -14 -1 hvcurveto
          -19 -179 rlineto
          -129 hlineto
          -14 -10 -9 -28 -20 2 -10 15 hvcurveto
          129 hlineto
          -19 -179 rlineto
          -14 6 -6 22 vhcurveto
          7 hlineto
          19 11 6 14 2 hvcurveto
          19 179 rlineto
          128 hlineto
          14 10 9 28 20 -2 10 -15 hvcurveto
          -128 hlineto
          19 179 rlineto
          14 -7 6 -21 vhcurveto
          endchar
        </CharString>
        <CharString name="plusminus">
          -49 0 73 254 67 hstem
          -1 425 vstem
          263 593 rmoveto
          -7 hlineto
          -19 -12 -10 -20 -2 hvcurveto
          -18 -169 rlineto
          -127 hlineto
          -21 -13 -22 -19 -15 6 -11 21 hvcurveto
          127 hlineto
          -18 -168 rlineto
          -19 6 -11 21 vhcurveto
          7 hlineto
          20 11 133 callgsubr
          18 168 rlineto
          125 hlineto
          22 12 23 18 16 -6 10 -21 hvcurveto
          -125 hlineto
          18 169 rlineto
          20 -6 10 -21 vhcurveto
          110 -520 rmoveto
          -339 hlineto
          -22 -13 -27 -20 -17 6 -9 21 hvcurveto
          339 hlineto
          21 14 25 22 16 -6 10 -21 hvcurveto
          endchar
        </CharString>
        <CharString name="product">
          102 628 72 hstem
          61 568 vstem
          612 700 rmoveto
          -526 hlineto
          -14 -11 -9 -33 -20 2 -10 15 hvcurveto
          83 76 callgsubr
          188 76 callgsubr
          83 hlineto
          14 11 9 33 20 -2 10 -15 hvcurveto
          endchar
        </CharString>
        <CharString name="q">
          -17 -6 74 388 73 -4 -20 hstemhm
          48.73 89.13 hintmask 11010000
          311 -208 rmoveto
          11 hlineto
          26 13 30 callsubr
          hintmask 10110000
          72 689 rlineto
          14 1 -9 8 -23 hhcurveto
          -6 hlineto
          -16 -11 -3 -9 -5 hvcurveto
          hintmask 11010000
          -6 -20 -6 -19 -5 -20 rrcurveto
          51 -26 -40 24 -45 hhcurveto
          -95 -74 -109 -162 -17 hvcurveto
          -169 -18 58 -95 98 hhcurveto
          50 32 22 29 29 hvcurveto
          -24 -231 rlineto
          -14 -2 10 -8 26 hhcurveto
          -93 276 rmoveto
          -66 -24 67 122 13 hvcurveto
          125 13 38 74 59 hhcurveto
          33 30 -25 -44 22 hvcurveto
          -29 -274 rlineto
          -30 -25 -31 -15 -33 hhcurveto
          endchar
        </CharString>
        <CharString name="question">
          -107 -2 110 524 74 hstem
          74.5 97 130.5 95 vstem
          133 202 rmoveto
          15 hlineto
          24 7 7 13 4 hvcurveto
          12 51 38 39 51 51 51 53 55 54 7 72 rrcurveto
          91 10 -66 73 -120 hhcurveto
          -67 -88 -23 -34 -3 hvcurveto
          -14 -2 18 -37 10 14 41 34 60 hhcurveto
          70 34 -33 -65 -6 hvcurveto
          -6 -54 -41 -41 -51 -50 -59 -59 -35 -60 -5 -45 rrcurveto
          -14 -1 8 -9 21 hhcurveto
          -25 -204 rmoveto
          17 127 callsubr
          7 66 43 callsubr
          -28 hhcurveto
          -17 86 callsubr
          -7 -66 rlineto
          -14 -2 102 callsubr
          endchar
        </CharString>
        <CharString name="questiondown">
          -107 -183 74 524 110 hstem
          -7 95 130.5 97 vstem
          282 525 rmoveto
          -17 -43 callgsubr
          -2 hvcurveto
          -7 -66 rlineto
          92 callsubr
          17 hlineto
          28 58 callsubr
          7 66 rlineto
          67 callgsubr
          -25 -204 rmoveto
          -15 hlineto
          -24 -7 -7 -13 -4 hvcurveto
          -12 -51 -38 -39 -51 -51 -51 -53 -55 -54 -7 -72 rrcurveto
          -91 -10 66 -73 120 hhcurveto
          67 88 23 34 3 hvcurveto
          14 2 -18 37 -10 -14 -41 -34 -60 hhcurveto
          -70 -34 33 65 6 hvcurveto
          6 54 41 41 51 50 59 59 35 60 5 45 rrcurveto
          14 1 -8 9 -21 hhcurveto
          endchar
        </CharString>
        <CharString name="quotedbl">
          -189 472 230 hstemhm
          89 90 38 90 hintmask 00000000
          hintmask 11100000
          111 472 rmoveto
          0 callgsubr
          128 hmoveto
          0 callgsubr
          endchar
        </CharString>
        <CharString name="quotedblbase">
          -150 -116 224 hstem
          -1 292 vstem
          26 -116 -2 callsubr
        </CharString>
        <CharString name="quotedblleft">
          -150 515 224 hstem
          66.99 292.01 vstem
          104 515 rmoveto
          0 callsubr
          141 hmoveto
          0 callsubr
          endchar
        </CharString>
        <CharString name="quotedblright">
          -150 754 -20 hstem
          38 292 vstem
          65 530 -2 callsubr
        </CharString>
        <CharString name="quoteleft">
          -288 515 224 hstem
          68.99 151 vstem
          106 515 rmoveto
          0 callsubr
          endchar
        </CharString>
        <CharString name="quoteright">
          -288 754 -20 hstem
          69 151 vstem
          96 530 38 callgsubr
          endchar
        </CharString>
        <CharString name="quotesinglbase">
          -288 -116 224 hstem
          1 151 vstem
          28 -116 38 callgsubr
          endchar
        </CharString>
        <CharString name="quotesingle">
          -334 88 callsubr
          81 90 vstem
          103 472 rmoveto
          0 callgsubr
          endchar
        </CharString>
        <CharString name="quotesingle.loclGUA">
          -327 700 -20 hstem
          56 118 vstem
          83 396 rmoveto
          21 1 52 107 18 168 rrcurveto
          17 2 -14 11 -25 hhcurveto
          -9 hlineto
          -27 -14 -13 -19 -2 hvcurveto
          -29 -257 rlineto
          -12 -2 18 -3 11 hhcurveto
          endchar
        </CharString>
        <CharString name="r">
          -161 447 82 78 callsubr
          96 -2 5 callgsubr
        </CharString>
        <CharString name="racute">
          -161 447 82 78 callsubr
          184 582 rmoveto
          -106 callsubr
          -88 -584 5 callgsubr
        </CharString>
        <CharString name="radical">
          -4 -150 112 hstemhm
          26 476 hintmask 00000000
          hintmask 11000000
          262 -150 rmoveto
          23 hlineto
          18 14 8 13 3 hvcurveto
          182 921 rlineto
          8 vlineto
          7 -8 6 -20 vhcurveto
          -14 hlineto
          -21 -13 -8 -13 -2 hvcurveto
          -139 -761 -5 -20 -6 -29 -2 -20 rlinecurve
          -2 hlineto
          -3 20 -6 24 -10 28 -83 325 rcurveline
          14 -3 -7 7 -9 hhcurveto
          -13 -60 -32 -18 -35 hvcurveto
          -10 -5 -5 -4 -8 vvcurveto
          -3 1 -3 8 -22 vhcurveto
          -10 3 6 -3 7 hhcurveto
          5 6 3 21 40 hvcurveto
          124 -425 rlineto
          -15 4 13 -6 19 hhcurveto
          endchar
        </CharString>
        <CharString name="rcaron">
          -161 447 82 51 142 78 callsubr
          199 580 -105 callsubr
          -103 -582 5 callgsubr
        </CharString>
        <CharString name="rcommaaccent">
          -161 447 82 hstemhm
          56 83 -39.61 81.61 hintmask 10100000
          96 -2 -71 callsubr
          hintmask 11000000
          -41 -235 -77 callsubr
          endchar
        </CharString>
        <CharString name="registered">
          94 -5 48 285 45 141 45 103 48 hstem
          19 50 138 52 105 54 125 8 callsubr
          -77 102 rmoveto
          8 hlineto
          16 6 5 8 hvcurveto
          170 33 vlineto
          34 14 -12 -46 14 hvcurveto
          35 -116 rlineto
          -5 1 9 -4 11 hhcurveto
          10 hlineto
          15 7 4 5 2 0 3 -2 4 hvcurveto
          -36 116 -12 39 -11 26 -17 9 rlinecurve
          2 vlineto
          32 16 22 33 51 vvcurveto
          74 -38 30 -75 vhcurveto
          -82 hlineto
          -11 -5 -5 -13 hvcurveto
          -383 vlineto
          -8 7 -5 15 vhcurveto
          29 228 rmoveto
          141 52 vlineto
          32 22 -21 -48 -39 -23 -33 -28 hvcurveto
          endchar
        </CharString>
        <CharString name="ring">
          -242 564 35 99 35 hstem
          86 36 94 37 vstem
          160 -19 callsubr
          endchar
        </CharString>
        <CharString name="s">
          74 callsubr
          108 callgsubr
          137 -9 -86 callgsubr
          endchar
        </CharString>
        <CharString name="sacute">
          74 callsubr
          108 callgsubr
          193 585 rmoveto
          -106 callsubr
          -56 -594 -86 callgsubr
          endchar
        </CharString>
        <CharString name="sacute.loclPLK">
          74 callsubr
          55 147 108 callgsubr
          201 585 -76 callsubr
          -64 -594 -86 callgsubr
          endchar
        </CharString>
        <CharString name="scaron">
          74 callsubr
          53 142 108 callgsubr
          208 583 -105 callsubr
          -71 -592 -86 callgsubr
          endchar
        </CharString>
        <CharString name="scedilla">
          -145 -210 49 152 74 393 72 hstemhm
          54 85 23 66 -4 82 hintmask 00000000
          hintmask 11110100
          214 458 rmoveto
          42 24 -25 6 hhcurveto
          11 24 39 15 2 hvcurveto
          23 2 -55 20 -54 hhcurveto
          -84 -69 -57 -85 -9 hvcurveto
          -7 -75 34 -39 66 -31 52 -27 30 -28 -5 -50 rrcurveto
          -49 -5 -31 -24 -48 -56 -29 39 -8 hhcurveto
          -11 -27 -37 -14 -2 hvcurveto
          hintmask 11101000
          -2 -21 50 -38 72 -3 rrcurveto
          -19 -56 -1 -6 -62 callgsubr
          15 54 rlineto
          hintmask 11110100
          71 12 58 54 8 80 70 callgsubr
          19 callgsubr
          hhcurveto
          endchar
        </CharString>
        <CharString name="scircumflex">
          74 callsubr
          46 142 108 callgsubr
          123 -104 callsubr
          14 -585 -86 callgsubr
          endchar
        </CharString>
        <CharString name="scommaaccent">
          74 callsubr
          hstemhm
          54 85 -32 83 34 82 hintmask 11011000
          137 -9 rmoveto
          85 75 57 92 9 hvcurveto
          70 callgsubr
          rrcurveto
          hintmask 11101000
          19 callgsubr
          42 24 -25 6 hhcurveto
          11 24 39 15 2 hvcurveto
          23 2 -55 20 -54 hhcurveto
          -84 -69 -57 -85 -9 hvcurveto
          -7 -75 34 -39 66 -31 52 -27 30 -28 -5 -50 rrcurveto
          -49 -5 -31 -24 -48 -56 -29 39 -8 hhcurveto
          -11 -27 -37 -14 -2 hvcurveto
          hintmask 11011000
          -22 -2 55 -40 77 hhcurveto
          -31 -226 -77 callsubr
          endchar
        </CharString>
        <CharString name="section">
          -143 -6 74 565 72 hstemhm
          43 85 -49 84 57 83 -51 84 hintmask 11100100
          143 -6 rmoveto
          hintmask 11101000
          75 76 45 91 9 hvcurveto
          5 47 -17 34 -25 24 rrcurveto
          hintmask 11010100
          44 28 26 45 52 vvcurveto
          67 -33 32 -61 33 vhcurveto
          -39 19 -45 18 5 48 rrcurveto
          36 4 27 20 40 42 21 -24 10 hhcurveto
          13 23 41 14 23 -64 18 -42 -75 -74 -45 -89 -9 hvcurveto
          -5 -47 17 -32 25 -23 rrcurveto
          hintmask 11101000
          -47 -27 -26 -48 -55 vvcurveto
          -58 35 -37 52 -26 vhcurveto
          57 -31 38 -15 -5 -47 rrcurveto
          -34 -4 -26 -23 -44 -51 -24 32 -9 hhcurveto
          -9 -30 -36 -18 hvcurveto
          hintmask 11100100
          -26 69 -26 51 vhcurveto
          54 282 rmoveto
          -40 17 -34 18 5 50 5 42 26 18 24 7 41 -20 33 -17 -5 -48 -5 -42 -25 -19 -25 -6 rrcurveto
          endchar
        </CharString>
        <CharString name="semicolon">
          -310 415 110 hstem
          62.5 94 vstem
          95 5 callsubr
          -127 -531 31 callsubr
        </CharString>
        <CharString name="seven">
          -39 628 72 hstem
          55 414 vstem
          94 -2 rmoveto
          12 hlineto
          20 17 5 11 5 hvcurveto
          318 624 3 11 rlineto
          20 2 -9 31 -8 hhcurveto
          -355 128 callgsubr
          -1 -12 rlineto
          -21 -3 6 -9 14 hhcurveto
          278 hlineto
          -309 -598 rlineto
          -3 -6 -3 -6 -3 vvcurveto
          -13 -1 12 -4 28 hhcurveto
          endchar
        </CharString>
        <CharString name="six">
          -39 -5 72 266 72 297 -20 hstem
          33.27 84.23 212.5 85 vstem
          199 -5 rmoveto
          110 92 80 129 14 hvcurveto
          121 13 -63 80 -97 hhcurveto
          -47 -40 -14 -19 -30 hvcurveto
          43 114 86 96 137 56 7 3 1 5 1 3 rrcurveto
          12 1 -8 41 -21 hhcurveto
          -65 -266 -163 -296 -31 hvcurveto
          -152 -16 54 -96 125 hhcurveto
          11 72 rmoveto
          -50 -55 33 141 15 hvcurveto
          2 19 3 21 4 20 rrcurveto
          15 25 39 17 41 hhcurveto
          56 50 -37 -95 -10 hvcurveto
          -94 -10 -61 -40 -49 hhcurveto
          endchar
        </CharString>
        <CharString name="slash">
          -178 703 -20 hstem
          -14 330 vstem
          12 23 callgsubr
        </CharString>
        <CharString name="space">
          -361 endchar
        </CharString>
        <CharString name="sterling">
          -87 0 72 267 72 223 72 hstem
          122.5 84 vstem
          9 hmoveto
          333 hlineto
          14 6 9 21 3 13 callgsubr
          -14 hhcurveto
          -240 hlineto
          22 13 39 26 15 138 9 90 rcurveline
          118 117 callsubr
          57 callgsubr
          -14 hhcurveto
          -118 hlineto
          9 92 rlineto
          91 10 35 40 72 32 22 -9 8 hhcurveto
          16 11 45 4 hvcurveto
          27 3 -62 5 -38 hhcurveto
          -124 -56 -82 -126 -13 hvcurveto
          -9 -87 rlineto
          -55 128 callgsubr
          -2 -12 rlineto
          31 callgsubr
          14 hhcurveto
          55 hlineto
          -19 -180 -9 -86 -84 16 -5 -43 rlinecurve
          -1 -16 rlineto
          -21 -3 6 -9 14 hhcurveto
          endchar
        </CharString>
        <CharString name="summation">
          -24 -102 85 645 72 hstem
          -18 507 vstem
          468 700 rmoveto
          -370 hlineto
          -18 -10 -8 -16 -1 hvcurveto
          -1 -2 -1 -14 3 -11 5 -11 rlinecurve
          153 -326 -232 -348 -8 -11 -4 -10 -2 -13 rlinecurve
          -2 vlineto
          -20 -2 8 -10 18 hhcurveto
          392 hlineto
          16 9 10 20 2 hvcurveto
          3 25 rlineto
          19 2 -7 11 -16 hhcurveto
          -296 hlineto
          -1 4 205 303 5 8 2 6 1 7 rlinecurve
          1 7 -2 7 -3 7 -137 292 rcurveline
          1 4 rlineto
          278 hlineto
          17 107 callsubr
          12 118 callsubr
          -17 hhcurveto
          endchar
        </CharString>
        <CharString name="t">
          -200 129 callsubr
          hstemhm
          76 83 -36 89 hintmask 11100000
          183 -6 4 callsubr
          hintmask 11010000
          44 hlineto
          -48 callsubr
          hintmask 11100000
          6 callsubr
          -87 66 -25 41 vhcurveto
          endchar
        </CharString>
        <CharString name="tbar">
          -200 -6 72 194 70 121 72 hstemhm
          76 83 -56.5 76.5 -56 89 hintmask 00000000
          hintmask 01101000
          259 330 rmoveto
          -80 hlineto
          4 35 5 40 5 46 rrcurveto
          hintmask 01100100
          44 hlineto
          -48 callsubr
          hintmask 01101000
          -36 hlineto
          -24 -1 -34 -11 -16 3 -11 14 hvcurveto
          36 hlineto
          -13 -121 rlineto
          hintmask 11110000
          -36 25 callsubr
          -1 -10 rlineto
          31 callgsubr
          13 hhcurveto
          36 hlineto
          -9 -90 -4 -47 -17 70 callsubr
          37 4 46 8 68 hvcurveto
          hintmask 01101000
          81 hlineto
          14 6 -59 callgsubr
          1 10 75 callgsubr
          endchar
        </CharString>
        <CharString name="tcaron">
          -200 129 callsubr
          229 -20 hstemhm
          76 83 -36 89 75 89 hintmask 11110100
          303 578 rmoveto
          1 callsubr
          -12 18 -3 11 vhcurveto
          -120 -584 4 callsubr
          hintmask 11101100
          44 hlineto
          -48 callsubr
          hintmask 11110100
          6 callsubr
          -87 66 -25 41 vhcurveto
          endchar
        </CharString>
        <CharString name="thorn">
          -15 -6 74 388 73 223 -20 hstem
          346.18 89.04 vstem
          64 -208 rmoveto
          11 hlineto
          26 11 30 callsubr
          24 231 rlineto
          -29 23 28 -22 50 hhcurveto
          98 77 96 168 18 hvcurveto
          161 17 -51 110 -96 hhcurveto
          -42 -42 -21 -44 -36 hvcurveto
          28 266 rlineto
          67 callgsubr
          -6 -43 callgsubr
          -2 hvcurveto
          -96 -916 rlineto
          -14 -2 11 -8 27 hhcurveto
          162 276 rmoveto
          -33 -28 15 30 -20 hvcurveto
          29 274 rlineto
          44 31 36 25 33 hhcurveto
          59 23 113 callsubr
        </CharString>
        <CharString name="three">
          -39 -6 72 270 71 227 72 hstemhm
          314 87 -73 85 hintmask 11110000
          167 -6 rmoveto
          116 103 70 136 15 hvcurveto
          11 112 -61 59 -57 16 1 4 rcurveline
          hintmask 11101000
          55 22 54 41 9 81 rrcurveto
          108 11 -67 63 -119 hhcurveto
          -58 -99 -23 -30 -3 hvcurveto
          -15 -1 18 -37 11 14 35 33 71 hhcurveto
          91 15 -57 -40 -4 hvcurveto
          -46 -5 -38 -84 -97 hhcurveto
          -36 128 callgsubr
          -1 -11 rlineto
          31 callgsubr
          14 hhcurveto
          40 hlineto
          hintmask 11110000
          84 56 -30 -100 -11 hvcurveto
          -112 -12 -83 -28 -57 -74 -37 35 -16 hhcurveto
          -11 -27 -31 -19 -2 hvcurveto
          -26 -3 80 -31 95 hhcurveto
          endchar
        </CharString>
        <CharString name="threequarters">
          129 96 41 156 126 callgsubr
          -3 -20 hstemhm
          218 51 -42 49 228.5 48 hintmask 11110101
          133 293 37 callsubr
          hintmask 11110011
          -41 callgsubr
          hintmask 11110101
          -16 callsubr
          46 -295 rmoveto
          12 hlineto
          13 9 5 12 5 hvcurveto
          hintmask 11101101
          68 callgsubr
          -311 -671 rlineto
          -2 -4 -2 -4 -2 vvcurveto
          hintmask 11110101
          -5 5 -2 8 vhcurveto
          337 hmoveto
          -12 callsubr
        </CharString>
        <CharString name="tilde">
          -206 591 97 callsubr
          4 300 hintmask 00000000
          hintmask 01100000
          24 41 callsubr
          hintmask 10100000
          -97 callgsubr
          hintmask 01100000
          -78 callsubr
          endchar
        </CharString>
        <CharString name="tildecomb">
          -498 591 97 callsubr
          -141 300 hintmask 00000000
          hintmask 01100000
          -121 41 callsubr
          hintmask 10100000
          -97 callgsubr
          hintmask 01100000
          -78 callsubr
          endchar
        </CharString>
        <CharString name="trademark">
          119 657 43 -43 44 hstemhm
          124 51 115 50 206 50 hintmask 10111000
          311 305 rmoveto
          7 hlineto
          15 7 4 8 hvcurveto
          271 5 vlineto
          78 -185 rlineto
          -5 2 4 -2 6 hhcurveto
          17 hlineto
          6 4 2 5 2 hvcurveto
          76 182 rlineto
          6 -268 hlineto
          -8 6 -4 16 vhcurveto
          6 hlineto
          15 7 4 8 hvcurveto
          hintmask 01111000
          372 vlineto
          8 -7 4 -15 vhcurveto
          -18 hlineto
          -11 -8 -3 -7 -3 hvcurveto
          -79 -188 -12 -32 -13 35 -78 185 rlineto
          7 -2 -8 3 -11 hhcurveto
          -20 hlineto
          -15 -6 -4 -8 hvcurveto
          -372 vlineto
          hintmask 10111000
          -8 6 -4 15 vhcurveto
          -166 hmoveto
          8 hlineto
          15 7 5 7 hvcurveto
          340 79 vlineto
          8 3 5 12 hvcurveto
          9 vlineto
          12 -3 5 -8 vhcurveto
          -211 hlineto
          -8 -3 -5 -12 hvcurveto
          -9 vlineto
          -12 3 -5 8 vhcurveto
          81 -340 hlineto
          -7 6 -5 15 vhcurveto
          endchar
        </CharString>
        <CharString name="two">
          -39 0 71 563 72 hstem
          351 87 vstem
          17 hmoveto
          348 hlineto
          14 129 callgsubr
          1 11 rlineto
          80 callsubr
          -14 hhcurveto
          -258 hlineto
          156 201 132 151 28 42 8 74 rlinecurve
          104 11 -74 63 -114 hhcurveto
          -71 -105 -35 -39 -4 hvcurveto
          -16 -2 19 -35 11 16 40 53 85 hhcurveto
          69 39 -38 -64 -7 hvcurveto
          -4 -42 -16 -27 -54 -68 -270 -334 rcurveline
          -3 -3 -2 -7 -1 -7 rrcurveto
          -19 -2 6 -25 12 hhcurveto
          endchar
        </CharString>
        <CharString name="u">
          35 callgsubr
          -8 callgsubr
          hintmask 00000000
          hintmask 01110000
          439 74 -81 callsubr
          hintmask 10101000
          114 callsubr
          -100 callgsubr
          hintmask 01110000
          -4 callgsubr
        </CharString>
        <CharString name="uacute">
          35 callgsubr
          -8 callgsubr
          hintmask 10110000
          247 585 rmoveto
          -106 callsubr
          hintmask 01110000
          192 -511 -81 callsubr
          hintmask 10101000
          114 callsubr
          -100 callgsubr
          hintmask 01110000
          -4 callgsubr
        </CharString>
        <CharString name="ubreve">
          35 callgsubr
          81 66 -8 callgsubr
          hintmask 10111000
          270 -85 callsubr
          hintmask 01111000
          169 -511 -81 callsubr
          hintmask 10110100
          114 callsubr
          -100 callgsubr
          hintmask 01111000
          -4 callgsubr
        </CharString>
        <CharString name="ucircumflex">
          35 callgsubr
          72 142 -8 callgsubr
          hintmask 10111000
          177 -104 callsubr
          hintmask 01111000
          262 -502 -81 callsubr
          hintmask 10110100
          114 callsubr
          -100 callgsubr
          hintmask 01111000
          -4 callgsubr
        </CharString>
        <CharString name="udieresis">
          35 callgsubr
          103 95 hstemhm
          53 88 33.5 78 48 78 hintmask 10111110
          207 607 -102 callsubr
          hintmask 01111110
          106 -533 -81 callsubr
          hintmask 10111110
          114 callsubr
          -100 callgsubr
          hintmask 01111110
          -4 callgsubr
        </CharString>
        <CharString name="ugrave">
          35 callgsubr
          -8 callgsubr
          hintmask 10110000
          280 585 -99 callgsubr
          hintmask 01110000
          159 -511 -81 callsubr
          hintmask 10101000
          114 callsubr
          -100 callgsubr
          hintmask 01110000
          -4 callgsubr
        </CharString>
        <CharString name="uhorn">
          62 callsubr
          396 201 -71 callgsubr
        </CharString>
        <CharString name="uhungarumlaut">
          35 callgsubr
          81 147 -8 callgsubr
          hintmask 10111000
          192 585 -78 callgsubr
          hintmask 01111000
          119 -511 -81 callsubr
          hintmask 10110100
          114 callsubr
          -100 callgsubr
          hintmask 01111000
          -4 callgsubr
        </CharString>
        <CharString name="umacron">
          35 callgsubr
          108 70 -8 callgsubr
          hintmask 10111000
          172 612 -88 callsubr
          hintmask 01111000
          267 -538 -81 callsubr
          hintmask 10110100
          114 callsubr
          -100 callgsubr
          hintmask 01111000
          -4 callgsubr
        </CharString>
        <CharString name="underscore">
          -71 -138 48 hstem
          -57 462 vstem
          -40 -138 rmoveto
          423 hlineto
          13 7 6 14 1 hvcurveto
          1 8 rlineto
          14 1 -5 6 -13 hhcurveto
          -423 hlineto
          -13 -7 -6 -14 -1 hvcurveto
          -1 -8 rlineto
          -14 -1 5 -6 13 hhcurveto
          endchar
        </CharString>
        <CharString name="uni00A0">
          -361 endchar
        </CharString>
        <CharString name="uni00AD">
          16 callsubr
        </CharString>
        <CharString name="uni00B2">
          -218 298 41 324 42 hstem
          234 50 vstem
          42 298 -45 callgsubr
          endchar
        </CharString>
        <CharString name="uni00B3">
          -218 293 126 callgsubr
          hstemhm
          218 51 -42 49 hintmask 11110000
          133 293 37 callsubr
          hintmask 11101000
          -41 callgsubr
          hintmask 11110000
          -16 callsubr
          endchar
        </CharString>
        <CharString name="uni00B5">
          -45 -38 callsubr
        </CharString>
        <CharString name="uni00B9">
          -218 88 callsubr
          87.71 129.29 vstem
          147 297 65 callgsubr
          -25 callsubr
          109 callgsubr
          endchar
        </CharString>
        <CharString name="uni0162">
          -44 -210 49 785 76 hstem
          210 66 vstem
          460 700 rmoveto
          -376 25 callsubr
          -2 -16 rlineto
          31 callgsubr
          13 hhcurveto
          144 hlineto
          -64 -604 -1 -11 6 -8 17 -2 rlinecurve
          -22 -63 -1 -7 -62 callgsubr
          17 59 18 2 8 7 1 12 rlinecurve
          64 604 rlineto
          142 -47 callgsubr
          endchar
        </CharString>
</ttFont>
